G75*
%MOIN*%
%OFA0B0*%
%FSLAX25Y25*%
%IPPOS*%
%LPD*%
%AMOC8*
5,1,8,0,0,1.08239X$1,22.5*
%
%ADD10C,0.00000*%
%ADD11R,0.06000X0.16000*%
%ADD12R,0.07400X0.07400*%
%ADD13C,0.07400*%
%ADD14C,0.02500*%
%ADD15C,0.01000*%
%ADD16C,0.01600*%
%ADD17C,0.02400*%
%ADD18C,0.01200*%
D10*
X0002386Y0002294D02*
X0002386Y0199144D01*
X0199236Y0199144D01*
X0199236Y0002294D01*
X0002386Y0002294D01*
D11*
X0008173Y0191034D03*
X0028173Y0191034D03*
X0062071Y0191310D03*
X0082071Y0191310D03*
X0112268Y0191113D03*
X0132268Y0191113D03*
X0159985Y0191113D03*
X0179985Y0191113D03*
D12*
X0096284Y0006873D03*
D13*
X0086284Y0007873D03*
X0076284Y0006873D03*
X0066284Y0007873D03*
X0056284Y0006873D03*
X0046284Y0007873D03*
X0036284Y0006873D03*
X0026284Y0007873D03*
D14*
X0015772Y0022767D03*
X0005142Y0015680D03*
X0005142Y0005050D03*
X0021677Y0034578D03*
X0021677Y0038908D03*
X0021677Y0043633D03*
X0021677Y0048357D03*
X0021677Y0053081D03*
X0012622Y0061743D03*
X0041362Y0061349D03*
X0058685Y0071979D03*
X0051992Y0081822D03*
X0066559Y0095995D03*
X0069709Y0095601D03*
X0073646Y0095995D03*
X0077189Y0097963D03*
X0081126Y0094026D03*
X0098449Y0077097D03*
X0098449Y0064893D03*
X0094512Y0064893D03*
X0090575Y0064893D03*
X0086244Y0064893D03*
X0086244Y0060562D03*
X0086244Y0056625D03*
X0086244Y0052688D03*
X0086244Y0048751D03*
X0086244Y0044420D03*
X0090575Y0044420D03*
X0094512Y0044420D03*
X0098449Y0044420D03*
X0102386Y0044420D03*
X0106323Y0044420D03*
X0110260Y0044420D03*
X0110260Y0048751D03*
X0110260Y0052688D03*
X0110260Y0056625D03*
X0110260Y0060562D03*
X0106323Y0060562D03*
X0102386Y0060562D03*
X0098449Y0060562D03*
X0094512Y0060562D03*
X0090575Y0060562D03*
X0090575Y0056625D03*
X0094512Y0056625D03*
X0098449Y0056625D03*
X0102386Y0056625D03*
X0106323Y0056625D03*
X0106323Y0052688D03*
X0102386Y0052688D03*
X0098449Y0052688D03*
X0094512Y0052688D03*
X0090575Y0052688D03*
X0090575Y0048751D03*
X0094512Y0048751D03*
X0098449Y0048751D03*
X0102386Y0048751D03*
X0106323Y0048751D03*
X0116559Y0036152D03*
X0103173Y0023554D03*
X0106323Y0020011D03*
X0096087Y0020011D03*
X0094118Y0023554D03*
X0089788Y0018436D03*
X0089394Y0014893D03*
X0075614Y0023160D03*
X0072465Y0033790D03*
X0069709Y0036152D03*
X0068134Y0039696D03*
X0063016Y0042845D03*
X0061835Y0038908D03*
X0065378Y0049144D03*
X0061835Y0025916D03*
X0047662Y0019617D03*
X0080339Y0072373D03*
X0102386Y0064893D03*
X0106323Y0064893D03*
X0110260Y0064893D03*
X0116166Y0072373D03*
X0124433Y0071979D03*
X0124040Y0076704D03*
X0129551Y0081822D03*
X0133882Y0079853D03*
X0132701Y0093239D03*
X0102780Y0105444D03*
X0100811Y0119223D03*
X0101205Y0122767D03*
X0116166Y0124341D03*
X0122859Y0125916D03*
X0122859Y0130247D03*
X0122859Y0134184D03*
X0123252Y0138515D03*
X0135063Y0146389D03*
X0134670Y0150719D03*
X0138607Y0150719D03*
X0142937Y0150719D03*
X0147268Y0149932D03*
X0145299Y0156231D03*
X0149236Y0157019D03*
X0149236Y0160956D03*
X0153173Y0164499D03*
X0156717Y0160956D03*
X0159079Y0157019D03*
X0156323Y0154656D03*
X0161048Y0151507D03*
X0163410Y0149144D03*
X0159079Y0147963D03*
X0158685Y0143633D03*
X0164985Y0153475D03*
X0168922Y0153081D03*
X0173252Y0153081D03*
X0176402Y0156231D03*
X0173252Y0159774D03*
X0173252Y0163318D03*
X0173252Y0167255D03*
X0173252Y0171585D03*
X0176796Y0175522D03*
X0176796Y0179853D03*
X0180733Y0181034D03*
X0166559Y0181034D03*
X0166559Y0177885D03*
X0166166Y0174735D03*
X0166166Y0171192D03*
X0166166Y0167255D03*
X0166166Y0163318D03*
X0166166Y0159381D03*
X0162229Y0158593D03*
X0140969Y0156231D03*
X0136638Y0156231D03*
X0132307Y0156231D03*
X0127977Y0156625D03*
X0125614Y0159381D03*
X0125614Y0163318D03*
X0128764Y0166861D03*
X0125614Y0170798D03*
X0125614Y0174341D03*
X0125614Y0177885D03*
X0125614Y0181034D03*
X0132307Y0181428D03*
X0118528Y0181034D03*
X0118528Y0177885D03*
X0118528Y0174341D03*
X0118528Y0170798D03*
X0118528Y0167255D03*
X0118528Y0163318D03*
X0118528Y0159381D03*
X0119709Y0155444D03*
X0122465Y0152294D03*
X0126402Y0150719D03*
X0130733Y0150719D03*
X0135851Y0135365D03*
X0136244Y0128672D03*
X0153173Y0128672D03*
X0163803Y0116467D03*
X0165378Y0104263D03*
X0186638Y0131428D03*
X0186638Y0135365D03*
X0186638Y0139302D03*
X0186638Y0143633D03*
X0160260Y0181428D03*
X0112229Y0181428D03*
X0082307Y0181428D03*
X0079158Y0179853D03*
X0079158Y0176310D03*
X0075614Y0172373D03*
X0075614Y0168830D03*
X0075614Y0164893D03*
X0075614Y0160956D03*
X0079158Y0158200D03*
X0075614Y0154656D03*
X0071677Y0154656D03*
X0068134Y0154656D03*
X0064591Y0154656D03*
X0060654Y0154656D03*
X0056717Y0154656D03*
X0053173Y0153475D03*
X0050811Y0150326D03*
X0050024Y0145995D03*
X0046087Y0153081D03*
X0047662Y0156625D03*
X0048055Y0160168D03*
X0051205Y0158987D03*
X0055536Y0160562D03*
X0060260Y0160562D03*
X0064591Y0160562D03*
X0068528Y0160562D03*
X0068528Y0164893D03*
X0068528Y0168830D03*
X0068528Y0172767D03*
X0068528Y0176704D03*
X0068528Y0180641D03*
X0061835Y0181428D03*
X0048055Y0163711D03*
X0043725Y0167255D03*
X0040181Y0163711D03*
X0040181Y0160168D03*
X0036244Y0158987D03*
X0031914Y0158987D03*
X0026796Y0158987D03*
X0022071Y0159381D03*
X0021677Y0163711D03*
X0025614Y0167255D03*
X0021677Y0171979D03*
X0021677Y0176310D03*
X0021677Y0180247D03*
X0014591Y0180247D03*
X0014591Y0176310D03*
X0014591Y0171979D03*
X0014591Y0167648D03*
X0014591Y0163318D03*
X0014591Y0158200D03*
X0017740Y0155050D03*
X0021677Y0153475D03*
X0021677Y0148357D03*
X0027977Y0144814D03*
X0026796Y0153475D03*
X0031914Y0153475D03*
X0036638Y0153475D03*
X0038213Y0149538D03*
X0038607Y0145207D03*
X0024827Y0135759D03*
X0028370Y0129853D03*
X0030339Y0117255D03*
X0036244Y0115286D03*
X0039000Y0107019D03*
X0039000Y0103081D03*
X0040575Y0098357D03*
X0033095Y0101900D03*
X0016559Y0102688D03*
X0009473Y0098357D03*
X0005929Y0098357D03*
X0013410Y0128278D03*
X0013410Y0133003D03*
X0013410Y0137727D03*
X0013410Y0142058D03*
X0044118Y0129853D03*
X0054355Y0118042D03*
X0059866Y0108987D03*
X0053961Y0106231D03*
X0054355Y0103081D03*
X0078764Y0110956D03*
X0078764Y0121979D03*
X0083882Y0122767D03*
X0077977Y0131822D03*
X0077977Y0136546D03*
X0077977Y0140877D03*
X0077977Y0145601D03*
X0058685Y0150326D03*
X0028370Y0181034D03*
X0007898Y0181034D03*
X0132307Y0051900D03*
X0132307Y0040877D03*
X0145299Y0052294D03*
D15*
X0134657Y0052220D02*
X0197736Y0052220D01*
X0197736Y0053218D02*
X0134313Y0053218D01*
X0134657Y0052874D02*
X0133281Y0054250D01*
X0131334Y0054250D01*
X0129957Y0052874D01*
X0129957Y0050927D01*
X0130607Y0050277D01*
X0130607Y0042500D01*
X0129957Y0041850D01*
X0129957Y0039903D01*
X0131334Y0038527D01*
X0133281Y0038527D01*
X0134657Y0039903D01*
X0134657Y0041850D01*
X0134007Y0042500D01*
X0134007Y0050277D01*
X0134657Y0050927D01*
X0134657Y0052874D01*
X0134657Y0051221D02*
X0197736Y0051221D01*
X0197736Y0050223D02*
X0134007Y0050223D01*
X0134007Y0049224D02*
X0197736Y0049224D01*
X0197736Y0048226D02*
X0134007Y0048226D01*
X0134007Y0047227D02*
X0197736Y0047227D01*
X0197736Y0046229D02*
X0134007Y0046229D01*
X0134007Y0045230D02*
X0197736Y0045230D01*
X0197736Y0044232D02*
X0134007Y0044232D01*
X0134007Y0043233D02*
X0197736Y0043233D01*
X0197736Y0042235D02*
X0134273Y0042235D01*
X0134657Y0041236D02*
X0197736Y0041236D01*
X0197736Y0040238D02*
X0134657Y0040238D01*
X0133993Y0039239D02*
X0197736Y0039239D01*
X0197736Y0038241D02*
X0077708Y0038241D01*
X0077708Y0039239D02*
X0130622Y0039239D01*
X0129957Y0040238D02*
X0077708Y0040238D01*
X0077708Y0041236D02*
X0129957Y0041236D01*
X0130342Y0042235D02*
X0077708Y0042235D01*
X0077708Y0043233D02*
X0130607Y0043233D01*
X0130607Y0044232D02*
X0077708Y0044232D01*
X0077708Y0045230D02*
X0130607Y0045230D01*
X0130607Y0046229D02*
X0077708Y0046229D01*
X0077708Y0047227D02*
X0130607Y0047227D01*
X0130607Y0048226D02*
X0077708Y0048226D01*
X0077708Y0049224D02*
X0130607Y0049224D01*
X0130607Y0050223D02*
X0077708Y0050223D01*
X0077708Y0051221D02*
X0129957Y0051221D01*
X0129957Y0052220D02*
X0077708Y0052220D01*
X0077708Y0053218D02*
X0130302Y0053218D01*
X0131300Y0054217D02*
X0077708Y0054217D01*
X0077708Y0055215D02*
X0197736Y0055215D01*
X0197736Y0054217D02*
X0133314Y0054217D01*
X0132909Y0077503D02*
X0134856Y0077503D01*
X0136232Y0078880D01*
X0136232Y0080827D01*
X0134856Y0082203D01*
X0133907Y0082203D01*
X0133907Y0091122D01*
X0135051Y0092266D01*
X0135051Y0094212D01*
X0133674Y0095589D01*
X0131728Y0095589D01*
X0131451Y0095313D01*
X0131451Y0111743D01*
X0118516Y0124678D01*
X0118516Y0125315D01*
X0117139Y0126691D01*
X0115192Y0126691D01*
X0114442Y0125941D01*
X0103262Y0125941D01*
X0102691Y0126005D01*
X0102612Y0125941D01*
X0102511Y0125941D01*
X0102105Y0125535D01*
X0101581Y0125117D01*
X0100232Y0125117D01*
X0098855Y0123740D01*
X0098855Y0121793D01*
X0100232Y0120417D01*
X0102178Y0120417D01*
X0103555Y0121793D01*
X0103555Y0122598D01*
X0103735Y0122741D01*
X0111313Y0122741D01*
X0098284Y0109712D01*
X0080844Y0109712D01*
X0081114Y0109982D01*
X0081114Y0111929D01*
X0079737Y0113305D01*
X0077791Y0113305D01*
X0076414Y0111929D01*
X0076414Y0111768D01*
X0064715Y0111768D01*
X0063778Y0110831D01*
X0056705Y0103757D01*
X0056705Y0104055D01*
X0055906Y0104853D01*
X0056311Y0105258D01*
X0056311Y0107205D01*
X0054934Y0108581D01*
X0052987Y0108581D01*
X0051611Y0107205D01*
X0051611Y0107044D01*
X0041350Y0107044D01*
X0041350Y0107992D01*
X0039974Y0109368D01*
X0038027Y0109368D01*
X0036650Y0107992D01*
X0036650Y0106045D01*
X0037645Y0105050D01*
X0036650Y0104055D01*
X0036650Y0102108D01*
X0038027Y0100731D01*
X0039974Y0100731D01*
X0040724Y0101481D01*
X0052631Y0101481D01*
X0053381Y0100731D01*
X0053679Y0100731D01*
X0052904Y0099957D01*
X0042298Y0099957D01*
X0041548Y0100707D01*
X0039602Y0100707D01*
X0038225Y0099330D01*
X0038225Y0097384D01*
X0039602Y0096007D01*
X0041548Y0096007D01*
X0042298Y0096757D01*
X0052652Y0096757D01*
X0049692Y0093798D01*
X0049692Y0082845D01*
X0049642Y0082795D01*
X0049642Y0080848D01*
X0051019Y0079472D01*
X0052966Y0079472D01*
X0054342Y0080848D01*
X0054342Y0082795D01*
X0054292Y0082845D01*
X0054292Y0091893D01*
X0067512Y0105112D01*
X0100189Y0105112D01*
X0116448Y0121372D01*
X0127651Y0110169D01*
X0127651Y0083245D01*
X0127201Y0082795D01*
X0127201Y0080848D01*
X0128578Y0079472D01*
X0130525Y0079472D01*
X0131263Y0080210D01*
X0131532Y0079940D01*
X0131532Y0078880D01*
X0132909Y0077503D01*
X0132231Y0078181D02*
X0077708Y0078181D01*
X0077708Y0079179D02*
X0131532Y0079179D01*
X0131295Y0080178D02*
X0131231Y0080178D01*
X0132307Y0081428D02*
X0132307Y0092452D01*
X0132701Y0092845D01*
X0132701Y0093239D01*
X0135051Y0093159D02*
X0197736Y0093159D01*
X0197736Y0094157D02*
X0135051Y0094157D01*
X0134108Y0095156D02*
X0197736Y0095156D01*
X0197736Y0096154D02*
X0131451Y0096154D01*
X0131451Y0097153D02*
X0197736Y0097153D01*
X0197736Y0098151D02*
X0131451Y0098151D01*
X0131451Y0099150D02*
X0197736Y0099150D01*
X0197736Y0100148D02*
X0131451Y0100148D01*
X0131451Y0101147D02*
X0197736Y0101147D01*
X0197736Y0102145D02*
X0131451Y0102145D01*
X0131451Y0103144D02*
X0197736Y0103144D01*
X0197736Y0104142D02*
X0131451Y0104142D01*
X0131451Y0105141D02*
X0197736Y0105141D01*
X0197736Y0106139D02*
X0131451Y0106139D01*
X0131451Y0107138D02*
X0197736Y0107138D01*
X0197736Y0108136D02*
X0131451Y0108136D01*
X0131451Y0109135D02*
X0197736Y0109135D01*
X0197736Y0110133D02*
X0131451Y0110133D01*
X0131451Y0111132D02*
X0197736Y0111132D01*
X0197736Y0112130D02*
X0131064Y0112130D01*
X0130065Y0113129D02*
X0197736Y0113129D01*
X0197736Y0114127D02*
X0129067Y0114127D01*
X0128068Y0115126D02*
X0197736Y0115126D01*
X0197736Y0116124D02*
X0127070Y0116124D01*
X0126071Y0117123D02*
X0197736Y0117123D01*
X0197736Y0118121D02*
X0125073Y0118121D01*
X0124074Y0119120D02*
X0197736Y0119120D01*
X0197736Y0120118D02*
X0123076Y0120118D01*
X0122077Y0121117D02*
X0197736Y0121117D01*
X0197736Y0122115D02*
X0121078Y0122115D01*
X0120080Y0123114D02*
X0197736Y0123114D01*
X0197736Y0124112D02*
X0119081Y0124112D01*
X0118516Y0125111D02*
X0197736Y0125111D01*
X0197736Y0126109D02*
X0117721Y0126109D01*
X0116166Y0124341D02*
X0103173Y0124341D01*
X0101205Y0122767D01*
X0102879Y0121117D02*
X0109689Y0121117D01*
X0110687Y0122115D02*
X0103555Y0122115D01*
X0099531Y0121117D02*
X0081114Y0121117D01*
X0081114Y0121006D02*
X0081114Y0122953D01*
X0079737Y0124329D01*
X0077791Y0124329D01*
X0076414Y0122953D01*
X0076414Y0122023D01*
X0070672Y0116886D01*
X0056522Y0116886D01*
X0056705Y0117069D01*
X0056705Y0119016D01*
X0055328Y0120392D01*
X0053381Y0120392D01*
X0052631Y0119642D01*
X0030464Y0119642D01*
X0030426Y0119605D01*
X0029365Y0119605D01*
X0027989Y0118228D01*
X0027989Y0116281D01*
X0029365Y0114905D01*
X0031312Y0114905D01*
X0032689Y0116281D01*
X0032689Y0116442D01*
X0034077Y0116442D01*
X0033894Y0116260D01*
X0033894Y0114313D01*
X0035271Y0112936D01*
X0037218Y0112936D01*
X0037968Y0113686D01*
X0071239Y0113686D01*
X0071857Y0113652D01*
X0071895Y0113686D01*
X0071946Y0113686D01*
X0072384Y0114123D01*
X0078537Y0119629D01*
X0079737Y0119629D01*
X0081114Y0121006D01*
X0081114Y0122115D02*
X0098855Y0122115D01*
X0098855Y0123114D02*
X0080953Y0123114D01*
X0079954Y0124112D02*
X0099228Y0124112D01*
X0100226Y0125111D02*
X0003886Y0125111D01*
X0003886Y0126109D02*
X0114610Y0126109D01*
X0116194Y0121117D02*
X0116703Y0121117D01*
X0117702Y0120118D02*
X0115195Y0120118D01*
X0114197Y0119120D02*
X0118700Y0119120D01*
X0119699Y0118121D02*
X0113198Y0118121D01*
X0112200Y0117123D02*
X0120697Y0117123D01*
X0121696Y0116124D02*
X0111201Y0116124D01*
X0110203Y0115126D02*
X0122694Y0115126D01*
X0123693Y0114127D02*
X0109204Y0114127D01*
X0108206Y0113129D02*
X0124691Y0113129D01*
X0125690Y0112130D02*
X0107207Y0112130D01*
X0106209Y0111132D02*
X0126688Y0111132D01*
X0127651Y0110133D02*
X0105210Y0110133D01*
X0104212Y0109135D02*
X0127651Y0109135D01*
X0127651Y0108136D02*
X0103213Y0108136D01*
X0102215Y0107138D02*
X0127651Y0107138D01*
X0127651Y0106139D02*
X0101216Y0106139D01*
X0100218Y0105141D02*
X0127651Y0105141D01*
X0127651Y0104142D02*
X0066542Y0104142D01*
X0065544Y0103144D02*
X0127651Y0103144D01*
X0127651Y0102145D02*
X0064545Y0102145D01*
X0063547Y0101147D02*
X0127651Y0101147D01*
X0127651Y0100148D02*
X0078328Y0100148D01*
X0078163Y0100313D02*
X0076216Y0100313D01*
X0074839Y0098937D01*
X0074839Y0098125D01*
X0074619Y0098345D01*
X0072673Y0098345D01*
X0071481Y0097153D01*
X0070682Y0097951D01*
X0068736Y0097951D01*
X0068331Y0097547D01*
X0067533Y0098345D01*
X0065586Y0098345D01*
X0064209Y0096968D01*
X0064209Y0095021D01*
X0064959Y0094271D01*
X0064959Y0094151D01*
X0066534Y0092576D01*
X0066534Y0048985D01*
X0063015Y0045195D01*
X0062043Y0045195D01*
X0060666Y0043819D01*
X0060666Y0041872D01*
X0062043Y0040495D01*
X0063989Y0040495D01*
X0065366Y0041872D01*
X0065366Y0043025D01*
X0068503Y0046403D01*
X0068503Y0042327D01*
X0068221Y0042046D01*
X0067161Y0042046D01*
X0065784Y0040669D01*
X0065784Y0038722D01*
X0067161Y0037346D01*
X0067579Y0037346D01*
X0067359Y0037126D01*
X0067359Y0035179D01*
X0068736Y0033802D01*
X0070115Y0033802D01*
X0070115Y0032817D01*
X0071491Y0031440D01*
X0073438Y0031440D01*
X0074308Y0032310D01*
X0074308Y0025177D01*
X0073264Y0024134D01*
X0073264Y0022187D01*
X0074641Y0020810D01*
X0076588Y0020810D01*
X0077964Y0022187D01*
X0077964Y0023106D01*
X0078287Y0023429D01*
X0087509Y0023429D01*
X0092627Y0018311D01*
X0094463Y0018311D01*
X0095113Y0017661D01*
X0097060Y0017661D01*
X0097710Y0018311D01*
X0104700Y0018311D01*
X0105350Y0017661D01*
X0107297Y0017661D01*
X0108673Y0019037D01*
X0108673Y0020984D01*
X0107297Y0022361D01*
X0105350Y0022361D01*
X0104700Y0021711D01*
X0097710Y0021711D01*
X0097060Y0022361D01*
X0095113Y0022361D01*
X0094463Y0021711D01*
X0094035Y0021711D01*
X0089913Y0025833D01*
X0088917Y0026829D01*
X0077708Y0026829D01*
X0077708Y0090566D01*
X0079468Y0092326D01*
X0079503Y0092326D01*
X0080153Y0091676D01*
X0082100Y0091676D01*
X0083476Y0093053D01*
X0083476Y0095000D01*
X0082100Y0096376D01*
X0080153Y0096376D01*
X0079503Y0095726D01*
X0078789Y0095726D01*
X0078789Y0096240D01*
X0079539Y0096990D01*
X0079539Y0098937D01*
X0078163Y0100313D01*
X0079326Y0099150D02*
X0127651Y0099150D01*
X0127651Y0098151D02*
X0079539Y0098151D01*
X0079539Y0097153D02*
X0127651Y0097153D01*
X0127651Y0096154D02*
X0082322Y0096154D01*
X0083320Y0095156D02*
X0127651Y0095156D01*
X0127651Y0094157D02*
X0083476Y0094157D01*
X0083476Y0093159D02*
X0127651Y0093159D01*
X0127651Y0092160D02*
X0082583Y0092160D01*
X0079669Y0092160D02*
X0079302Y0092160D01*
X0078303Y0091162D02*
X0127651Y0091162D01*
X0127651Y0090163D02*
X0077708Y0090163D01*
X0077708Y0089165D02*
X0127651Y0089165D01*
X0127651Y0088166D02*
X0077708Y0088166D01*
X0077708Y0087168D02*
X0127651Y0087168D01*
X0127651Y0086169D02*
X0077708Y0086169D01*
X0077708Y0085171D02*
X0127651Y0085171D01*
X0127651Y0084172D02*
X0077708Y0084172D01*
X0077708Y0083174D02*
X0127580Y0083174D01*
X0127201Y0082175D02*
X0077708Y0082175D01*
X0077708Y0081176D02*
X0127201Y0081176D01*
X0127872Y0080178D02*
X0077708Y0080178D01*
X0077708Y0077182D02*
X0197736Y0077182D01*
X0197736Y0076184D02*
X0077708Y0076184D01*
X0077708Y0075185D02*
X0197736Y0075185D01*
X0197736Y0074187D02*
X0077708Y0074187D01*
X0077708Y0073188D02*
X0197736Y0073188D01*
X0197736Y0072190D02*
X0077708Y0072190D01*
X0077708Y0071191D02*
X0197736Y0071191D01*
X0197736Y0070193D02*
X0077708Y0070193D01*
X0077708Y0069194D02*
X0197736Y0069194D01*
X0197736Y0068196D02*
X0077708Y0068196D01*
X0077708Y0067197D02*
X0197736Y0067197D01*
X0197736Y0066199D02*
X0077708Y0066199D01*
X0077708Y0065200D02*
X0197736Y0065200D01*
X0197736Y0064202D02*
X0077708Y0064202D01*
X0077708Y0063203D02*
X0197736Y0063203D01*
X0197736Y0062205D02*
X0077708Y0062205D01*
X0077708Y0061206D02*
X0197736Y0061206D01*
X0197736Y0060208D02*
X0077708Y0060208D01*
X0077708Y0059209D02*
X0197736Y0059209D01*
X0197736Y0058211D02*
X0077708Y0058211D01*
X0077708Y0057212D02*
X0197736Y0057212D01*
X0197736Y0056214D02*
X0077708Y0056214D01*
X0068134Y0048357D02*
X0063016Y0042845D01*
X0061302Y0041236D02*
X0003886Y0041236D01*
X0003886Y0040238D02*
X0065784Y0040238D01*
X0065784Y0039239D02*
X0003886Y0039239D01*
X0003886Y0038241D02*
X0066266Y0038241D01*
X0067475Y0037242D02*
X0003886Y0037242D01*
X0003886Y0036243D02*
X0067359Y0036243D01*
X0067359Y0035245D02*
X0003886Y0035245D01*
X0003886Y0034246D02*
X0068291Y0034246D01*
X0070115Y0033248D02*
X0003886Y0033248D01*
X0003886Y0032249D02*
X0070682Y0032249D01*
X0072465Y0033790D02*
X0074040Y0035365D01*
X0074040Y0092452D01*
X0077189Y0095601D01*
X0077189Y0097963D01*
X0074839Y0098151D02*
X0074813Y0098151D01*
X0075052Y0099150D02*
X0061549Y0099150D01*
X0060551Y0098151D02*
X0065392Y0098151D01*
X0064394Y0097153D02*
X0059552Y0097153D01*
X0058554Y0096154D02*
X0064209Y0096154D01*
X0064209Y0095156D02*
X0057555Y0095156D01*
X0056557Y0094157D02*
X0064959Y0094157D01*
X0065952Y0093159D02*
X0055558Y0093159D01*
X0054560Y0092160D02*
X0066534Y0092160D01*
X0066534Y0091162D02*
X0054292Y0091162D01*
X0054292Y0090163D02*
X0066534Y0090163D01*
X0066534Y0089165D02*
X0054292Y0089165D01*
X0054292Y0088166D02*
X0066534Y0088166D01*
X0066534Y0087168D02*
X0054292Y0087168D01*
X0054292Y0086169D02*
X0066534Y0086169D01*
X0066534Y0085171D02*
X0054292Y0085171D01*
X0054292Y0084172D02*
X0066534Y0084172D01*
X0066534Y0083174D02*
X0054292Y0083174D01*
X0054342Y0082175D02*
X0066534Y0082175D01*
X0066534Y0081176D02*
X0054342Y0081176D01*
X0053672Y0080178D02*
X0066534Y0080178D01*
X0066534Y0079179D02*
X0003886Y0079179D01*
X0003886Y0078181D02*
X0066534Y0078181D01*
X0066534Y0077182D02*
X0003886Y0077182D01*
X0003886Y0076184D02*
X0066534Y0076184D01*
X0066534Y0075185D02*
X0003886Y0075185D01*
X0003886Y0074187D02*
X0066534Y0074187D01*
X0066534Y0073188D02*
X0003886Y0073188D01*
X0003886Y0072190D02*
X0066534Y0072190D01*
X0066534Y0071191D02*
X0003886Y0071191D01*
X0003886Y0070193D02*
X0066534Y0070193D01*
X0066534Y0069194D02*
X0003886Y0069194D01*
X0003886Y0068196D02*
X0066534Y0068196D01*
X0066534Y0067197D02*
X0003886Y0067197D01*
X0003886Y0066199D02*
X0066534Y0066199D01*
X0066534Y0065200D02*
X0003886Y0065200D01*
X0003886Y0064202D02*
X0066534Y0064202D01*
X0066534Y0063203D02*
X0003886Y0063203D01*
X0003886Y0062205D02*
X0066534Y0062205D01*
X0066534Y0061206D02*
X0003886Y0061206D01*
X0003886Y0060208D02*
X0066534Y0060208D01*
X0066534Y0059209D02*
X0003886Y0059209D01*
X0003886Y0058211D02*
X0066534Y0058211D01*
X0066534Y0057212D02*
X0003886Y0057212D01*
X0003886Y0056214D02*
X0066534Y0056214D01*
X0066534Y0055215D02*
X0003886Y0055215D01*
X0003886Y0054217D02*
X0066534Y0054217D01*
X0066534Y0053218D02*
X0003886Y0053218D01*
X0003886Y0052220D02*
X0066534Y0052220D01*
X0066534Y0051221D02*
X0003886Y0051221D01*
X0003886Y0050223D02*
X0066534Y0050223D01*
X0066534Y0049224D02*
X0003886Y0049224D01*
X0003886Y0048226D02*
X0065829Y0048226D01*
X0064901Y0047227D02*
X0003886Y0047227D01*
X0003886Y0046229D02*
X0063974Y0046229D01*
X0063047Y0045230D02*
X0003886Y0045230D01*
X0003886Y0044232D02*
X0061079Y0044232D01*
X0060666Y0043233D02*
X0003886Y0043233D01*
X0003886Y0042235D02*
X0060666Y0042235D01*
X0064730Y0041236D02*
X0066351Y0041236D01*
X0065366Y0042235D02*
X0068410Y0042235D01*
X0068503Y0043233D02*
X0065560Y0043233D01*
X0066487Y0044232D02*
X0068503Y0044232D01*
X0068503Y0045230D02*
X0067414Y0045230D01*
X0068341Y0046229D02*
X0068503Y0046229D01*
X0068134Y0048357D02*
X0068134Y0093239D01*
X0066559Y0094814D01*
X0066559Y0095995D01*
X0067726Y0098151D02*
X0072479Y0098151D01*
X0073646Y0095995D02*
X0073646Y0094814D01*
X0072071Y0093239D01*
X0072071Y0038121D01*
X0069709Y0036152D01*
X0068134Y0039696D02*
X0070103Y0041664D01*
X0070103Y0095207D01*
X0069709Y0095601D01*
X0076051Y0100148D02*
X0062548Y0100148D01*
X0057090Y0104142D02*
X0056617Y0104142D01*
X0056194Y0105141D02*
X0058088Y0105141D01*
X0059087Y0106139D02*
X0056311Y0106139D01*
X0056311Y0107138D02*
X0060085Y0107138D01*
X0061084Y0108136D02*
X0055379Y0108136D01*
X0054355Y0106231D02*
X0053961Y0106231D01*
X0054355Y0106231D02*
X0053567Y0105444D01*
X0040575Y0105444D01*
X0039000Y0107019D01*
X0036650Y0107138D02*
X0003886Y0107138D01*
X0003886Y0108136D02*
X0036795Y0108136D01*
X0037793Y0109135D02*
X0003886Y0109135D01*
X0003886Y0110133D02*
X0063081Y0110133D01*
X0062082Y0109135D02*
X0040207Y0109135D01*
X0041206Y0108136D02*
X0052543Y0108136D01*
X0051611Y0107138D02*
X0041350Y0107138D01*
X0037555Y0105141D02*
X0003886Y0105141D01*
X0003886Y0106139D02*
X0036650Y0106139D01*
X0036738Y0104142D02*
X0003886Y0104142D01*
X0003886Y0103144D02*
X0036650Y0103144D01*
X0036650Y0102145D02*
X0003886Y0102145D01*
X0003886Y0101147D02*
X0037612Y0101147D01*
X0039043Y0100148D02*
X0003886Y0100148D01*
X0003886Y0099150D02*
X0038225Y0099150D01*
X0038225Y0098151D02*
X0003886Y0098151D01*
X0003886Y0097153D02*
X0038456Y0097153D01*
X0039455Y0096154D02*
X0003886Y0096154D01*
X0003886Y0095156D02*
X0051050Y0095156D01*
X0052049Y0096154D02*
X0041696Y0096154D01*
X0040575Y0098357D02*
X0053567Y0098357D01*
X0065378Y0110168D01*
X0077977Y0110168D01*
X0078764Y0110956D01*
X0081114Y0111132D02*
X0099703Y0111132D01*
X0098705Y0110133D02*
X0081114Y0110133D01*
X0080913Y0112130D02*
X0100702Y0112130D01*
X0101700Y0113129D02*
X0079914Y0113129D01*
X0077614Y0113129D02*
X0037410Y0113129D01*
X0035078Y0113129D02*
X0003886Y0113129D01*
X0003886Y0114127D02*
X0034080Y0114127D01*
X0033894Y0115126D02*
X0031533Y0115126D01*
X0032532Y0116124D02*
X0033894Y0116124D01*
X0036244Y0115286D02*
X0071284Y0115286D01*
X0078764Y0121979D01*
X0080227Y0120118D02*
X0108690Y0120118D01*
X0107692Y0119120D02*
X0077968Y0119120D01*
X0076852Y0118121D02*
X0106693Y0118121D01*
X0105695Y0117123D02*
X0075736Y0117123D01*
X0074620Y0116124D02*
X0104696Y0116124D01*
X0103697Y0115126D02*
X0073504Y0115126D01*
X0072388Y0114127D02*
X0102699Y0114127D01*
X0079931Y0096154D02*
X0078789Y0096154D01*
X0076615Y0112130D02*
X0003886Y0112130D01*
X0003886Y0111132D02*
X0064079Y0111132D01*
X0070937Y0117123D02*
X0056705Y0117123D01*
X0056705Y0118121D02*
X0072053Y0118121D01*
X0073169Y0119120D02*
X0056600Y0119120D01*
X0055602Y0120118D02*
X0074285Y0120118D01*
X0075401Y0121117D02*
X0003886Y0121117D01*
X0003886Y0122115D02*
X0076414Y0122115D01*
X0076575Y0123114D02*
X0003886Y0123114D01*
X0003886Y0124112D02*
X0077574Y0124112D01*
X0054355Y0118042D02*
X0031126Y0118042D01*
X0030339Y0117255D01*
X0028881Y0119120D02*
X0003886Y0119120D01*
X0003886Y0120118D02*
X0053108Y0120118D01*
X0054355Y0103081D02*
X0039000Y0103081D01*
X0040389Y0101147D02*
X0052966Y0101147D01*
X0053096Y0100148D02*
X0042107Y0100148D01*
X0050052Y0094157D02*
X0003886Y0094157D01*
X0003886Y0093159D02*
X0049692Y0093159D01*
X0049692Y0092160D02*
X0003886Y0092160D01*
X0003886Y0091162D02*
X0049692Y0091162D01*
X0049692Y0090163D02*
X0003886Y0090163D01*
X0003886Y0089165D02*
X0049692Y0089165D01*
X0049692Y0088166D02*
X0003886Y0088166D01*
X0003886Y0087168D02*
X0049692Y0087168D01*
X0049692Y0086169D02*
X0003886Y0086169D01*
X0003886Y0085171D02*
X0049692Y0085171D01*
X0049692Y0084172D02*
X0003886Y0084172D01*
X0003886Y0083174D02*
X0049692Y0083174D01*
X0049642Y0082175D02*
X0003886Y0082175D01*
X0003886Y0081176D02*
X0049642Y0081176D01*
X0050313Y0080178D02*
X0003886Y0080178D01*
X0003886Y0115126D02*
X0029144Y0115126D01*
X0028146Y0116124D02*
X0003886Y0116124D01*
X0003886Y0117123D02*
X0027989Y0117123D01*
X0027989Y0118121D02*
X0003886Y0118121D01*
X0003886Y0127108D02*
X0197736Y0127108D01*
X0197736Y0128107D02*
X0003886Y0128107D01*
X0003886Y0129105D02*
X0197736Y0129105D01*
X0197736Y0130104D02*
X0003886Y0130104D01*
X0003886Y0131102D02*
X0197736Y0131102D01*
X0197736Y0132101D02*
X0003886Y0132101D01*
X0003886Y0133099D02*
X0134793Y0133099D01*
X0134877Y0133015D02*
X0136824Y0133015D01*
X0138201Y0134392D01*
X0138201Y0136338D01*
X0137451Y0137088D01*
X0137451Y0146264D01*
X0137413Y0146301D01*
X0137413Y0147362D01*
X0136037Y0148739D01*
X0134090Y0148739D01*
X0132713Y0147362D01*
X0132713Y0145415D01*
X0134090Y0144039D01*
X0134251Y0144039D01*
X0134251Y0137088D01*
X0133501Y0136338D01*
X0133501Y0134392D01*
X0134877Y0133015D01*
X0133795Y0134098D02*
X0026489Y0134098D01*
X0027177Y0134785D02*
X0025800Y0133409D01*
X0023854Y0133409D01*
X0022477Y0134785D01*
X0022477Y0136732D01*
X0023227Y0137482D01*
X0023227Y0144545D01*
X0021765Y0146007D01*
X0020704Y0146007D01*
X0019327Y0147384D01*
X0019327Y0149330D01*
X0020704Y0150707D01*
X0022651Y0150707D01*
X0024027Y0149330D01*
X0024027Y0148270D01*
X0026427Y0145870D01*
X0026427Y0137482D01*
X0027177Y0136732D01*
X0027177Y0134785D01*
X0027177Y0135096D02*
X0133501Y0135096D01*
X0133501Y0136095D02*
X0027177Y0136095D01*
X0026816Y0137093D02*
X0134251Y0137093D01*
X0134251Y0138092D02*
X0026427Y0138092D01*
X0026427Y0139090D02*
X0134251Y0139090D01*
X0134251Y0140089D02*
X0026427Y0140089D01*
X0026427Y0141087D02*
X0134251Y0141087D01*
X0134251Y0142086D02*
X0026427Y0142086D01*
X0026427Y0143084D02*
X0134251Y0143084D01*
X0134046Y0144083D02*
X0026427Y0144083D01*
X0026427Y0145081D02*
X0133047Y0145081D01*
X0132713Y0146080D02*
X0026218Y0146080D01*
X0025219Y0147078D02*
X0132713Y0147078D01*
X0133428Y0148077D02*
X0024220Y0148077D01*
X0024027Y0149075D02*
X0197736Y0149075D01*
X0197736Y0148077D02*
X0136698Y0148077D01*
X0137413Y0147078D02*
X0197736Y0147078D01*
X0197736Y0146080D02*
X0137451Y0146080D01*
X0137451Y0145081D02*
X0197736Y0145081D01*
X0197736Y0144083D02*
X0137451Y0144083D01*
X0137451Y0143084D02*
X0197736Y0143084D01*
X0197736Y0142086D02*
X0137451Y0142086D01*
X0137451Y0141087D02*
X0197736Y0141087D01*
X0197736Y0140089D02*
X0137451Y0140089D01*
X0137451Y0139090D02*
X0197736Y0139090D01*
X0197736Y0138092D02*
X0137451Y0138092D01*
X0137451Y0137093D02*
X0197736Y0137093D01*
X0197736Y0136095D02*
X0138201Y0136095D01*
X0138201Y0135096D02*
X0197736Y0135096D01*
X0197736Y0134098D02*
X0137907Y0134098D01*
X0136908Y0133099D02*
X0197736Y0133099D01*
X0197736Y0150074D02*
X0023284Y0150074D01*
X0021677Y0148357D02*
X0024827Y0145207D01*
X0024827Y0135759D01*
X0023165Y0134098D02*
X0003886Y0134098D01*
X0003886Y0135096D02*
X0022477Y0135096D01*
X0022477Y0136095D02*
X0003886Y0136095D01*
X0003886Y0137093D02*
X0022838Y0137093D01*
X0023227Y0138092D02*
X0003886Y0138092D01*
X0003886Y0139090D02*
X0023227Y0139090D01*
X0023227Y0140089D02*
X0003886Y0140089D01*
X0003886Y0141087D02*
X0023227Y0141087D01*
X0023227Y0142086D02*
X0003886Y0142086D01*
X0003886Y0143084D02*
X0023227Y0143084D01*
X0023227Y0144083D02*
X0003886Y0144083D01*
X0003886Y0145081D02*
X0022691Y0145081D01*
X0020631Y0146080D02*
X0003886Y0146080D01*
X0003886Y0147078D02*
X0019633Y0147078D01*
X0019327Y0148077D02*
X0003886Y0148077D01*
X0003886Y0149075D02*
X0019327Y0149075D01*
X0020071Y0150074D02*
X0003886Y0150074D01*
X0003886Y0151072D02*
X0197736Y0151072D01*
X0197736Y0152071D02*
X0003886Y0152071D01*
X0003886Y0153069D02*
X0197736Y0153069D01*
X0197736Y0154068D02*
X0003886Y0154068D01*
X0003886Y0155066D02*
X0197736Y0155066D01*
X0197736Y0156065D02*
X0003886Y0156065D01*
X0003886Y0157063D02*
X0197736Y0157063D01*
X0197736Y0158062D02*
X0003886Y0158062D01*
X0003886Y0159060D02*
X0197736Y0159060D01*
X0197736Y0160059D02*
X0003886Y0160059D01*
X0003886Y0161057D02*
X0197736Y0161057D01*
X0197736Y0162056D02*
X0003886Y0162056D01*
X0003886Y0163054D02*
X0197736Y0163054D01*
X0197736Y0164053D02*
X0003886Y0164053D01*
X0003886Y0165051D02*
X0197736Y0165051D01*
X0197736Y0166050D02*
X0003886Y0166050D01*
X0003886Y0167048D02*
X0197736Y0167048D01*
X0197736Y0168047D02*
X0003886Y0168047D01*
X0003886Y0169045D02*
X0197736Y0169045D01*
X0197736Y0170044D02*
X0003886Y0170044D01*
X0003886Y0171043D02*
X0197736Y0171043D01*
X0197736Y0172041D02*
X0003886Y0172041D01*
X0003886Y0173040D02*
X0197736Y0173040D01*
X0197736Y0174038D02*
X0003886Y0174038D01*
X0003886Y0175037D02*
X0197736Y0175037D01*
X0197736Y0176035D02*
X0003886Y0176035D01*
X0003886Y0177034D02*
X0197736Y0177034D01*
X0197736Y0178032D02*
X0003886Y0178032D01*
X0003886Y0179031D02*
X0197736Y0179031D01*
X0197736Y0180029D02*
X0003886Y0180029D01*
X0003886Y0181028D02*
X0197736Y0181028D01*
X0197736Y0182026D02*
X0184019Y0182026D01*
X0183906Y0181913D02*
X0184185Y0182192D01*
X0184382Y0182534D01*
X0184485Y0182916D01*
X0184485Y0190613D01*
X0180485Y0190613D01*
X0180485Y0191613D01*
X0184485Y0191613D01*
X0184485Y0197644D01*
X0197736Y0197644D01*
X0197736Y0003794D01*
X0101084Y0003794D01*
X0101084Y0011028D01*
X0100439Y0011673D01*
X0092128Y0011673D01*
X0091484Y0011028D01*
X0091484Y0003794D01*
X0088980Y0003794D01*
X0089003Y0003804D01*
X0090353Y0005154D01*
X0091084Y0006918D01*
X0091084Y0008828D01*
X0090353Y0010592D01*
X0089003Y0011942D01*
X0087239Y0012673D01*
X0085329Y0012673D01*
X0083565Y0011942D01*
X0082214Y0010592D01*
X0081484Y0008828D01*
X0081484Y0006918D01*
X0082214Y0005154D01*
X0083565Y0003804D01*
X0083588Y0003794D01*
X0079993Y0003794D01*
X0080353Y0004154D01*
X0081084Y0005918D01*
X0081084Y0007828D01*
X0080353Y0009592D01*
X0079003Y0010942D01*
X0077239Y0011673D01*
X0075329Y0011673D01*
X0073565Y0010942D01*
X0072214Y0009592D01*
X0071484Y0007828D01*
X0071484Y0005918D01*
X0072214Y0004154D01*
X0072574Y0003794D01*
X0068980Y0003794D01*
X0069003Y0003804D01*
X0070353Y0005154D01*
X0071084Y0006918D01*
X0071084Y0008828D01*
X0070353Y0010592D01*
X0069003Y0011942D01*
X0067239Y0012673D01*
X0065329Y0012673D01*
X0063565Y0011942D01*
X0062214Y0010592D01*
X0061484Y0008828D01*
X0061484Y0006918D01*
X0062214Y0005154D01*
X0063565Y0003804D01*
X0063588Y0003794D01*
X0059993Y0003794D01*
X0060353Y0004154D01*
X0061084Y0005918D01*
X0061084Y0007828D01*
X0060353Y0009592D01*
X0059003Y0010942D01*
X0057239Y0011673D01*
X0055329Y0011673D01*
X0053565Y0010942D01*
X0052214Y0009592D01*
X0051484Y0007828D01*
X0051484Y0005918D01*
X0052214Y0004154D01*
X0052574Y0003794D01*
X0048980Y0003794D01*
X0049003Y0003804D01*
X0050353Y0005154D01*
X0051084Y0006918D01*
X0051084Y0008828D01*
X0050353Y0010592D01*
X0049003Y0011942D01*
X0047239Y0012673D01*
X0045329Y0012673D01*
X0043565Y0011942D01*
X0042214Y0010592D01*
X0041484Y0008828D01*
X0041484Y0006918D01*
X0042214Y0005154D01*
X0043565Y0003804D01*
X0043588Y0003794D01*
X0040474Y0003794D01*
X0040731Y0004147D01*
X0041103Y0004877D01*
X0041356Y0005655D01*
X0041469Y0006373D01*
X0036784Y0006373D01*
X0036784Y0007373D01*
X0041469Y0007373D01*
X0041356Y0008091D01*
X0041103Y0008869D01*
X0040731Y0009598D01*
X0040250Y0010260D01*
X0039671Y0010839D01*
X0039009Y0011320D01*
X0038280Y0011692D01*
X0037501Y0011945D01*
X0036784Y0012058D01*
X0036784Y0007373D01*
X0035784Y0007373D01*
X0035784Y0012058D01*
X0035066Y0011945D01*
X0034288Y0011692D01*
X0033558Y0011320D01*
X0032896Y0010839D01*
X0032317Y0010260D01*
X0031836Y0009598D01*
X0031465Y0008869D01*
X0031212Y0008091D01*
X0031098Y0007373D01*
X0035784Y0007373D01*
X0035784Y0006373D01*
X0031098Y0006373D01*
X0031212Y0005655D01*
X0031465Y0004877D01*
X0031836Y0004147D01*
X0032093Y0003794D01*
X0028980Y0003794D01*
X0029003Y0003804D01*
X0030353Y0005154D01*
X0031084Y0006918D01*
X0031084Y0008828D01*
X0030353Y0010592D01*
X0029003Y0011942D01*
X0027239Y0012673D01*
X0025329Y0012673D01*
X0023565Y0011942D01*
X0022214Y0010592D01*
X0021484Y0008828D01*
X0021484Y0006918D01*
X0022214Y0005154D01*
X0023565Y0003804D01*
X0023588Y0003794D01*
X0003886Y0003794D01*
X0003886Y0182264D01*
X0003973Y0182113D01*
X0004252Y0181834D01*
X0004595Y0181636D01*
X0004976Y0181534D01*
X0007674Y0181534D01*
X0007674Y0190534D01*
X0008673Y0190534D01*
X0008673Y0181534D01*
X0011371Y0181534D01*
X0011752Y0181636D01*
X0012095Y0181834D01*
X0012374Y0182113D01*
X0012571Y0182455D01*
X0012673Y0182837D01*
X0012673Y0190534D01*
X0008674Y0190534D01*
X0008674Y0191534D01*
X0012673Y0191534D01*
X0012673Y0197644D01*
X0023673Y0197644D01*
X0023673Y0191534D01*
X0027673Y0191534D01*
X0027673Y0190534D01*
X0023673Y0190534D01*
X0023673Y0182837D01*
X0023776Y0182455D01*
X0023973Y0182113D01*
X0024252Y0181834D01*
X0024595Y0181636D01*
X0024976Y0181534D01*
X0027674Y0181534D01*
X0027674Y0190534D01*
X0028673Y0190534D01*
X0028673Y0181534D01*
X0031371Y0181534D01*
X0031752Y0181636D01*
X0032095Y0181834D01*
X0032374Y0182113D01*
X0032571Y0182455D01*
X0032673Y0182837D01*
X0032673Y0190534D01*
X0028674Y0190534D01*
X0028674Y0191534D01*
X0032673Y0191534D01*
X0032673Y0197644D01*
X0057571Y0197644D01*
X0057571Y0191810D01*
X0061571Y0191810D01*
X0061571Y0190810D01*
X0057571Y0190810D01*
X0057571Y0183112D01*
X0057673Y0182731D01*
X0057871Y0182389D01*
X0058150Y0182110D01*
X0058492Y0181912D01*
X0058874Y0181810D01*
X0061571Y0181810D01*
X0061571Y0190810D01*
X0062571Y0190810D01*
X0062571Y0191810D01*
X0066571Y0191810D01*
X0066571Y0197644D01*
X0077571Y0197644D01*
X0077571Y0191810D01*
X0081571Y0191810D01*
X0081571Y0190810D01*
X0077571Y0190810D01*
X0077571Y0183112D01*
X0077673Y0182731D01*
X0077871Y0182389D01*
X0078150Y0182110D01*
X0078492Y0181912D01*
X0078874Y0181810D01*
X0081571Y0181810D01*
X0081571Y0190810D01*
X0082571Y0190810D01*
X0082571Y0191810D01*
X0086571Y0191810D01*
X0086571Y0197644D01*
X0107768Y0197644D01*
X0107768Y0191613D01*
X0111768Y0191613D01*
X0111768Y0190613D01*
X0112768Y0190613D01*
X0112768Y0191613D01*
X0116768Y0191613D01*
X0116768Y0197644D01*
X0127768Y0197644D01*
X0127768Y0191613D01*
X0131768Y0191613D01*
X0131768Y0190613D01*
X0132768Y0190613D01*
X0132768Y0191613D01*
X0136768Y0191613D01*
X0136768Y0197644D01*
X0155485Y0197644D01*
X0155485Y0191613D01*
X0159484Y0191613D01*
X0159484Y0190613D01*
X0155485Y0190613D01*
X0155485Y0182916D01*
X0155587Y0182534D01*
X0155784Y0182192D01*
X0156063Y0181913D01*
X0156406Y0181715D01*
X0156787Y0181613D01*
X0159485Y0181613D01*
X0159485Y0190613D01*
X0160484Y0190613D01*
X0160484Y0181613D01*
X0163182Y0181613D01*
X0163563Y0181715D01*
X0163906Y0181913D01*
X0164185Y0182192D01*
X0164382Y0182534D01*
X0164485Y0182916D01*
X0164485Y0190613D01*
X0160485Y0190613D01*
X0160485Y0191613D01*
X0164485Y0191613D01*
X0164485Y0197644D01*
X0175485Y0197644D01*
X0175485Y0191613D01*
X0179484Y0191613D01*
X0179484Y0190613D01*
X0175485Y0190613D01*
X0175485Y0182916D01*
X0175587Y0182534D01*
X0175784Y0182192D01*
X0176063Y0181913D01*
X0176406Y0181715D01*
X0176787Y0181613D01*
X0179485Y0181613D01*
X0179485Y0190613D01*
X0180484Y0190613D01*
X0180484Y0181613D01*
X0183182Y0181613D01*
X0183563Y0181715D01*
X0183906Y0181913D01*
X0184485Y0183025D02*
X0197736Y0183025D01*
X0197736Y0184023D02*
X0184485Y0184023D01*
X0184485Y0185022D02*
X0197736Y0185022D01*
X0197736Y0186020D02*
X0184485Y0186020D01*
X0184485Y0187019D02*
X0197736Y0187019D01*
X0197736Y0188017D02*
X0184485Y0188017D01*
X0184485Y0189016D02*
X0197736Y0189016D01*
X0197736Y0190014D02*
X0184485Y0190014D01*
X0184485Y0192011D02*
X0197736Y0192011D01*
X0197736Y0191013D02*
X0180485Y0191013D01*
X0180484Y0190014D02*
X0179485Y0190014D01*
X0179485Y0189016D02*
X0180484Y0189016D01*
X0180484Y0188017D02*
X0179485Y0188017D01*
X0179485Y0187019D02*
X0180484Y0187019D01*
X0180484Y0186020D02*
X0179485Y0186020D01*
X0179485Y0185022D02*
X0180484Y0185022D01*
X0180484Y0184023D02*
X0179485Y0184023D01*
X0179485Y0183025D02*
X0180484Y0183025D01*
X0180484Y0182026D02*
X0179485Y0182026D01*
X0175950Y0182026D02*
X0164019Y0182026D01*
X0164485Y0183025D02*
X0175485Y0183025D01*
X0175485Y0184023D02*
X0164485Y0184023D01*
X0164485Y0185022D02*
X0175485Y0185022D01*
X0175485Y0186020D02*
X0164485Y0186020D01*
X0164485Y0187019D02*
X0175485Y0187019D01*
X0175485Y0188017D02*
X0164485Y0188017D01*
X0164485Y0189016D02*
X0175485Y0189016D01*
X0175485Y0190014D02*
X0164485Y0190014D01*
X0164485Y0192011D02*
X0175485Y0192011D01*
X0175485Y0193010D02*
X0164485Y0193010D01*
X0164485Y0194008D02*
X0175485Y0194008D01*
X0175485Y0195007D02*
X0164485Y0195007D01*
X0164485Y0196005D02*
X0175485Y0196005D01*
X0175485Y0197004D02*
X0164485Y0197004D01*
X0160485Y0191013D02*
X0179484Y0191013D01*
X0184485Y0193010D02*
X0197736Y0193010D01*
X0197736Y0194008D02*
X0184485Y0194008D01*
X0184485Y0195007D02*
X0197736Y0195007D01*
X0197736Y0196005D02*
X0184485Y0196005D01*
X0184485Y0197004D02*
X0197736Y0197004D01*
X0160484Y0190014D02*
X0159485Y0190014D01*
X0159485Y0189016D02*
X0160484Y0189016D01*
X0160484Y0188017D02*
X0159485Y0188017D01*
X0159485Y0187019D02*
X0160484Y0187019D01*
X0160484Y0186020D02*
X0159485Y0186020D01*
X0159485Y0185022D02*
X0160484Y0185022D01*
X0160484Y0184023D02*
X0159485Y0184023D01*
X0159485Y0183025D02*
X0160484Y0183025D01*
X0160484Y0182026D02*
X0159485Y0182026D01*
X0155950Y0182026D02*
X0136302Y0182026D01*
X0136189Y0181913D02*
X0136468Y0182192D01*
X0136666Y0182534D01*
X0136768Y0182916D01*
X0136768Y0190613D01*
X0132768Y0190613D01*
X0132768Y0181613D01*
X0135465Y0181613D01*
X0135847Y0181715D01*
X0136189Y0181913D01*
X0136768Y0183025D02*
X0155485Y0183025D01*
X0155485Y0184023D02*
X0136768Y0184023D01*
X0136768Y0185022D02*
X0155485Y0185022D01*
X0155485Y0186020D02*
X0136768Y0186020D01*
X0136768Y0187019D02*
X0155485Y0187019D01*
X0155485Y0188017D02*
X0136768Y0188017D01*
X0136768Y0189016D02*
X0155485Y0189016D01*
X0155485Y0190014D02*
X0136768Y0190014D01*
X0136768Y0192011D02*
X0155485Y0192011D01*
X0155485Y0193010D02*
X0136768Y0193010D01*
X0136768Y0194008D02*
X0155485Y0194008D01*
X0155485Y0195007D02*
X0136768Y0195007D01*
X0136768Y0196005D02*
X0155485Y0196005D01*
X0155485Y0197004D02*
X0136768Y0197004D01*
X0132768Y0191013D02*
X0159484Y0191013D01*
X0132768Y0190014D02*
X0131768Y0190014D01*
X0131768Y0190613D02*
X0131768Y0181613D01*
X0129070Y0181613D01*
X0128689Y0181715D01*
X0128347Y0181913D01*
X0128068Y0182192D01*
X0127870Y0182534D01*
X0127768Y0182916D01*
X0127768Y0190613D01*
X0131768Y0190613D01*
X0131768Y0191013D02*
X0112768Y0191013D01*
X0112768Y0190613D02*
X0116768Y0190613D01*
X0116768Y0182916D01*
X0116666Y0182534D01*
X0116468Y0182192D01*
X0116189Y0181913D01*
X0115847Y0181715D01*
X0115465Y0181613D01*
X0112768Y0181613D01*
X0112768Y0190613D01*
X0112768Y0190014D02*
X0111768Y0190014D01*
X0111768Y0190613D02*
X0111768Y0181613D01*
X0109070Y0181613D01*
X0108689Y0181715D01*
X0108347Y0181913D01*
X0108068Y0182192D01*
X0107870Y0182534D01*
X0107768Y0182916D01*
X0107768Y0190613D01*
X0111768Y0190613D01*
X0111768Y0191013D02*
X0082571Y0191013D01*
X0082571Y0190810D02*
X0086571Y0190810D01*
X0086571Y0183112D01*
X0086469Y0182731D01*
X0086271Y0182389D01*
X0085992Y0182110D01*
X0085650Y0181912D01*
X0085269Y0181810D01*
X0082571Y0181810D01*
X0082571Y0190810D01*
X0082571Y0190014D02*
X0081571Y0190014D01*
X0081571Y0189016D02*
X0082571Y0189016D01*
X0082571Y0188017D02*
X0081571Y0188017D01*
X0081571Y0187019D02*
X0082571Y0187019D01*
X0082571Y0186020D02*
X0081571Y0186020D01*
X0081571Y0185022D02*
X0082571Y0185022D01*
X0082571Y0184023D02*
X0081571Y0184023D01*
X0081571Y0183025D02*
X0082571Y0183025D01*
X0082571Y0182026D02*
X0081571Y0182026D01*
X0078295Y0182026D02*
X0065848Y0182026D01*
X0065992Y0182110D02*
X0066271Y0182389D01*
X0066469Y0182731D01*
X0066571Y0183112D01*
X0066571Y0190810D01*
X0062571Y0190810D01*
X0062571Y0181810D01*
X0065269Y0181810D01*
X0065650Y0181912D01*
X0065992Y0182110D01*
X0066548Y0183025D02*
X0077595Y0183025D01*
X0077571Y0184023D02*
X0066571Y0184023D01*
X0066571Y0185022D02*
X0077571Y0185022D01*
X0077571Y0186020D02*
X0066571Y0186020D01*
X0066571Y0187019D02*
X0077571Y0187019D01*
X0077571Y0188017D02*
X0066571Y0188017D01*
X0066571Y0189016D02*
X0077571Y0189016D01*
X0077571Y0190014D02*
X0066571Y0190014D01*
X0066571Y0192011D02*
X0077571Y0192011D01*
X0077571Y0193010D02*
X0066571Y0193010D01*
X0066571Y0194008D02*
X0077571Y0194008D01*
X0077571Y0195007D02*
X0066571Y0195007D01*
X0066571Y0196005D02*
X0077571Y0196005D01*
X0077571Y0197004D02*
X0066571Y0197004D01*
X0062571Y0191013D02*
X0081571Y0191013D01*
X0086571Y0192011D02*
X0107768Y0192011D01*
X0107768Y0193010D02*
X0086571Y0193010D01*
X0086571Y0194008D02*
X0107768Y0194008D01*
X0107768Y0195007D02*
X0086571Y0195007D01*
X0086571Y0196005D02*
X0107768Y0196005D01*
X0107768Y0197004D02*
X0086571Y0197004D01*
X0086571Y0190014D02*
X0107768Y0190014D01*
X0107768Y0189016D02*
X0086571Y0189016D01*
X0086571Y0188017D02*
X0107768Y0188017D01*
X0107768Y0187019D02*
X0086571Y0187019D01*
X0086571Y0186020D02*
X0107768Y0186020D01*
X0107768Y0185022D02*
X0086571Y0185022D01*
X0086571Y0184023D02*
X0107768Y0184023D01*
X0107768Y0183025D02*
X0086548Y0183025D01*
X0085848Y0182026D02*
X0108234Y0182026D01*
X0111768Y0182026D02*
X0112768Y0182026D01*
X0112768Y0183025D02*
X0111768Y0183025D01*
X0111768Y0184023D02*
X0112768Y0184023D01*
X0112768Y0185022D02*
X0111768Y0185022D01*
X0111768Y0186020D02*
X0112768Y0186020D01*
X0112768Y0187019D02*
X0111768Y0187019D01*
X0111768Y0188017D02*
X0112768Y0188017D01*
X0112768Y0189016D02*
X0111768Y0189016D01*
X0116768Y0189016D02*
X0127768Y0189016D01*
X0127768Y0190014D02*
X0116768Y0190014D01*
X0116768Y0188017D02*
X0127768Y0188017D01*
X0127768Y0187019D02*
X0116768Y0187019D01*
X0116768Y0186020D02*
X0127768Y0186020D01*
X0127768Y0185022D02*
X0116768Y0185022D01*
X0116768Y0184023D02*
X0127768Y0184023D01*
X0127768Y0183025D02*
X0116768Y0183025D01*
X0116302Y0182026D02*
X0128234Y0182026D01*
X0131768Y0182026D02*
X0132768Y0182026D01*
X0132768Y0183025D02*
X0131768Y0183025D01*
X0131768Y0184023D02*
X0132768Y0184023D01*
X0132768Y0185022D02*
X0131768Y0185022D01*
X0131768Y0186020D02*
X0132768Y0186020D01*
X0132768Y0187019D02*
X0131768Y0187019D01*
X0131768Y0188017D02*
X0132768Y0188017D01*
X0132768Y0189016D02*
X0131768Y0189016D01*
X0127768Y0192011D02*
X0116768Y0192011D01*
X0116768Y0193010D02*
X0127768Y0193010D01*
X0127768Y0194008D02*
X0116768Y0194008D01*
X0116768Y0195007D02*
X0127768Y0195007D01*
X0127768Y0196005D02*
X0116768Y0196005D01*
X0116768Y0197004D02*
X0127768Y0197004D01*
X0135063Y0146389D02*
X0135851Y0145601D01*
X0135851Y0135365D01*
X0134946Y0092160D02*
X0197736Y0092160D01*
X0197736Y0091162D02*
X0133947Y0091162D01*
X0133907Y0090163D02*
X0197736Y0090163D01*
X0197736Y0089165D02*
X0133907Y0089165D01*
X0133907Y0088166D02*
X0197736Y0088166D01*
X0197736Y0087168D02*
X0133907Y0087168D01*
X0133907Y0086169D02*
X0197736Y0086169D01*
X0197736Y0085171D02*
X0133907Y0085171D01*
X0133907Y0084172D02*
X0197736Y0084172D01*
X0197736Y0083174D02*
X0133907Y0083174D01*
X0134884Y0082175D02*
X0197736Y0082175D01*
X0197736Y0081176D02*
X0135882Y0081176D01*
X0136232Y0080178D02*
X0197736Y0080178D01*
X0197736Y0079179D02*
X0136232Y0079179D01*
X0135533Y0078181D02*
X0197736Y0078181D01*
X0197736Y0037242D02*
X0077708Y0037242D01*
X0077708Y0036243D02*
X0197736Y0036243D01*
X0197736Y0035245D02*
X0077708Y0035245D01*
X0077708Y0034246D02*
X0197736Y0034246D01*
X0197736Y0033248D02*
X0077708Y0033248D01*
X0077708Y0032249D02*
X0197736Y0032249D01*
X0197736Y0031251D02*
X0077708Y0031251D01*
X0077708Y0030252D02*
X0197736Y0030252D01*
X0197736Y0029254D02*
X0077708Y0029254D01*
X0077708Y0028255D02*
X0197736Y0028255D01*
X0197736Y0027257D02*
X0077708Y0027257D01*
X0074308Y0027257D02*
X0003886Y0027257D01*
X0003886Y0028255D02*
X0074308Y0028255D01*
X0074308Y0029254D02*
X0003886Y0029254D01*
X0003886Y0030252D02*
X0074308Y0030252D01*
X0074308Y0031251D02*
X0003886Y0031251D01*
X0003886Y0026258D02*
X0074308Y0026258D01*
X0074308Y0025260D02*
X0003886Y0025260D01*
X0003886Y0024261D02*
X0073392Y0024261D01*
X0073264Y0023263D02*
X0003886Y0023263D01*
X0003886Y0022264D02*
X0073264Y0022264D01*
X0074185Y0021266D02*
X0003886Y0021266D01*
X0003886Y0020267D02*
X0090670Y0020267D01*
X0091669Y0019269D02*
X0003886Y0019269D01*
X0003886Y0018270D02*
X0094504Y0018270D01*
X0097670Y0018270D02*
X0104740Y0018270D01*
X0107906Y0018270D02*
X0197736Y0018270D01*
X0197736Y0017272D02*
X0003886Y0017272D01*
X0003886Y0016273D02*
X0197736Y0016273D01*
X0197736Y0015275D02*
X0003886Y0015275D01*
X0003886Y0014276D02*
X0197736Y0014276D01*
X0197736Y0013278D02*
X0003886Y0013278D01*
X0003886Y0012279D02*
X0024379Y0012279D01*
X0022903Y0011281D02*
X0003886Y0011281D01*
X0003886Y0010282D02*
X0022086Y0010282D01*
X0021673Y0009284D02*
X0003886Y0009284D01*
X0003886Y0008285D02*
X0021484Y0008285D01*
X0021484Y0007287D02*
X0003886Y0007287D01*
X0003886Y0006288D02*
X0021745Y0006288D01*
X0022158Y0005290D02*
X0003886Y0005290D01*
X0003886Y0004291D02*
X0023077Y0004291D01*
X0029490Y0004291D02*
X0031763Y0004291D01*
X0031331Y0005290D02*
X0030409Y0005290D01*
X0030823Y0006288D02*
X0031112Y0006288D01*
X0031084Y0007287D02*
X0035784Y0007287D01*
X0035784Y0008285D02*
X0036784Y0008285D01*
X0036784Y0007287D02*
X0041484Y0007287D01*
X0041484Y0008285D02*
X0041292Y0008285D01*
X0041673Y0009284D02*
X0040891Y0009284D01*
X0040228Y0010282D02*
X0042086Y0010282D01*
X0042903Y0011281D02*
X0039064Y0011281D01*
X0036784Y0011281D02*
X0035784Y0011281D01*
X0035784Y0010282D02*
X0036784Y0010282D01*
X0036784Y0009284D02*
X0035784Y0009284D01*
X0033504Y0011281D02*
X0029664Y0011281D01*
X0030481Y0010282D02*
X0032339Y0010282D01*
X0031676Y0009284D02*
X0030895Y0009284D01*
X0031084Y0008285D02*
X0031275Y0008285D01*
X0028189Y0012279D02*
X0044379Y0012279D01*
X0048189Y0012279D02*
X0064379Y0012279D01*
X0062903Y0011281D02*
X0058185Y0011281D01*
X0059663Y0010282D02*
X0062086Y0010282D01*
X0061673Y0009284D02*
X0060481Y0009284D01*
X0060894Y0008285D02*
X0061484Y0008285D01*
X0061484Y0007287D02*
X0061084Y0007287D01*
X0061084Y0006288D02*
X0061745Y0006288D01*
X0062158Y0005290D02*
X0060823Y0005290D01*
X0060410Y0004291D02*
X0063077Y0004291D01*
X0069490Y0004291D02*
X0072158Y0004291D01*
X0071744Y0005290D02*
X0070409Y0005290D01*
X0070823Y0006288D02*
X0071484Y0006288D01*
X0071484Y0007287D02*
X0071084Y0007287D01*
X0071084Y0008285D02*
X0071673Y0008285D01*
X0072087Y0009284D02*
X0070895Y0009284D01*
X0070481Y0010282D02*
X0072905Y0010282D01*
X0074382Y0011281D02*
X0069664Y0011281D01*
X0068189Y0012279D02*
X0084379Y0012279D01*
X0082903Y0011281D02*
X0078185Y0011281D01*
X0079663Y0010282D02*
X0082086Y0010282D01*
X0081673Y0009284D02*
X0080481Y0009284D01*
X0080894Y0008285D02*
X0081484Y0008285D01*
X0081484Y0007287D02*
X0081084Y0007287D01*
X0081084Y0006288D02*
X0081745Y0006288D01*
X0082158Y0005290D02*
X0080823Y0005290D01*
X0080410Y0004291D02*
X0083077Y0004291D01*
X0089490Y0004291D02*
X0091484Y0004291D01*
X0091484Y0005290D02*
X0090409Y0005290D01*
X0090823Y0006288D02*
X0091484Y0006288D01*
X0091484Y0007287D02*
X0091084Y0007287D01*
X0091084Y0008285D02*
X0091484Y0008285D01*
X0091484Y0009284D02*
X0090895Y0009284D01*
X0090481Y0010282D02*
X0091484Y0010282D01*
X0091736Y0011281D02*
X0089664Y0011281D01*
X0088189Y0012279D02*
X0197736Y0012279D01*
X0197736Y0011281D02*
X0100831Y0011281D01*
X0101084Y0010282D02*
X0197736Y0010282D01*
X0197736Y0009284D02*
X0101084Y0009284D01*
X0101084Y0008285D02*
X0197736Y0008285D01*
X0197736Y0007287D02*
X0101084Y0007287D01*
X0101084Y0006288D02*
X0197736Y0006288D01*
X0197736Y0005290D02*
X0101084Y0005290D01*
X0101084Y0004291D02*
X0197736Y0004291D01*
X0197736Y0019269D02*
X0108673Y0019269D01*
X0108673Y0020267D02*
X0197736Y0020267D01*
X0197736Y0021266D02*
X0108391Y0021266D01*
X0107393Y0022264D02*
X0197736Y0022264D01*
X0197736Y0023263D02*
X0092483Y0023263D01*
X0091484Y0024261D02*
X0197736Y0024261D01*
X0197736Y0025260D02*
X0090486Y0025260D01*
X0089487Y0026258D02*
X0197736Y0026258D01*
X0133882Y0079853D02*
X0132307Y0081428D01*
X0105253Y0022264D02*
X0097157Y0022264D01*
X0095017Y0022264D02*
X0093481Y0022264D01*
X0089672Y0021266D02*
X0077043Y0021266D01*
X0077964Y0022264D02*
X0088673Y0022264D01*
X0087675Y0023263D02*
X0078121Y0023263D01*
X0074308Y0032249D02*
X0074248Y0032249D01*
X0054382Y0011281D02*
X0049664Y0011281D01*
X0050481Y0010282D02*
X0052905Y0010282D01*
X0052087Y0009284D02*
X0050895Y0009284D01*
X0051084Y0008285D02*
X0051673Y0008285D01*
X0051484Y0007287D02*
X0051084Y0007287D01*
X0050823Y0006288D02*
X0051484Y0006288D01*
X0051744Y0005290D02*
X0050409Y0005290D01*
X0049490Y0004291D02*
X0052158Y0004291D01*
X0043077Y0004291D02*
X0040804Y0004291D01*
X0041237Y0005290D02*
X0042158Y0005290D01*
X0041745Y0006288D02*
X0041456Y0006288D01*
X0032287Y0182026D02*
X0058295Y0182026D01*
X0057595Y0183025D02*
X0032673Y0183025D01*
X0032673Y0184023D02*
X0057571Y0184023D01*
X0057571Y0185022D02*
X0032673Y0185022D01*
X0032673Y0186020D02*
X0057571Y0186020D01*
X0057571Y0187019D02*
X0032673Y0187019D01*
X0032673Y0188017D02*
X0057571Y0188017D01*
X0057571Y0189016D02*
X0032673Y0189016D01*
X0032673Y0190014D02*
X0057571Y0190014D01*
X0057571Y0192011D02*
X0032673Y0192011D01*
X0032673Y0193010D02*
X0057571Y0193010D01*
X0057571Y0194008D02*
X0032673Y0194008D01*
X0032673Y0195007D02*
X0057571Y0195007D01*
X0057571Y0196005D02*
X0032673Y0196005D01*
X0032673Y0197004D02*
X0057571Y0197004D01*
X0061571Y0191013D02*
X0028674Y0191013D01*
X0028673Y0190014D02*
X0027674Y0190014D01*
X0027674Y0189016D02*
X0028673Y0189016D01*
X0028673Y0188017D02*
X0027674Y0188017D01*
X0027674Y0187019D02*
X0028673Y0187019D01*
X0028673Y0186020D02*
X0027674Y0186020D01*
X0027674Y0185022D02*
X0028673Y0185022D01*
X0028673Y0184023D02*
X0027674Y0184023D01*
X0027674Y0183025D02*
X0028673Y0183025D01*
X0028673Y0182026D02*
X0027674Y0182026D01*
X0024060Y0182026D02*
X0012287Y0182026D01*
X0012673Y0183025D02*
X0023673Y0183025D01*
X0023673Y0184023D02*
X0012673Y0184023D01*
X0012673Y0185022D02*
X0023673Y0185022D01*
X0023673Y0186020D02*
X0012673Y0186020D01*
X0012673Y0187019D02*
X0023673Y0187019D01*
X0023673Y0188017D02*
X0012673Y0188017D01*
X0012673Y0189016D02*
X0023673Y0189016D01*
X0023673Y0190014D02*
X0012673Y0190014D01*
X0012673Y0192011D02*
X0023673Y0192011D01*
X0023673Y0193010D02*
X0012673Y0193010D01*
X0012673Y0194008D02*
X0023673Y0194008D01*
X0023673Y0195007D02*
X0012673Y0195007D01*
X0012673Y0196005D02*
X0023673Y0196005D01*
X0023673Y0197004D02*
X0012673Y0197004D01*
X0008674Y0191013D02*
X0027673Y0191013D01*
X0008673Y0190014D02*
X0007674Y0190014D01*
X0007674Y0189016D02*
X0008673Y0189016D01*
X0008673Y0188017D02*
X0007674Y0188017D01*
X0007674Y0187019D02*
X0008673Y0187019D01*
X0008673Y0186020D02*
X0007674Y0186020D01*
X0007674Y0185022D02*
X0008673Y0185022D01*
X0008673Y0184023D02*
X0007674Y0184023D01*
X0007674Y0183025D02*
X0008673Y0183025D01*
X0008673Y0182026D02*
X0007674Y0182026D01*
X0004060Y0182026D02*
X0003886Y0182026D01*
X0061571Y0182026D02*
X0062571Y0182026D01*
X0062571Y0183025D02*
X0061571Y0183025D01*
X0061571Y0184023D02*
X0062571Y0184023D01*
X0062571Y0185022D02*
X0061571Y0185022D01*
X0061571Y0186020D02*
X0062571Y0186020D01*
X0062571Y0187019D02*
X0061571Y0187019D01*
X0061571Y0188017D02*
X0062571Y0188017D01*
X0062571Y0189016D02*
X0061571Y0189016D01*
X0061571Y0190014D02*
X0062571Y0190014D01*
D16*
X0116166Y0124341D02*
X0129551Y0110956D01*
X0129551Y0081822D01*
D17*
X0099236Y0107412D02*
X0116166Y0124341D01*
X0099236Y0107412D02*
X0066559Y0107412D01*
X0051992Y0092845D01*
X0051992Y0081822D01*
D18*
X0076008Y0091270D02*
X0076008Y0023554D01*
X0075614Y0023160D01*
X0076008Y0023554D02*
X0077583Y0025129D01*
X0088213Y0025129D01*
X0093331Y0020011D01*
X0096087Y0020011D01*
X0106323Y0020011D01*
X0132307Y0040877D02*
X0132307Y0051900D01*
X0081126Y0094026D02*
X0078764Y0094026D01*
X0076008Y0091270D01*
M02*
