G75*
%MOIN*%
%OFA0B0*%
%FSLAX25Y25*%
%IPPOS*%
%LPD*%
%AMOC8*
5,1,8,0,0,1.08239X$1,22.5*
%
%ADD10C,0.00000*%
%ADD11C,0.01250*%
%ADD12C,0.01000*%
%ADD13R,0.00984X0.03937*%
%ADD14R,0.03937X0.00984*%
%ADD15R,0.12795X0.12795*%
%ADD16C,0.03000*%
%ADD17C,0.00220*%
%ADD18R,0.07480X0.04331*%
%ADD19R,0.04724X0.02717*%
%ADD20C,0.00875*%
D10*
X0002386Y0002294D02*
X0002386Y0199144D01*
X0199236Y0199144D01*
X0199236Y0002294D01*
X0002386Y0002294D01*
D11*
X0019478Y0022360D02*
X0019478Y0023610D01*
X0020728Y0023610D01*
X0020728Y0022360D01*
X0019478Y0022360D01*
X0019478Y0023609D02*
X0020728Y0023609D01*
X0019478Y0025860D02*
X0019478Y0027110D01*
X0020728Y0027110D01*
X0020728Y0025860D01*
X0019478Y0025860D01*
X0019478Y0027109D02*
X0020728Y0027109D01*
X0024696Y0033992D02*
X0024696Y0035242D01*
X0025946Y0035242D01*
X0025946Y0033992D01*
X0024696Y0033992D01*
X0024696Y0035241D02*
X0025946Y0035241D01*
X0028196Y0035242D02*
X0028196Y0033992D01*
X0028196Y0035242D02*
X0029446Y0035242D01*
X0029446Y0033992D01*
X0028196Y0033992D01*
X0028196Y0035241D02*
X0029446Y0035241D01*
X0028157Y0038323D02*
X0028157Y0039573D01*
X0029407Y0039573D01*
X0029407Y0038323D01*
X0028157Y0038323D01*
X0028157Y0039572D02*
X0029407Y0039572D01*
X0028117Y0043047D02*
X0028117Y0044297D01*
X0029367Y0044297D01*
X0029367Y0043047D01*
X0028117Y0043047D01*
X0028117Y0044296D02*
X0029367Y0044296D01*
X0028078Y0047771D02*
X0028078Y0049021D01*
X0029328Y0049021D01*
X0029328Y0047771D01*
X0028078Y0047771D01*
X0028078Y0049020D02*
X0029328Y0049020D01*
X0028039Y0052496D02*
X0028039Y0053746D01*
X0029289Y0053746D01*
X0029289Y0052496D01*
X0028039Y0052496D01*
X0028039Y0053745D02*
X0029289Y0053745D01*
X0024539Y0053746D02*
X0024539Y0052496D01*
X0024539Y0053746D02*
X0025789Y0053746D01*
X0025789Y0052496D01*
X0024539Y0052496D01*
X0024539Y0053745D02*
X0025789Y0053745D01*
X0024578Y0049021D02*
X0024578Y0047771D01*
X0024578Y0049021D02*
X0025828Y0049021D01*
X0025828Y0047771D01*
X0024578Y0047771D01*
X0024578Y0049020D02*
X0025828Y0049020D01*
X0024617Y0044297D02*
X0024617Y0043047D01*
X0024617Y0044297D02*
X0025867Y0044297D01*
X0025867Y0043047D01*
X0024617Y0043047D01*
X0024617Y0044296D02*
X0025867Y0044296D01*
X0024657Y0039573D02*
X0024657Y0038323D01*
X0024657Y0039573D02*
X0025907Y0039573D01*
X0025907Y0038323D01*
X0024657Y0038323D01*
X0024657Y0039572D02*
X0025907Y0039572D01*
X0033318Y0039455D02*
X0034568Y0039455D01*
X0034568Y0038205D01*
X0033318Y0038205D01*
X0033318Y0039455D01*
X0033318Y0039454D02*
X0034568Y0039454D01*
X0036818Y0039455D02*
X0038068Y0039455D01*
X0038068Y0038205D01*
X0036818Y0038205D01*
X0036818Y0039455D01*
X0036818Y0039454D02*
X0038068Y0039454D01*
X0038029Y0044179D02*
X0036779Y0044179D01*
X0038029Y0044179D02*
X0038029Y0042929D01*
X0036779Y0042929D01*
X0036779Y0044179D01*
X0036779Y0044178D02*
X0038029Y0044178D01*
X0037989Y0048903D02*
X0036739Y0048903D01*
X0037989Y0048903D02*
X0037989Y0047653D01*
X0036739Y0047653D01*
X0036739Y0048903D01*
X0036739Y0048902D02*
X0037989Y0048902D01*
X0038344Y0053628D02*
X0037094Y0053628D01*
X0038344Y0053628D02*
X0038344Y0052378D01*
X0037094Y0052378D01*
X0037094Y0053628D01*
X0037094Y0053627D02*
X0038344Y0053627D01*
X0034844Y0053628D02*
X0033594Y0053628D01*
X0034844Y0053628D02*
X0034844Y0052378D01*
X0033594Y0052378D01*
X0033594Y0053628D01*
X0033594Y0053627D02*
X0034844Y0053627D01*
X0034489Y0048903D02*
X0033239Y0048903D01*
X0034489Y0048903D02*
X0034489Y0047653D01*
X0033239Y0047653D01*
X0033239Y0048903D01*
X0033239Y0048902D02*
X0034489Y0048902D01*
X0034529Y0044179D02*
X0033279Y0044179D01*
X0034529Y0044179D02*
X0034529Y0042929D01*
X0033279Y0042929D01*
X0033279Y0044179D01*
X0033279Y0044178D02*
X0034529Y0044178D01*
X0034608Y0035124D02*
X0033358Y0035124D01*
X0034608Y0035124D02*
X0034608Y0033874D01*
X0033358Y0033874D01*
X0033358Y0035124D01*
X0033358Y0035123D02*
X0034608Y0035123D01*
X0036858Y0035124D02*
X0038108Y0035124D01*
X0038108Y0033874D01*
X0036858Y0033874D01*
X0036858Y0035124D01*
X0036858Y0035123D02*
X0038108Y0035123D01*
X0043493Y0023567D02*
X0043493Y0022317D01*
X0043493Y0023567D02*
X0044743Y0023567D01*
X0044743Y0022317D01*
X0043493Y0022317D01*
X0043493Y0023566D02*
X0044743Y0023566D01*
X0043493Y0020067D02*
X0043493Y0018817D01*
X0043493Y0020067D02*
X0044743Y0020067D01*
X0044743Y0018817D01*
X0043493Y0018817D01*
X0043493Y0020066D02*
X0044743Y0020066D01*
X0069547Y0044801D02*
X0069547Y0046051D01*
X0069547Y0044801D02*
X0068297Y0044801D01*
X0068297Y0046051D01*
X0069547Y0046051D01*
X0069547Y0046050D02*
X0068297Y0046050D01*
X0069547Y0048301D02*
X0069547Y0049551D01*
X0069547Y0048301D02*
X0068297Y0048301D01*
X0068297Y0049551D01*
X0069547Y0049551D01*
X0069547Y0049550D02*
X0068297Y0049550D01*
X0075019Y0063384D02*
X0075019Y0064634D01*
X0075019Y0063384D02*
X0073769Y0063384D01*
X0073769Y0064634D01*
X0075019Y0064634D01*
X0075019Y0064633D02*
X0073769Y0064633D01*
X0075019Y0066884D02*
X0075019Y0068134D01*
X0075019Y0066884D02*
X0073769Y0066884D01*
X0073769Y0068134D01*
X0075019Y0068134D01*
X0075019Y0068133D02*
X0073769Y0068133D01*
X0076783Y0077732D02*
X0078033Y0077732D01*
X0076783Y0077732D02*
X0076783Y0078982D01*
X0078033Y0078982D01*
X0078033Y0077732D01*
X0078033Y0078981D02*
X0076783Y0078981D01*
X0076822Y0082063D02*
X0078072Y0082063D01*
X0076822Y0082063D02*
X0076822Y0083313D01*
X0078072Y0083313D01*
X0078072Y0082063D01*
X0078072Y0083312D02*
X0076822Y0083312D01*
X0080322Y0082063D02*
X0081572Y0082063D01*
X0080322Y0082063D02*
X0080322Y0083313D01*
X0081572Y0083313D01*
X0081572Y0082063D01*
X0081572Y0083312D02*
X0080322Y0083312D01*
X0080283Y0077732D02*
X0081533Y0077732D01*
X0080283Y0077732D02*
X0080283Y0078982D01*
X0081533Y0078982D01*
X0081533Y0077732D01*
X0081533Y0078981D02*
X0080283Y0078981D01*
X0094106Y0084740D02*
X0095356Y0084740D01*
X0094106Y0084740D02*
X0094106Y0085990D01*
X0095356Y0085990D01*
X0095356Y0084740D01*
X0095356Y0085989D02*
X0094106Y0085989D01*
X0097606Y0084740D02*
X0098856Y0084740D01*
X0097606Y0084740D02*
X0097606Y0085990D01*
X0098856Y0085990D01*
X0098856Y0084740D01*
X0098856Y0085989D02*
X0097606Y0085989D01*
X0102775Y0084949D02*
X0102775Y0083699D01*
X0101525Y0083699D01*
X0101525Y0084949D01*
X0102775Y0084949D01*
X0102775Y0084948D02*
X0101525Y0084948D01*
X0102775Y0087199D02*
X0102775Y0088449D01*
X0102775Y0087199D02*
X0101525Y0087199D01*
X0101525Y0088449D01*
X0102775Y0088449D01*
X0102775Y0088448D02*
X0101525Y0088448D01*
X0105383Y0088449D02*
X0105383Y0087199D01*
X0105383Y0088449D02*
X0106633Y0088449D01*
X0106633Y0087199D01*
X0105383Y0087199D01*
X0105383Y0088448D02*
X0106633Y0088448D01*
X0109320Y0088409D02*
X0109320Y0087159D01*
X0109320Y0088409D02*
X0110570Y0088409D01*
X0110570Y0087159D01*
X0109320Y0087159D01*
X0109320Y0088408D02*
X0110570Y0088408D01*
X0109320Y0084909D02*
X0109320Y0083659D01*
X0109320Y0084909D02*
X0110570Y0084909D01*
X0110570Y0083659D01*
X0109320Y0083659D01*
X0109320Y0084908D02*
X0110570Y0084908D01*
X0105383Y0084949D02*
X0105383Y0083699D01*
X0105383Y0084949D02*
X0106633Y0084949D01*
X0106633Y0083699D01*
X0105383Y0083699D01*
X0105383Y0084948D02*
X0106633Y0084948D01*
X0116192Y0077250D02*
X0117442Y0077250D01*
X0117442Y0076000D01*
X0116192Y0076000D01*
X0116192Y0077250D01*
X0116192Y0077249D02*
X0117442Y0077249D01*
X0119692Y0077250D02*
X0120942Y0077250D01*
X0120942Y0076000D01*
X0119692Y0076000D01*
X0119692Y0077250D01*
X0119692Y0077249D02*
X0120942Y0077249D01*
X0125058Y0068685D02*
X0125058Y0067435D01*
X0123808Y0067435D01*
X0123808Y0068685D01*
X0125058Y0068685D01*
X0125058Y0068684D02*
X0123808Y0068684D01*
X0125058Y0065185D02*
X0125058Y0063935D01*
X0123808Y0063935D01*
X0123808Y0065185D01*
X0125058Y0065185D01*
X0125058Y0065184D02*
X0123808Y0065184D01*
X0138594Y0064268D02*
X0139844Y0064268D01*
X0138594Y0064268D02*
X0138594Y0065518D01*
X0139844Y0065518D01*
X0139844Y0064268D01*
X0139844Y0065517D02*
X0138594Y0065517D01*
X0138673Y0068441D02*
X0139923Y0068441D01*
X0138673Y0068441D02*
X0138673Y0069691D01*
X0139923Y0069691D01*
X0139923Y0068441D01*
X0139923Y0069690D02*
X0138673Y0069690D01*
X0142173Y0068441D02*
X0143423Y0068441D01*
X0142173Y0068441D02*
X0142173Y0069691D01*
X0143423Y0069691D01*
X0143423Y0068441D01*
X0143423Y0069690D02*
X0142173Y0069690D01*
X0142094Y0064268D02*
X0143344Y0064268D01*
X0142094Y0064268D02*
X0142094Y0065518D01*
X0143344Y0065518D01*
X0143344Y0064268D01*
X0143344Y0065517D02*
X0142094Y0065517D01*
X0142094Y0059937D02*
X0143344Y0059937D01*
X0142094Y0059937D02*
X0142094Y0061187D01*
X0143344Y0061187D01*
X0143344Y0059937D01*
X0143344Y0061186D02*
X0142094Y0061186D01*
X0139844Y0059937D02*
X0138594Y0059937D01*
X0138594Y0061187D01*
X0139844Y0061187D01*
X0139844Y0059937D01*
X0139844Y0061186D02*
X0138594Y0061186D01*
X0138623Y0051708D02*
X0137373Y0051708D01*
X0137373Y0052958D01*
X0138623Y0052958D01*
X0138623Y0051708D01*
X0138623Y0052957D02*
X0137373Y0052957D01*
X0140873Y0051708D02*
X0142123Y0051708D01*
X0140873Y0051708D02*
X0140873Y0052958D01*
X0142123Y0052958D01*
X0142123Y0051708D01*
X0142123Y0052957D02*
X0140873Y0052957D01*
X0118297Y0027504D02*
X0118297Y0026254D01*
X0118297Y0027504D02*
X0119547Y0027504D01*
X0119547Y0026254D01*
X0118297Y0026254D01*
X0118297Y0027503D02*
X0119547Y0027503D01*
X0118297Y0024004D02*
X0118297Y0022754D01*
X0118297Y0024004D02*
X0119547Y0024004D01*
X0119547Y0022754D01*
X0118297Y0022754D01*
X0118297Y0024003D02*
X0119547Y0024003D01*
X0114202Y0024004D02*
X0114202Y0022754D01*
X0114202Y0024004D02*
X0115452Y0024004D01*
X0115452Y0022754D01*
X0114202Y0022754D01*
X0114202Y0024003D02*
X0115452Y0024003D01*
X0114202Y0026254D02*
X0114202Y0027504D01*
X0115452Y0027504D01*
X0115452Y0026254D01*
X0114202Y0026254D01*
X0114202Y0027503D02*
X0115452Y0027503D01*
X0110265Y0027464D02*
X0110265Y0026214D01*
X0110265Y0027464D02*
X0111515Y0027464D01*
X0111515Y0026214D01*
X0110265Y0026214D01*
X0110265Y0027463D02*
X0111515Y0027463D01*
X0110265Y0023964D02*
X0110265Y0022714D01*
X0110265Y0023964D02*
X0111515Y0023964D01*
X0111515Y0022714D01*
X0110265Y0022714D01*
X0110265Y0023963D02*
X0111515Y0023963D01*
X0107123Y0028077D02*
X0105873Y0028077D01*
X0107123Y0028077D02*
X0107123Y0026827D01*
X0105873Y0026827D01*
X0105873Y0028077D01*
X0105873Y0028076D02*
X0107123Y0028076D01*
X0103623Y0028077D02*
X0102373Y0028077D01*
X0103623Y0028077D02*
X0103623Y0026827D01*
X0102373Y0026827D01*
X0102373Y0028077D01*
X0102373Y0028076D02*
X0103623Y0028076D01*
X0098029Y0028077D02*
X0096779Y0028077D01*
X0098029Y0028077D02*
X0098029Y0026827D01*
X0096779Y0026827D01*
X0096779Y0028077D01*
X0096779Y0028076D02*
X0098029Y0028076D01*
X0094529Y0028077D02*
X0093279Y0028077D01*
X0094529Y0028077D02*
X0094529Y0026827D01*
X0093279Y0026827D01*
X0093279Y0028077D01*
X0093279Y0028076D02*
X0094529Y0028076D01*
X0090728Y0026244D02*
X0090728Y0024994D01*
X0089478Y0024994D01*
X0089478Y0026244D01*
X0090728Y0026244D01*
X0090728Y0026243D02*
X0089478Y0026243D01*
X0090728Y0022744D02*
X0090728Y0021494D01*
X0089478Y0021494D01*
X0089478Y0022744D01*
X0090728Y0022744D01*
X0090728Y0022743D02*
X0089478Y0022743D01*
X0092491Y0014504D02*
X0093741Y0014504D01*
X0092491Y0014504D02*
X0092491Y0015754D01*
X0093741Y0015754D01*
X0093741Y0014504D01*
X0093741Y0015753D02*
X0092491Y0015753D01*
X0095991Y0014504D02*
X0097241Y0014504D01*
X0095991Y0014504D02*
X0095991Y0015754D01*
X0097241Y0015754D01*
X0097241Y0014504D01*
X0097241Y0015753D02*
X0095991Y0015753D01*
X0046021Y0068441D02*
X0044771Y0068441D01*
X0044771Y0069691D01*
X0046021Y0069691D01*
X0046021Y0068441D01*
X0046021Y0069690D02*
X0044771Y0069690D01*
X0042521Y0068441D02*
X0041271Y0068441D01*
X0041271Y0069691D01*
X0042521Y0069691D01*
X0042521Y0068441D01*
X0042521Y0069690D02*
X0041271Y0069690D01*
X0014879Y0054661D02*
X0013629Y0054661D01*
X0013629Y0055911D01*
X0014879Y0055911D01*
X0014879Y0054661D01*
X0014879Y0055910D02*
X0013629Y0055910D01*
X0011379Y0054661D02*
X0010129Y0054661D01*
X0010129Y0055911D01*
X0011379Y0055911D01*
X0011379Y0054661D01*
X0011379Y0055910D02*
X0010129Y0055910D01*
X0011879Y0064683D02*
X0011879Y0065933D01*
X0013129Y0065933D01*
X0013129Y0064683D01*
X0011879Y0064683D01*
X0011879Y0065932D02*
X0013129Y0065932D01*
X0011879Y0068183D02*
X0011879Y0069433D01*
X0013129Y0069433D01*
X0013129Y0068183D01*
X0011879Y0068183D01*
X0011879Y0069432D02*
X0013129Y0069432D01*
X0011840Y0072911D02*
X0011840Y0074161D01*
X0013090Y0074161D01*
X0013090Y0072911D01*
X0011840Y0072911D01*
X0011840Y0074160D02*
X0013090Y0074160D01*
X0011840Y0076411D02*
X0011840Y0077661D01*
X0013090Y0077661D01*
X0013090Y0076411D01*
X0011840Y0076411D01*
X0011840Y0077660D02*
X0013090Y0077660D01*
X0047037Y0108777D02*
X0047037Y0110027D01*
X0048287Y0110027D01*
X0048287Y0108777D01*
X0047037Y0108777D01*
X0047037Y0110026D02*
X0048287Y0110026D01*
X0047037Y0112277D02*
X0047037Y0113527D01*
X0048287Y0113527D01*
X0048287Y0112277D01*
X0047037Y0112277D01*
X0047037Y0113526D02*
X0048287Y0113526D01*
X0050580Y0113488D02*
X0050580Y0112238D01*
X0050580Y0113488D02*
X0051830Y0113488D01*
X0051830Y0112238D01*
X0050580Y0112238D01*
X0050580Y0113487D02*
X0051830Y0113487D01*
X0050580Y0109988D02*
X0050580Y0108738D01*
X0050580Y0109988D02*
X0051830Y0109988D01*
X0051830Y0108738D01*
X0050580Y0108738D01*
X0050580Y0109987D02*
X0051830Y0109987D01*
X0056673Y0109988D02*
X0056673Y0108738D01*
X0055423Y0108738D01*
X0055423Y0109988D01*
X0056673Y0109988D01*
X0056673Y0109987D02*
X0055423Y0109987D01*
X0056673Y0112238D02*
X0056673Y0113488D01*
X0056673Y0112238D02*
X0055423Y0112238D01*
X0055423Y0113488D01*
X0056673Y0113488D01*
X0056673Y0113487D02*
X0055423Y0113487D01*
X0062491Y0116630D02*
X0063741Y0116630D01*
X0062491Y0116630D02*
X0062491Y0117880D01*
X0063741Y0117880D01*
X0063741Y0116630D01*
X0063741Y0117879D02*
X0062491Y0117879D01*
X0062531Y0120173D02*
X0063781Y0120173D01*
X0062531Y0120173D02*
X0062531Y0121423D01*
X0063781Y0121423D01*
X0063781Y0120173D01*
X0063781Y0121422D02*
X0062531Y0121422D01*
X0062570Y0123716D02*
X0063820Y0123716D01*
X0062570Y0123716D02*
X0062570Y0124966D01*
X0063820Y0124966D01*
X0063820Y0123716D01*
X0063820Y0124965D02*
X0062570Y0124965D01*
X0062610Y0127260D02*
X0063860Y0127260D01*
X0062610Y0127260D02*
X0062610Y0128510D01*
X0063860Y0128510D01*
X0063860Y0127260D01*
X0063860Y0128509D02*
X0062610Y0128509D01*
X0062255Y0131590D02*
X0063505Y0131590D01*
X0062255Y0131590D02*
X0062255Y0132840D01*
X0063505Y0132840D01*
X0063505Y0131590D01*
X0063505Y0132839D02*
X0062255Y0132839D01*
X0062295Y0135921D02*
X0063545Y0135921D01*
X0062295Y0135921D02*
X0062295Y0137171D01*
X0063545Y0137171D01*
X0063545Y0135921D01*
X0063545Y0137170D02*
X0062295Y0137170D01*
X0062334Y0140252D02*
X0063584Y0140252D01*
X0062334Y0140252D02*
X0062334Y0141502D01*
X0063584Y0141502D01*
X0063584Y0140252D01*
X0063584Y0141501D02*
X0062334Y0141501D01*
X0062334Y0144819D02*
X0063584Y0144819D01*
X0062334Y0144819D02*
X0062334Y0146069D01*
X0063584Y0146069D01*
X0063584Y0144819D01*
X0063584Y0146068D02*
X0062334Y0146068D01*
X0065834Y0144819D02*
X0067084Y0144819D01*
X0065834Y0144819D02*
X0065834Y0146069D01*
X0067084Y0146069D01*
X0067084Y0144819D01*
X0067084Y0146068D02*
X0065834Y0146068D01*
X0065834Y0140252D02*
X0067084Y0140252D01*
X0065834Y0140252D02*
X0065834Y0141502D01*
X0067084Y0141502D01*
X0067084Y0140252D01*
X0067084Y0141501D02*
X0065834Y0141501D01*
X0065795Y0135921D02*
X0067045Y0135921D01*
X0065795Y0135921D02*
X0065795Y0137171D01*
X0067045Y0137171D01*
X0067045Y0135921D01*
X0067045Y0137170D02*
X0065795Y0137170D01*
X0065755Y0131590D02*
X0067005Y0131590D01*
X0065755Y0131590D02*
X0065755Y0132840D01*
X0067005Y0132840D01*
X0067005Y0131590D01*
X0067005Y0132839D02*
X0065755Y0132839D01*
X0071340Y0132722D02*
X0071340Y0131472D01*
X0070090Y0131472D01*
X0070090Y0132722D01*
X0071340Y0132722D01*
X0071340Y0132721D02*
X0070090Y0132721D01*
X0071379Y0135803D02*
X0071379Y0137053D01*
X0071379Y0135803D02*
X0070129Y0135803D01*
X0070129Y0137053D01*
X0071379Y0137053D01*
X0071379Y0137052D02*
X0070129Y0137052D01*
X0071419Y0140134D02*
X0071419Y0141384D01*
X0071419Y0140134D02*
X0070169Y0140134D01*
X0070169Y0141384D01*
X0071419Y0141384D01*
X0071419Y0141383D02*
X0070169Y0141383D01*
X0071458Y0144858D02*
X0071458Y0146108D01*
X0071458Y0144858D02*
X0070208Y0144858D01*
X0070208Y0146108D01*
X0071458Y0146108D01*
X0071458Y0146107D02*
X0070208Y0146107D01*
X0074958Y0146108D02*
X0074958Y0144858D01*
X0073708Y0144858D01*
X0073708Y0146108D01*
X0074958Y0146108D01*
X0074958Y0146107D02*
X0073708Y0146107D01*
X0074919Y0141384D02*
X0074919Y0140134D01*
X0073669Y0140134D01*
X0073669Y0141384D01*
X0074919Y0141384D01*
X0074919Y0141383D02*
X0073669Y0141383D01*
X0074879Y0137053D02*
X0074879Y0135803D01*
X0073629Y0135803D01*
X0073629Y0137053D01*
X0074879Y0137053D01*
X0074879Y0137052D02*
X0073629Y0137052D01*
X0074840Y0132722D02*
X0074840Y0131472D01*
X0073590Y0131472D01*
X0073590Y0132722D01*
X0074840Y0132722D01*
X0074840Y0132721D02*
X0073590Y0132721D01*
X0067360Y0127260D02*
X0066110Y0127260D01*
X0066110Y0128510D01*
X0067360Y0128510D01*
X0067360Y0127260D01*
X0067360Y0128509D02*
X0066110Y0128509D01*
X0066070Y0123716D02*
X0067320Y0123716D01*
X0066070Y0123716D02*
X0066070Y0124966D01*
X0067320Y0124966D01*
X0067320Y0123716D01*
X0067320Y0124965D02*
X0066070Y0124965D01*
X0066031Y0120173D02*
X0067281Y0120173D01*
X0066031Y0120173D02*
X0066031Y0121423D01*
X0067281Y0121423D01*
X0067281Y0120173D01*
X0067281Y0121422D02*
X0066031Y0121422D01*
X0065991Y0116630D02*
X0067241Y0116630D01*
X0065991Y0116630D02*
X0065991Y0117880D01*
X0067241Y0117880D01*
X0067241Y0116630D01*
X0067241Y0117879D02*
X0065991Y0117879D01*
X0086249Y0117504D02*
X0086249Y0116254D01*
X0086249Y0117504D02*
X0087499Y0117504D01*
X0087499Y0116254D01*
X0086249Y0116254D01*
X0086249Y0117503D02*
X0087499Y0117503D01*
X0086249Y0114004D02*
X0086249Y0112754D01*
X0086249Y0114004D02*
X0087499Y0114004D01*
X0087499Y0112754D01*
X0086249Y0112754D01*
X0086249Y0114003D02*
X0087499Y0114003D01*
X0086249Y0108409D02*
X0086249Y0107159D01*
X0086249Y0108409D02*
X0087499Y0108409D01*
X0087499Y0107159D01*
X0086249Y0107159D01*
X0086249Y0108408D02*
X0087499Y0108408D01*
X0086249Y0104909D02*
X0086249Y0103659D01*
X0086249Y0104909D02*
X0087499Y0104909D01*
X0087499Y0103659D01*
X0086249Y0103659D01*
X0086249Y0104908D02*
X0087499Y0104908D01*
X0093003Y0118913D02*
X0094253Y0118913D01*
X0093003Y0118913D02*
X0093003Y0120163D01*
X0094253Y0120163D01*
X0094253Y0118913D01*
X0094253Y0120162D02*
X0093003Y0120162D01*
X0096503Y0118913D02*
X0097753Y0118913D01*
X0096503Y0118913D02*
X0096503Y0120163D01*
X0097753Y0120163D01*
X0097753Y0118913D01*
X0097753Y0120162D02*
X0096503Y0120162D01*
X0125995Y0122250D02*
X0127245Y0122250D01*
X0127245Y0121000D01*
X0125995Y0121000D01*
X0125995Y0122250D01*
X0125995Y0122249D02*
X0127245Y0122249D01*
X0129495Y0122250D02*
X0130745Y0122250D01*
X0130745Y0121000D01*
X0129495Y0121000D01*
X0129495Y0122250D01*
X0129495Y0122249D02*
X0130745Y0122249D01*
X0130745Y0126581D02*
X0129495Y0126581D01*
X0130745Y0126581D02*
X0130745Y0125331D01*
X0129495Y0125331D01*
X0129495Y0126581D01*
X0129495Y0126580D02*
X0130745Y0126580D01*
X0130745Y0130911D02*
X0129495Y0130911D01*
X0130745Y0130911D02*
X0130745Y0129661D01*
X0129495Y0129661D01*
X0129495Y0130911D01*
X0129495Y0130910D02*
X0130745Y0130910D01*
X0130745Y0133913D02*
X0129495Y0133913D01*
X0129495Y0135163D01*
X0130745Y0135163D01*
X0130745Y0133913D01*
X0130745Y0135162D02*
X0129495Y0135162D01*
X0127245Y0133913D02*
X0125995Y0133913D01*
X0125995Y0135163D01*
X0127245Y0135163D01*
X0127245Y0133913D01*
X0127245Y0135162D02*
X0125995Y0135162D01*
X0125995Y0139179D02*
X0127245Y0139179D01*
X0127245Y0137929D01*
X0125995Y0137929D01*
X0125995Y0139179D01*
X0125995Y0139178D02*
X0127245Y0139178D01*
X0129495Y0139179D02*
X0130745Y0139179D01*
X0130745Y0137929D01*
X0129495Y0137929D01*
X0129495Y0139179D01*
X0129495Y0139178D02*
X0130745Y0139178D01*
X0127245Y0130911D02*
X0125995Y0130911D01*
X0127245Y0130911D02*
X0127245Y0129661D01*
X0125995Y0129661D01*
X0125995Y0130911D01*
X0125995Y0130910D02*
X0127245Y0130910D01*
X0127245Y0126581D02*
X0125995Y0126581D01*
X0127245Y0126581D02*
X0127245Y0125331D01*
X0125995Y0125331D01*
X0125995Y0126581D01*
X0125995Y0126580D02*
X0127245Y0126580D01*
X0143279Y0147053D02*
X0144529Y0147053D01*
X0144529Y0145803D01*
X0143279Y0145803D01*
X0143279Y0147053D01*
X0143279Y0147052D02*
X0144529Y0147052D01*
X0146779Y0147053D02*
X0148029Y0147053D01*
X0148029Y0145803D01*
X0146779Y0145803D01*
X0146779Y0147053D01*
X0146779Y0147052D02*
X0148029Y0147052D01*
X0148909Y0152850D02*
X0150159Y0152850D01*
X0148909Y0152850D02*
X0148909Y0154100D01*
X0150159Y0154100D01*
X0150159Y0152850D01*
X0150159Y0154099D02*
X0148909Y0154099D01*
X0152409Y0152850D02*
X0153659Y0152850D01*
X0152409Y0152850D02*
X0152409Y0154100D01*
X0153659Y0154100D01*
X0153659Y0152850D01*
X0153659Y0154099D02*
X0152409Y0154099D01*
X0153798Y0156651D02*
X0153798Y0157901D01*
X0153798Y0156651D02*
X0152548Y0156651D01*
X0152548Y0157901D01*
X0153798Y0157901D01*
X0153798Y0157900D02*
X0152548Y0157900D01*
X0153798Y0160151D02*
X0153798Y0161401D01*
X0153798Y0160151D02*
X0152548Y0160151D01*
X0152548Y0161401D01*
X0153798Y0161401D01*
X0153798Y0161400D02*
X0152548Y0161400D01*
X0164074Y0146795D02*
X0164074Y0145545D01*
X0162824Y0145545D01*
X0162824Y0146795D01*
X0164074Y0146795D01*
X0164074Y0146794D02*
X0162824Y0146794D01*
X0164074Y0143295D02*
X0164074Y0142045D01*
X0162824Y0142045D01*
X0162824Y0143295D01*
X0164074Y0143295D01*
X0164074Y0143294D02*
X0162824Y0143294D01*
X0171822Y0143008D02*
X0173072Y0143008D01*
X0171822Y0143008D02*
X0171822Y0144258D01*
X0173072Y0144258D01*
X0173072Y0143008D01*
X0173072Y0144257D02*
X0171822Y0144257D01*
X0175322Y0143008D02*
X0176572Y0143008D01*
X0175322Y0143008D02*
X0175322Y0144258D01*
X0176572Y0144258D01*
X0176572Y0143008D01*
X0176572Y0144257D02*
X0175322Y0144257D01*
X0180356Y0144140D02*
X0180356Y0142890D01*
X0179106Y0142890D01*
X0179106Y0144140D01*
X0180356Y0144140D01*
X0180356Y0144139D02*
X0179106Y0144139D01*
X0183856Y0144140D02*
X0183856Y0142890D01*
X0182606Y0142890D01*
X0182606Y0144140D01*
X0183856Y0144140D01*
X0183856Y0144139D02*
X0182606Y0144139D01*
X0183816Y0139809D02*
X0183816Y0138559D01*
X0182566Y0138559D01*
X0182566Y0139809D01*
X0183816Y0139809D01*
X0183816Y0139808D02*
X0182566Y0139808D01*
X0180316Y0139809D02*
X0180316Y0138559D01*
X0179066Y0138559D01*
X0179066Y0139809D01*
X0180316Y0139809D01*
X0180316Y0139808D02*
X0179066Y0139808D01*
X0176533Y0138677D02*
X0175283Y0138677D01*
X0175283Y0139927D01*
X0176533Y0139927D01*
X0176533Y0138677D01*
X0176533Y0139926D02*
X0175283Y0139926D01*
X0173033Y0138677D02*
X0171783Y0138677D01*
X0171783Y0139927D01*
X0173033Y0139927D01*
X0173033Y0138677D01*
X0173033Y0139926D02*
X0171783Y0139926D01*
X0171783Y0134504D02*
X0173033Y0134504D01*
X0171783Y0134504D02*
X0171783Y0135754D01*
X0173033Y0135754D01*
X0173033Y0134504D01*
X0173033Y0135753D02*
X0171783Y0135753D01*
X0175283Y0134504D02*
X0176533Y0134504D01*
X0175283Y0134504D02*
X0175283Y0135754D01*
X0176533Y0135754D01*
X0176533Y0134504D01*
X0176533Y0135753D02*
X0175283Y0135753D01*
X0180277Y0135872D02*
X0180277Y0134622D01*
X0179027Y0134622D01*
X0179027Y0135872D01*
X0180277Y0135872D01*
X0180277Y0135871D02*
X0179027Y0135871D01*
X0183777Y0135872D02*
X0183777Y0134622D01*
X0182527Y0134622D01*
X0182527Y0135872D01*
X0183777Y0135872D01*
X0183777Y0135871D02*
X0182527Y0135871D01*
X0183737Y0131935D02*
X0183737Y0130685D01*
X0182487Y0130685D01*
X0182487Y0131935D01*
X0183737Y0131935D01*
X0183737Y0131934D02*
X0182487Y0131934D01*
X0180237Y0131935D02*
X0180237Y0130685D01*
X0178987Y0130685D01*
X0178987Y0131935D01*
X0180237Y0131935D01*
X0180237Y0131934D02*
X0178987Y0131934D01*
X0176493Y0130567D02*
X0175243Y0130567D01*
X0175243Y0131817D01*
X0176493Y0131817D01*
X0176493Y0130567D01*
X0176493Y0131816D02*
X0175243Y0131816D01*
X0172993Y0130567D02*
X0171743Y0130567D01*
X0171743Y0131817D01*
X0172993Y0131817D01*
X0172993Y0130567D01*
X0172993Y0131816D02*
X0171743Y0131816D01*
X0171704Y0127023D02*
X0172954Y0127023D01*
X0171704Y0127023D02*
X0171704Y0128273D01*
X0172954Y0128273D01*
X0172954Y0127023D01*
X0172954Y0128272D02*
X0171704Y0128272D01*
X0175204Y0127023D02*
X0176454Y0127023D01*
X0175204Y0127023D02*
X0175204Y0128273D01*
X0176454Y0128273D01*
X0176454Y0127023D01*
X0176454Y0128272D02*
X0175204Y0128272D01*
X0175165Y0123086D02*
X0176415Y0123086D01*
X0175165Y0123086D02*
X0175165Y0124336D01*
X0176415Y0124336D01*
X0176415Y0123086D01*
X0176415Y0124335D02*
X0175165Y0124335D01*
X0172915Y0123086D02*
X0171665Y0123086D01*
X0171665Y0124336D01*
X0172915Y0124336D01*
X0172915Y0123086D01*
X0172915Y0124335D02*
X0171665Y0124335D01*
X0171625Y0119149D02*
X0172875Y0119149D01*
X0171625Y0119149D02*
X0171625Y0120399D01*
X0172875Y0120399D01*
X0172875Y0119149D01*
X0172875Y0120398D02*
X0171625Y0120398D01*
X0175125Y0119149D02*
X0176375Y0119149D01*
X0175125Y0119149D02*
X0175125Y0120399D01*
X0176375Y0120399D01*
X0176375Y0119149D01*
X0176375Y0120398D02*
X0175125Y0120398D01*
X0175086Y0115212D02*
X0176336Y0115212D01*
X0175086Y0115212D02*
X0175086Y0116462D01*
X0176336Y0116462D01*
X0176336Y0115212D01*
X0176336Y0116461D02*
X0175086Y0116461D01*
X0172836Y0115212D02*
X0171586Y0115212D01*
X0171586Y0116462D01*
X0172836Y0116462D01*
X0172836Y0115212D01*
X0172836Y0116461D02*
X0171586Y0116461D01*
X0166043Y0111441D02*
X0166043Y0110191D01*
X0164793Y0110191D01*
X0164793Y0111441D01*
X0166043Y0111441D01*
X0166043Y0111440D02*
X0164793Y0111440D01*
X0166043Y0107941D02*
X0166043Y0106691D01*
X0164793Y0106691D01*
X0164793Y0107941D01*
X0166043Y0107941D01*
X0166043Y0107940D02*
X0164793Y0107940D01*
X0160186Y0107193D02*
X0160186Y0105943D01*
X0160186Y0107193D02*
X0161436Y0107193D01*
X0161436Y0105943D01*
X0160186Y0105943D01*
X0160186Y0107192D02*
X0161436Y0107192D01*
X0160186Y0109443D02*
X0160186Y0110693D01*
X0161436Y0110693D01*
X0161436Y0109443D01*
X0160186Y0109443D01*
X0160186Y0110692D02*
X0161436Y0110692D01*
X0156249Y0110732D02*
X0156249Y0109482D01*
X0156249Y0110732D02*
X0157499Y0110732D01*
X0157499Y0109482D01*
X0156249Y0109482D01*
X0156249Y0110731D02*
X0157499Y0110731D01*
X0156249Y0107232D02*
X0156249Y0105982D01*
X0156249Y0107232D02*
X0157499Y0107232D01*
X0157499Y0105982D01*
X0156249Y0105982D01*
X0156249Y0107231D02*
X0157499Y0107231D01*
X0169106Y0156817D02*
X0170356Y0156817D01*
X0170356Y0155567D01*
X0169106Y0155567D01*
X0169106Y0156817D01*
X0169106Y0156816D02*
X0170356Y0156816D01*
X0172606Y0156817D02*
X0173856Y0156817D01*
X0173856Y0155567D01*
X0172606Y0155567D01*
X0172606Y0156817D01*
X0172606Y0156816D02*
X0173856Y0156816D01*
X0170295Y0159525D02*
X0170295Y0160775D01*
X0170295Y0159525D02*
X0169045Y0159525D01*
X0169045Y0160775D01*
X0170295Y0160775D01*
X0170295Y0160774D02*
X0169045Y0160774D01*
X0170295Y0163025D02*
X0170295Y0164275D01*
X0170295Y0163025D02*
X0169045Y0163025D01*
X0169045Y0164275D01*
X0170295Y0164275D01*
X0170295Y0164274D02*
X0169045Y0164274D01*
X0169045Y0166612D02*
X0169045Y0167862D01*
X0170295Y0167862D01*
X0170295Y0166612D01*
X0169045Y0166612D01*
X0169045Y0167861D02*
X0170295Y0167861D01*
X0169045Y0170112D02*
X0169045Y0171362D01*
X0170295Y0171362D01*
X0170295Y0170112D01*
X0169045Y0170112D01*
X0169045Y0171361D02*
X0170295Y0171361D01*
X0170356Y0174504D02*
X0169106Y0174504D01*
X0169106Y0175754D01*
X0170356Y0175754D01*
X0170356Y0174504D01*
X0170356Y0175753D02*
X0169106Y0175753D01*
X0169145Y0179228D02*
X0170395Y0179228D01*
X0169145Y0179228D02*
X0169145Y0180478D01*
X0170395Y0180478D01*
X0170395Y0179228D01*
X0170395Y0180477D02*
X0169145Y0180477D01*
X0172645Y0179228D02*
X0173895Y0179228D01*
X0172645Y0179228D02*
X0172645Y0180478D01*
X0173895Y0180478D01*
X0173895Y0179228D01*
X0173895Y0180477D02*
X0172645Y0180477D01*
X0172606Y0174504D02*
X0173856Y0174504D01*
X0172606Y0174504D02*
X0172606Y0175754D01*
X0173856Y0175754D01*
X0173856Y0174504D01*
X0173856Y0175753D02*
X0172606Y0175753D01*
X0126139Y0166630D02*
X0124889Y0166630D01*
X0124889Y0167880D01*
X0126139Y0167880D01*
X0126139Y0166630D01*
X0126139Y0167879D02*
X0124889Y0167879D01*
X0122639Y0166630D02*
X0121389Y0166630D01*
X0121389Y0167880D01*
X0122639Y0167880D01*
X0122639Y0166630D01*
X0122639Y0167879D02*
X0121389Y0167879D01*
X0121446Y0170628D02*
X0121446Y0171878D01*
X0122696Y0171878D01*
X0122696Y0170628D01*
X0121446Y0170628D01*
X0121446Y0171877D02*
X0122696Y0171877D01*
X0121446Y0174128D02*
X0121446Y0175378D01*
X0122696Y0175378D01*
X0122696Y0174128D01*
X0121446Y0174128D01*
X0121446Y0175377D02*
X0122696Y0175377D01*
X0122657Y0163842D02*
X0122657Y0162592D01*
X0121407Y0162592D01*
X0121407Y0163842D01*
X0122657Y0163842D01*
X0122657Y0163841D02*
X0121407Y0163841D01*
X0122657Y0160342D02*
X0122657Y0159092D01*
X0121407Y0159092D01*
X0121407Y0160342D01*
X0122657Y0160342D01*
X0122657Y0160341D02*
X0121407Y0160341D01*
X0076100Y0158392D02*
X0074850Y0158392D01*
X0076100Y0158392D02*
X0076100Y0157142D01*
X0074850Y0157142D01*
X0074850Y0158392D01*
X0074850Y0158391D02*
X0076100Y0158391D01*
X0072600Y0158392D02*
X0071350Y0158392D01*
X0072600Y0158392D02*
X0072600Y0157142D01*
X0071350Y0157142D01*
X0071350Y0158392D01*
X0071350Y0158391D02*
X0072600Y0158391D01*
X0072657Y0160825D02*
X0072657Y0162075D01*
X0072657Y0160825D02*
X0071407Y0160825D01*
X0071407Y0162075D01*
X0072657Y0162075D01*
X0072657Y0162074D02*
X0071407Y0162074D01*
X0072657Y0164325D02*
X0072657Y0165575D01*
X0072657Y0164325D02*
X0071407Y0164325D01*
X0071407Y0165575D01*
X0072657Y0165575D01*
X0072657Y0165574D02*
X0071407Y0165574D01*
X0071367Y0168029D02*
X0071367Y0169279D01*
X0072617Y0169279D01*
X0072617Y0168029D01*
X0071367Y0168029D01*
X0071367Y0169278D02*
X0072617Y0169278D01*
X0071367Y0171529D02*
X0071367Y0172779D01*
X0072617Y0172779D01*
X0072617Y0171529D01*
X0071367Y0171529D01*
X0071367Y0172778D02*
X0072617Y0172778D01*
X0072836Y0175212D02*
X0071586Y0175212D01*
X0071586Y0176462D01*
X0072836Y0176462D01*
X0072836Y0175212D01*
X0072836Y0176461D02*
X0071586Y0176461D01*
X0071625Y0179543D02*
X0072875Y0179543D01*
X0071625Y0179543D02*
X0071625Y0180793D01*
X0072875Y0180793D01*
X0072875Y0179543D01*
X0072875Y0180792D02*
X0071625Y0180792D01*
X0075125Y0179543D02*
X0076375Y0179543D01*
X0075125Y0179543D02*
X0075125Y0180793D01*
X0076375Y0180793D01*
X0076375Y0179543D01*
X0076375Y0180792D02*
X0075125Y0180792D01*
X0075086Y0175212D02*
X0076336Y0175212D01*
X0075086Y0175212D02*
X0075086Y0176462D01*
X0076336Y0176462D01*
X0076336Y0175212D01*
X0076336Y0176461D02*
X0075086Y0176461D01*
X0055846Y0150929D02*
X0055846Y0149679D01*
X0054596Y0149679D01*
X0054596Y0150929D01*
X0055846Y0150929D01*
X0055846Y0150928D02*
X0054596Y0150928D01*
X0055846Y0147429D02*
X0055846Y0146179D01*
X0054596Y0146179D01*
X0054596Y0147429D01*
X0055846Y0147429D01*
X0055846Y0147428D02*
X0054596Y0147428D01*
X0044761Y0155567D02*
X0043511Y0155567D01*
X0043511Y0156817D01*
X0044761Y0156817D01*
X0044761Y0155567D01*
X0044761Y0156816D02*
X0043511Y0156816D01*
X0041261Y0155567D02*
X0040011Y0155567D01*
X0040011Y0156817D01*
X0041261Y0156817D01*
X0041261Y0155567D01*
X0041261Y0156816D02*
X0040011Y0156816D01*
X0044783Y0159565D02*
X0044783Y0160815D01*
X0044783Y0159565D02*
X0043533Y0159565D01*
X0043533Y0160815D01*
X0044783Y0160815D01*
X0044783Y0160814D02*
X0043533Y0160814D01*
X0044783Y0163065D02*
X0044783Y0164315D01*
X0044783Y0163065D02*
X0043533Y0163065D01*
X0043533Y0164315D01*
X0044783Y0164315D01*
X0044783Y0164314D02*
X0043533Y0164314D01*
X0035706Y0144110D02*
X0034456Y0144110D01*
X0034456Y0145360D01*
X0035706Y0145360D01*
X0035706Y0144110D01*
X0035706Y0145359D02*
X0034456Y0145359D01*
X0032206Y0144110D02*
X0030956Y0144110D01*
X0030956Y0145360D01*
X0032206Y0145360D01*
X0032206Y0144110D01*
X0032206Y0145359D02*
X0030956Y0145359D01*
X0021021Y0142683D02*
X0019771Y0142683D01*
X0021021Y0142683D02*
X0021021Y0141433D01*
X0019771Y0141433D01*
X0019771Y0142683D01*
X0019771Y0142682D02*
X0021021Y0142682D01*
X0017521Y0142683D02*
X0016271Y0142683D01*
X0017521Y0142683D02*
X0017521Y0141433D01*
X0016271Y0141433D01*
X0016271Y0142683D01*
X0016271Y0142682D02*
X0017521Y0142682D01*
X0017521Y0136984D02*
X0016271Y0136984D01*
X0016271Y0138234D01*
X0017521Y0138234D01*
X0017521Y0136984D01*
X0017521Y0138233D02*
X0016271Y0138233D01*
X0019771Y0136984D02*
X0021021Y0136984D01*
X0019771Y0136984D02*
X0019771Y0138234D01*
X0021021Y0138234D01*
X0021021Y0136984D01*
X0021021Y0138233D02*
X0019771Y0138233D01*
X0019771Y0133706D02*
X0021021Y0133706D01*
X0021021Y0132456D01*
X0019771Y0132456D01*
X0019771Y0133706D01*
X0019771Y0133705D02*
X0021021Y0133705D01*
X0017521Y0133706D02*
X0016271Y0133706D01*
X0017521Y0133706D02*
X0017521Y0132456D01*
X0016271Y0132456D01*
X0016271Y0133706D01*
X0016271Y0133705D02*
X0017521Y0133705D01*
X0017521Y0128982D02*
X0016271Y0128982D01*
X0017521Y0128982D02*
X0017521Y0127732D01*
X0016271Y0127732D01*
X0016271Y0128982D01*
X0016271Y0128981D02*
X0017521Y0128981D01*
X0019771Y0128982D02*
X0021021Y0128982D01*
X0021021Y0127732D01*
X0019771Y0127732D01*
X0019771Y0128982D01*
X0019771Y0128981D02*
X0021021Y0128981D01*
X0021021Y0123470D02*
X0019771Y0123470D01*
X0021021Y0123470D02*
X0021021Y0122220D01*
X0019771Y0122220D01*
X0019771Y0123470D01*
X0019771Y0123469D02*
X0021021Y0123469D01*
X0017521Y0123470D02*
X0016271Y0123470D01*
X0017521Y0123470D02*
X0017521Y0122220D01*
X0016271Y0122220D01*
X0016271Y0123470D01*
X0016271Y0123469D02*
X0017521Y0123469D01*
X0018720Y0159604D02*
X0018720Y0160854D01*
X0018720Y0159604D02*
X0017470Y0159604D01*
X0017470Y0160854D01*
X0018720Y0160854D01*
X0018720Y0160853D02*
X0017470Y0160853D01*
X0018720Y0163104D02*
X0018720Y0164354D01*
X0018720Y0163104D02*
X0017470Y0163104D01*
X0017470Y0164354D01*
X0018720Y0164354D01*
X0018720Y0164353D02*
X0017470Y0164353D01*
X0017570Y0166945D02*
X0018820Y0166945D01*
X0017570Y0166945D02*
X0017570Y0168195D01*
X0018820Y0168195D01*
X0018820Y0166945D01*
X0018820Y0168194D02*
X0017570Y0168194D01*
X0017430Y0170903D02*
X0017430Y0172153D01*
X0018680Y0172153D01*
X0018680Y0170903D01*
X0017430Y0170903D01*
X0017430Y0172152D02*
X0018680Y0172152D01*
X0017430Y0174403D02*
X0017430Y0175653D01*
X0018680Y0175653D01*
X0018680Y0174403D01*
X0017430Y0174403D01*
X0017430Y0175652D02*
X0018680Y0175652D01*
X0021070Y0166945D02*
X0022320Y0166945D01*
X0021070Y0166945D02*
X0021070Y0168195D01*
X0022320Y0168195D01*
X0022320Y0166945D01*
X0022320Y0168194D02*
X0021070Y0168194D01*
D12*
X0066014Y0073554D02*
X0066014Y0070554D01*
X0061514Y0070554D01*
X0061514Y0073554D01*
X0066014Y0073554D01*
X0066014Y0071553D02*
X0061514Y0071553D01*
X0061514Y0072552D02*
X0066014Y0072552D01*
X0066014Y0073551D02*
X0061514Y0073551D01*
X0066014Y0066554D02*
X0066014Y0063554D01*
X0061514Y0063554D01*
X0061514Y0066554D01*
X0066014Y0066554D01*
X0066014Y0064553D02*
X0061514Y0064553D01*
X0061514Y0065552D02*
X0066014Y0065552D01*
X0066014Y0066551D02*
X0061514Y0066551D01*
D13*
X0083607Y0072373D03*
X0085575Y0072373D03*
X0087544Y0072373D03*
X0089512Y0072373D03*
X0091481Y0072373D03*
X0093449Y0072373D03*
X0095418Y0072373D03*
X0097386Y0072373D03*
X0099355Y0072373D03*
X0101323Y0072373D03*
X0103292Y0072373D03*
X0105260Y0072373D03*
X0107229Y0072373D03*
X0109197Y0072373D03*
X0111166Y0072373D03*
X0113134Y0072373D03*
X0113134Y0036546D03*
X0111166Y0036546D03*
X0109197Y0036546D03*
X0107229Y0036546D03*
X0105260Y0036546D03*
X0103292Y0036546D03*
X0101323Y0036546D03*
X0099355Y0036546D03*
X0097386Y0036546D03*
X0095418Y0036546D03*
X0093449Y0036546D03*
X0091481Y0036546D03*
X0089512Y0036546D03*
X0087544Y0036546D03*
X0085575Y0036546D03*
X0083607Y0036546D03*
D14*
X0080457Y0039696D03*
X0080457Y0041664D03*
X0080457Y0043633D03*
X0080457Y0045601D03*
X0080457Y0047570D03*
X0080457Y0049538D03*
X0080457Y0051507D03*
X0080457Y0053475D03*
X0080457Y0055444D03*
X0080457Y0057412D03*
X0080457Y0059381D03*
X0080457Y0061349D03*
X0080457Y0063318D03*
X0080457Y0065286D03*
X0080457Y0067255D03*
X0080457Y0069223D03*
X0116284Y0069223D03*
X0116284Y0067255D03*
X0116284Y0065286D03*
X0116284Y0063318D03*
X0116284Y0061349D03*
X0116284Y0059381D03*
X0116284Y0057412D03*
X0116284Y0055444D03*
X0116284Y0053475D03*
X0116284Y0051507D03*
X0116284Y0049538D03*
X0116284Y0047570D03*
X0116284Y0045601D03*
X0116284Y0043633D03*
X0116284Y0041664D03*
X0116284Y0039696D03*
D15*
X0105752Y0047078D03*
X0105752Y0061841D03*
X0090988Y0061841D03*
X0090988Y0047078D03*
D16*
X0048355Y0125774D03*
X0044355Y0129774D03*
X0040355Y0125774D03*
X0040355Y0133774D03*
X0048355Y0133774D03*
X0149213Y0132593D03*
X0153213Y0128593D03*
X0157213Y0124593D03*
X0149213Y0124593D03*
X0157213Y0132593D03*
D17*
X0157694Y0136946D02*
X0157694Y0139926D01*
X0158574Y0139926D01*
X0158574Y0136946D01*
X0157694Y0136946D01*
X0157694Y0137165D02*
X0158574Y0137165D01*
X0158574Y0137384D02*
X0157694Y0137384D01*
X0157694Y0137603D02*
X0158574Y0137603D01*
X0158574Y0137822D02*
X0157694Y0137822D01*
X0157694Y0138041D02*
X0158574Y0138041D01*
X0158574Y0138260D02*
X0157694Y0138260D01*
X0157694Y0138479D02*
X0158574Y0138479D01*
X0158574Y0138698D02*
X0157694Y0138698D01*
X0157694Y0138917D02*
X0158574Y0138917D01*
X0158574Y0139136D02*
X0157694Y0139136D01*
X0157694Y0139355D02*
X0158574Y0139355D01*
X0158574Y0139574D02*
X0157694Y0139574D01*
X0157694Y0139793D02*
X0158574Y0139793D01*
X0159663Y0139926D02*
X0159663Y0136946D01*
X0159663Y0139926D02*
X0160543Y0139926D01*
X0160543Y0136946D01*
X0159663Y0136946D01*
X0159663Y0137165D02*
X0160543Y0137165D01*
X0160543Y0137384D02*
X0159663Y0137384D01*
X0159663Y0137603D02*
X0160543Y0137603D01*
X0160543Y0137822D02*
X0159663Y0137822D01*
X0159663Y0138041D02*
X0160543Y0138041D01*
X0160543Y0138260D02*
X0159663Y0138260D01*
X0159663Y0138479D02*
X0160543Y0138479D01*
X0160543Y0138698D02*
X0159663Y0138698D01*
X0159663Y0138917D02*
X0160543Y0138917D01*
X0160543Y0139136D02*
X0159663Y0139136D01*
X0159663Y0139355D02*
X0160543Y0139355D01*
X0160543Y0139574D02*
X0159663Y0139574D01*
X0159663Y0139793D02*
X0160543Y0139793D01*
X0155726Y0139926D02*
X0155726Y0136946D01*
X0155726Y0139926D02*
X0156606Y0139926D01*
X0156606Y0136946D01*
X0155726Y0136946D01*
X0155726Y0137165D02*
X0156606Y0137165D01*
X0156606Y0137384D02*
X0155726Y0137384D01*
X0155726Y0137603D02*
X0156606Y0137603D01*
X0156606Y0137822D02*
X0155726Y0137822D01*
X0155726Y0138041D02*
X0156606Y0138041D01*
X0156606Y0138260D02*
X0155726Y0138260D01*
X0155726Y0138479D02*
X0156606Y0138479D01*
X0156606Y0138698D02*
X0155726Y0138698D01*
X0155726Y0138917D02*
X0156606Y0138917D01*
X0156606Y0139136D02*
X0155726Y0139136D01*
X0155726Y0139355D02*
X0156606Y0139355D01*
X0156606Y0139574D02*
X0155726Y0139574D01*
X0155726Y0139793D02*
X0156606Y0139793D01*
X0153757Y0139926D02*
X0153757Y0136946D01*
X0153757Y0139926D02*
X0154637Y0139926D01*
X0154637Y0136946D01*
X0153757Y0136946D01*
X0153757Y0137165D02*
X0154637Y0137165D01*
X0154637Y0137384D02*
X0153757Y0137384D01*
X0153757Y0137603D02*
X0154637Y0137603D01*
X0154637Y0137822D02*
X0153757Y0137822D01*
X0153757Y0138041D02*
X0154637Y0138041D01*
X0154637Y0138260D02*
X0153757Y0138260D01*
X0153757Y0138479D02*
X0154637Y0138479D01*
X0154637Y0138698D02*
X0153757Y0138698D01*
X0153757Y0138917D02*
X0154637Y0138917D01*
X0154637Y0139136D02*
X0153757Y0139136D01*
X0153757Y0139355D02*
X0154637Y0139355D01*
X0154637Y0139574D02*
X0153757Y0139574D01*
X0153757Y0139793D02*
X0154637Y0139793D01*
X0151789Y0139926D02*
X0151789Y0136946D01*
X0151789Y0139926D02*
X0152669Y0139926D01*
X0152669Y0136946D01*
X0151789Y0136946D01*
X0151789Y0137165D02*
X0152669Y0137165D01*
X0152669Y0137384D02*
X0151789Y0137384D01*
X0151789Y0137603D02*
X0152669Y0137603D01*
X0152669Y0137822D02*
X0151789Y0137822D01*
X0151789Y0138041D02*
X0152669Y0138041D01*
X0152669Y0138260D02*
X0151789Y0138260D01*
X0151789Y0138479D02*
X0152669Y0138479D01*
X0152669Y0138698D02*
X0151789Y0138698D01*
X0151789Y0138917D02*
X0152669Y0138917D01*
X0152669Y0139136D02*
X0151789Y0139136D01*
X0151789Y0139355D02*
X0152669Y0139355D01*
X0152669Y0139574D02*
X0151789Y0139574D01*
X0151789Y0139793D02*
X0152669Y0139793D01*
X0149820Y0139926D02*
X0149820Y0136946D01*
X0149820Y0139926D02*
X0150700Y0139926D01*
X0150700Y0136946D01*
X0149820Y0136946D01*
X0149820Y0137165D02*
X0150700Y0137165D01*
X0150700Y0137384D02*
X0149820Y0137384D01*
X0149820Y0137603D02*
X0150700Y0137603D01*
X0150700Y0137822D02*
X0149820Y0137822D01*
X0149820Y0138041D02*
X0150700Y0138041D01*
X0150700Y0138260D02*
X0149820Y0138260D01*
X0149820Y0138479D02*
X0150700Y0138479D01*
X0150700Y0138698D02*
X0149820Y0138698D01*
X0149820Y0138917D02*
X0150700Y0138917D01*
X0150700Y0139136D02*
X0149820Y0139136D01*
X0149820Y0139355D02*
X0150700Y0139355D01*
X0150700Y0139574D02*
X0149820Y0139574D01*
X0149820Y0139793D02*
X0150700Y0139793D01*
X0147852Y0139926D02*
X0147852Y0136946D01*
X0147852Y0139926D02*
X0148732Y0139926D01*
X0148732Y0136946D01*
X0147852Y0136946D01*
X0147852Y0137165D02*
X0148732Y0137165D01*
X0148732Y0137384D02*
X0147852Y0137384D01*
X0147852Y0137603D02*
X0148732Y0137603D01*
X0148732Y0137822D02*
X0147852Y0137822D01*
X0147852Y0138041D02*
X0148732Y0138041D01*
X0148732Y0138260D02*
X0147852Y0138260D01*
X0147852Y0138479D02*
X0148732Y0138479D01*
X0148732Y0138698D02*
X0147852Y0138698D01*
X0147852Y0138917D02*
X0148732Y0138917D01*
X0148732Y0139136D02*
X0147852Y0139136D01*
X0147852Y0139355D02*
X0148732Y0139355D01*
X0148732Y0139574D02*
X0147852Y0139574D01*
X0147852Y0139793D02*
X0148732Y0139793D01*
X0145883Y0139926D02*
X0145883Y0136946D01*
X0145883Y0139926D02*
X0146763Y0139926D01*
X0146763Y0136946D01*
X0145883Y0136946D01*
X0145883Y0137165D02*
X0146763Y0137165D01*
X0146763Y0137384D02*
X0145883Y0137384D01*
X0145883Y0137603D02*
X0146763Y0137603D01*
X0146763Y0137822D02*
X0145883Y0137822D01*
X0145883Y0138041D02*
X0146763Y0138041D01*
X0146763Y0138260D02*
X0145883Y0138260D01*
X0145883Y0138479D02*
X0146763Y0138479D01*
X0146763Y0138698D02*
X0145883Y0138698D01*
X0145883Y0138917D02*
X0146763Y0138917D01*
X0146763Y0139136D02*
X0145883Y0139136D01*
X0145883Y0139355D02*
X0146763Y0139355D01*
X0146763Y0139574D02*
X0145883Y0139574D01*
X0145883Y0139793D02*
X0146763Y0139793D01*
X0144860Y0135043D02*
X0141880Y0135043D01*
X0141880Y0135923D01*
X0144860Y0135923D01*
X0144860Y0135043D01*
X0144860Y0135262D02*
X0141880Y0135262D01*
X0141880Y0135481D02*
X0144860Y0135481D01*
X0144860Y0135700D02*
X0141880Y0135700D01*
X0141880Y0135919D02*
X0144860Y0135919D01*
X0144860Y0133075D02*
X0141880Y0133075D01*
X0141880Y0133955D01*
X0144860Y0133955D01*
X0144860Y0133075D01*
X0144860Y0133294D02*
X0141880Y0133294D01*
X0141880Y0133513D02*
X0144860Y0133513D01*
X0144860Y0133732D02*
X0141880Y0133732D01*
X0141880Y0133951D02*
X0144860Y0133951D01*
X0144860Y0131106D02*
X0141880Y0131106D01*
X0141880Y0131986D01*
X0144860Y0131986D01*
X0144860Y0131106D01*
X0144860Y0131325D02*
X0141880Y0131325D01*
X0141880Y0131544D02*
X0144860Y0131544D01*
X0144860Y0131763D02*
X0141880Y0131763D01*
X0141880Y0131982D02*
X0144860Y0131982D01*
X0144860Y0129138D02*
X0141880Y0129138D01*
X0141880Y0130018D01*
X0144860Y0130018D01*
X0144860Y0129138D01*
X0144860Y0129357D02*
X0141880Y0129357D01*
X0141880Y0129576D02*
X0144860Y0129576D01*
X0144860Y0129795D02*
X0141880Y0129795D01*
X0141880Y0130014D02*
X0144860Y0130014D01*
X0144860Y0127169D02*
X0141880Y0127169D01*
X0141880Y0128049D01*
X0144860Y0128049D01*
X0144860Y0127169D01*
X0144860Y0127388D02*
X0141880Y0127388D01*
X0141880Y0127607D02*
X0144860Y0127607D01*
X0144860Y0127826D02*
X0141880Y0127826D01*
X0141880Y0128045D02*
X0144860Y0128045D01*
X0144860Y0125201D02*
X0141880Y0125201D01*
X0141880Y0126081D01*
X0144860Y0126081D01*
X0144860Y0125201D01*
X0144860Y0125420D02*
X0141880Y0125420D01*
X0141880Y0125639D02*
X0144860Y0125639D01*
X0144860Y0125858D02*
X0141880Y0125858D01*
X0141880Y0126077D02*
X0144860Y0126077D01*
X0144860Y0123232D02*
X0141880Y0123232D01*
X0141880Y0124112D01*
X0144860Y0124112D01*
X0144860Y0123232D01*
X0144860Y0123451D02*
X0141880Y0123451D01*
X0141880Y0123670D02*
X0144860Y0123670D01*
X0144860Y0123889D02*
X0141880Y0123889D01*
X0141880Y0124108D02*
X0144860Y0124108D01*
X0144860Y0121264D02*
X0141880Y0121264D01*
X0141880Y0122144D01*
X0144860Y0122144D01*
X0144860Y0121264D01*
X0144860Y0121483D02*
X0141880Y0121483D01*
X0141880Y0121702D02*
X0144860Y0121702D01*
X0144860Y0121921D02*
X0141880Y0121921D01*
X0141880Y0122140D02*
X0144860Y0122140D01*
X0146763Y0120241D02*
X0146763Y0117261D01*
X0145883Y0117261D01*
X0145883Y0120241D01*
X0146763Y0120241D01*
X0146763Y0117480D02*
X0145883Y0117480D01*
X0145883Y0117699D02*
X0146763Y0117699D01*
X0146763Y0117918D02*
X0145883Y0117918D01*
X0145883Y0118137D02*
X0146763Y0118137D01*
X0146763Y0118356D02*
X0145883Y0118356D01*
X0145883Y0118575D02*
X0146763Y0118575D01*
X0146763Y0118794D02*
X0145883Y0118794D01*
X0145883Y0119013D02*
X0146763Y0119013D01*
X0146763Y0119232D02*
X0145883Y0119232D01*
X0145883Y0119451D02*
X0146763Y0119451D01*
X0146763Y0119670D02*
X0145883Y0119670D01*
X0145883Y0119889D02*
X0146763Y0119889D01*
X0146763Y0120108D02*
X0145883Y0120108D01*
X0148732Y0120241D02*
X0148732Y0117261D01*
X0147852Y0117261D01*
X0147852Y0120241D01*
X0148732Y0120241D01*
X0148732Y0117480D02*
X0147852Y0117480D01*
X0147852Y0117699D02*
X0148732Y0117699D01*
X0148732Y0117918D02*
X0147852Y0117918D01*
X0147852Y0118137D02*
X0148732Y0118137D01*
X0148732Y0118356D02*
X0147852Y0118356D01*
X0147852Y0118575D02*
X0148732Y0118575D01*
X0148732Y0118794D02*
X0147852Y0118794D01*
X0147852Y0119013D02*
X0148732Y0119013D01*
X0148732Y0119232D02*
X0147852Y0119232D01*
X0147852Y0119451D02*
X0148732Y0119451D01*
X0148732Y0119670D02*
X0147852Y0119670D01*
X0147852Y0119889D02*
X0148732Y0119889D01*
X0148732Y0120108D02*
X0147852Y0120108D01*
X0150700Y0120241D02*
X0150700Y0117261D01*
X0149820Y0117261D01*
X0149820Y0120241D01*
X0150700Y0120241D01*
X0150700Y0117480D02*
X0149820Y0117480D01*
X0149820Y0117699D02*
X0150700Y0117699D01*
X0150700Y0117918D02*
X0149820Y0117918D01*
X0149820Y0118137D02*
X0150700Y0118137D01*
X0150700Y0118356D02*
X0149820Y0118356D01*
X0149820Y0118575D02*
X0150700Y0118575D01*
X0150700Y0118794D02*
X0149820Y0118794D01*
X0149820Y0119013D02*
X0150700Y0119013D01*
X0150700Y0119232D02*
X0149820Y0119232D01*
X0149820Y0119451D02*
X0150700Y0119451D01*
X0150700Y0119670D02*
X0149820Y0119670D01*
X0149820Y0119889D02*
X0150700Y0119889D01*
X0150700Y0120108D02*
X0149820Y0120108D01*
X0152669Y0120241D02*
X0152669Y0117261D01*
X0151789Y0117261D01*
X0151789Y0120241D01*
X0152669Y0120241D01*
X0152669Y0117480D02*
X0151789Y0117480D01*
X0151789Y0117699D02*
X0152669Y0117699D01*
X0152669Y0117918D02*
X0151789Y0117918D01*
X0151789Y0118137D02*
X0152669Y0118137D01*
X0152669Y0118356D02*
X0151789Y0118356D01*
X0151789Y0118575D02*
X0152669Y0118575D01*
X0152669Y0118794D02*
X0151789Y0118794D01*
X0151789Y0119013D02*
X0152669Y0119013D01*
X0152669Y0119232D02*
X0151789Y0119232D01*
X0151789Y0119451D02*
X0152669Y0119451D01*
X0152669Y0119670D02*
X0151789Y0119670D01*
X0151789Y0119889D02*
X0152669Y0119889D01*
X0152669Y0120108D02*
X0151789Y0120108D01*
X0154637Y0120241D02*
X0154637Y0117261D01*
X0153757Y0117261D01*
X0153757Y0120241D01*
X0154637Y0120241D01*
X0154637Y0117480D02*
X0153757Y0117480D01*
X0153757Y0117699D02*
X0154637Y0117699D01*
X0154637Y0117918D02*
X0153757Y0117918D01*
X0153757Y0118137D02*
X0154637Y0118137D01*
X0154637Y0118356D02*
X0153757Y0118356D01*
X0153757Y0118575D02*
X0154637Y0118575D01*
X0154637Y0118794D02*
X0153757Y0118794D01*
X0153757Y0119013D02*
X0154637Y0119013D01*
X0154637Y0119232D02*
X0153757Y0119232D01*
X0153757Y0119451D02*
X0154637Y0119451D01*
X0154637Y0119670D02*
X0153757Y0119670D01*
X0153757Y0119889D02*
X0154637Y0119889D01*
X0154637Y0120108D02*
X0153757Y0120108D01*
X0156606Y0120241D02*
X0156606Y0117261D01*
X0155726Y0117261D01*
X0155726Y0120241D01*
X0156606Y0120241D01*
X0156606Y0117480D02*
X0155726Y0117480D01*
X0155726Y0117699D02*
X0156606Y0117699D01*
X0156606Y0117918D02*
X0155726Y0117918D01*
X0155726Y0118137D02*
X0156606Y0118137D01*
X0156606Y0118356D02*
X0155726Y0118356D01*
X0155726Y0118575D02*
X0156606Y0118575D01*
X0156606Y0118794D02*
X0155726Y0118794D01*
X0155726Y0119013D02*
X0156606Y0119013D01*
X0156606Y0119232D02*
X0155726Y0119232D01*
X0155726Y0119451D02*
X0156606Y0119451D01*
X0156606Y0119670D02*
X0155726Y0119670D01*
X0155726Y0119889D02*
X0156606Y0119889D01*
X0156606Y0120108D02*
X0155726Y0120108D01*
X0158574Y0120241D02*
X0158574Y0117261D01*
X0157694Y0117261D01*
X0157694Y0120241D01*
X0158574Y0120241D01*
X0158574Y0117480D02*
X0157694Y0117480D01*
X0157694Y0117699D02*
X0158574Y0117699D01*
X0158574Y0117918D02*
X0157694Y0117918D01*
X0157694Y0118137D02*
X0158574Y0118137D01*
X0158574Y0118356D02*
X0157694Y0118356D01*
X0157694Y0118575D02*
X0158574Y0118575D01*
X0158574Y0118794D02*
X0157694Y0118794D01*
X0157694Y0119013D02*
X0158574Y0119013D01*
X0158574Y0119232D02*
X0157694Y0119232D01*
X0157694Y0119451D02*
X0158574Y0119451D01*
X0158574Y0119670D02*
X0157694Y0119670D01*
X0157694Y0119889D02*
X0158574Y0119889D01*
X0158574Y0120108D02*
X0157694Y0120108D01*
X0160543Y0120241D02*
X0160543Y0117261D01*
X0159663Y0117261D01*
X0159663Y0120241D01*
X0160543Y0120241D01*
X0160543Y0117480D02*
X0159663Y0117480D01*
X0159663Y0117699D02*
X0160543Y0117699D01*
X0160543Y0117918D02*
X0159663Y0117918D01*
X0159663Y0118137D02*
X0160543Y0118137D01*
X0160543Y0118356D02*
X0159663Y0118356D01*
X0159663Y0118575D02*
X0160543Y0118575D01*
X0160543Y0118794D02*
X0159663Y0118794D01*
X0159663Y0119013D02*
X0160543Y0119013D01*
X0160543Y0119232D02*
X0159663Y0119232D01*
X0159663Y0119451D02*
X0160543Y0119451D01*
X0160543Y0119670D02*
X0159663Y0119670D01*
X0159663Y0119889D02*
X0160543Y0119889D01*
X0160543Y0120108D02*
X0159663Y0120108D01*
X0161565Y0122144D02*
X0164545Y0122144D01*
X0164545Y0121264D01*
X0161565Y0121264D01*
X0161565Y0122144D01*
X0161565Y0121483D02*
X0164545Y0121483D01*
X0164545Y0121702D02*
X0161565Y0121702D01*
X0161565Y0121921D02*
X0164545Y0121921D01*
X0164545Y0122140D02*
X0161565Y0122140D01*
X0161565Y0124112D02*
X0164545Y0124112D01*
X0164545Y0123232D01*
X0161565Y0123232D01*
X0161565Y0124112D01*
X0161565Y0123451D02*
X0164545Y0123451D01*
X0164545Y0123670D02*
X0161565Y0123670D01*
X0161565Y0123889D02*
X0164545Y0123889D01*
X0164545Y0124108D02*
X0161565Y0124108D01*
X0161565Y0126081D02*
X0164545Y0126081D01*
X0164545Y0125201D01*
X0161565Y0125201D01*
X0161565Y0126081D01*
X0161565Y0125420D02*
X0164545Y0125420D01*
X0164545Y0125639D02*
X0161565Y0125639D01*
X0161565Y0125858D02*
X0164545Y0125858D01*
X0164545Y0126077D02*
X0161565Y0126077D01*
X0161565Y0128049D02*
X0164545Y0128049D01*
X0164545Y0127169D01*
X0161565Y0127169D01*
X0161565Y0128049D01*
X0161565Y0127388D02*
X0164545Y0127388D01*
X0164545Y0127607D02*
X0161565Y0127607D01*
X0161565Y0127826D02*
X0164545Y0127826D01*
X0164545Y0128045D02*
X0161565Y0128045D01*
X0161565Y0130018D02*
X0164545Y0130018D01*
X0164545Y0129138D01*
X0161565Y0129138D01*
X0161565Y0130018D01*
X0161565Y0129357D02*
X0164545Y0129357D01*
X0164545Y0129576D02*
X0161565Y0129576D01*
X0161565Y0129795D02*
X0164545Y0129795D01*
X0164545Y0130014D02*
X0161565Y0130014D01*
X0161565Y0131986D02*
X0164545Y0131986D01*
X0164545Y0131106D01*
X0161565Y0131106D01*
X0161565Y0131986D01*
X0161565Y0131325D02*
X0164545Y0131325D01*
X0164545Y0131544D02*
X0161565Y0131544D01*
X0161565Y0131763D02*
X0164545Y0131763D01*
X0164545Y0131982D02*
X0161565Y0131982D01*
X0161565Y0133955D02*
X0164545Y0133955D01*
X0164545Y0133075D01*
X0161565Y0133075D01*
X0161565Y0133955D01*
X0161565Y0133294D02*
X0164545Y0133294D01*
X0164545Y0133513D02*
X0161565Y0133513D01*
X0161565Y0133732D02*
X0164545Y0133732D01*
X0164545Y0133951D02*
X0161565Y0133951D01*
X0161565Y0135923D02*
X0164545Y0135923D01*
X0164545Y0135043D01*
X0161565Y0135043D01*
X0161565Y0135923D01*
X0161565Y0135262D02*
X0164545Y0135262D01*
X0164545Y0135481D02*
X0161565Y0135481D01*
X0161565Y0135700D02*
X0164545Y0135700D01*
X0164545Y0135919D02*
X0161565Y0135919D01*
X0055687Y0137104D02*
X0052707Y0137104D01*
X0055687Y0137104D02*
X0055687Y0136224D01*
X0052707Y0136224D01*
X0052707Y0137104D01*
X0052707Y0136443D02*
X0055687Y0136443D01*
X0055687Y0136662D02*
X0052707Y0136662D01*
X0052707Y0136881D02*
X0055687Y0136881D01*
X0055687Y0137100D02*
X0052707Y0137100D01*
X0052707Y0135136D02*
X0055687Y0135136D01*
X0055687Y0134256D01*
X0052707Y0134256D01*
X0052707Y0135136D01*
X0052707Y0134475D02*
X0055687Y0134475D01*
X0055687Y0134694D02*
X0052707Y0134694D01*
X0052707Y0134913D02*
X0055687Y0134913D01*
X0055687Y0135132D02*
X0052707Y0135132D01*
X0052707Y0133167D02*
X0055687Y0133167D01*
X0055687Y0132287D01*
X0052707Y0132287D01*
X0052707Y0133167D01*
X0052707Y0132506D02*
X0055687Y0132506D01*
X0055687Y0132725D02*
X0052707Y0132725D01*
X0052707Y0132944D02*
X0055687Y0132944D01*
X0055687Y0133163D02*
X0052707Y0133163D01*
X0052707Y0131199D02*
X0055687Y0131199D01*
X0055687Y0130319D01*
X0052707Y0130319D01*
X0052707Y0131199D01*
X0052707Y0130538D02*
X0055687Y0130538D01*
X0055687Y0130757D02*
X0052707Y0130757D01*
X0052707Y0130976D02*
X0055687Y0130976D01*
X0055687Y0131195D02*
X0052707Y0131195D01*
X0052707Y0129230D02*
X0055687Y0129230D01*
X0055687Y0128350D01*
X0052707Y0128350D01*
X0052707Y0129230D01*
X0052707Y0128569D02*
X0055687Y0128569D01*
X0055687Y0128788D02*
X0052707Y0128788D01*
X0052707Y0129007D02*
X0055687Y0129007D01*
X0055687Y0129226D02*
X0052707Y0129226D01*
X0052707Y0127262D02*
X0055687Y0127262D01*
X0055687Y0126382D01*
X0052707Y0126382D01*
X0052707Y0127262D01*
X0052707Y0126601D02*
X0055687Y0126601D01*
X0055687Y0126820D02*
X0052707Y0126820D01*
X0052707Y0127039D02*
X0055687Y0127039D01*
X0055687Y0127258D02*
X0052707Y0127258D01*
X0052707Y0125293D02*
X0055687Y0125293D01*
X0055687Y0124413D01*
X0052707Y0124413D01*
X0052707Y0125293D01*
X0052707Y0124632D02*
X0055687Y0124632D01*
X0055687Y0124851D02*
X0052707Y0124851D01*
X0052707Y0125070D02*
X0055687Y0125070D01*
X0055687Y0125289D02*
X0052707Y0125289D01*
X0052707Y0123325D02*
X0055687Y0123325D01*
X0055687Y0122445D01*
X0052707Y0122445D01*
X0052707Y0123325D01*
X0052707Y0122664D02*
X0055687Y0122664D01*
X0055687Y0122883D02*
X0052707Y0122883D01*
X0052707Y0123102D02*
X0055687Y0123102D01*
X0055687Y0123321D02*
X0052707Y0123321D01*
X0051684Y0121422D02*
X0051684Y0118442D01*
X0050804Y0118442D01*
X0050804Y0121422D01*
X0051684Y0121422D01*
X0051684Y0118661D02*
X0050804Y0118661D01*
X0050804Y0118880D02*
X0051684Y0118880D01*
X0051684Y0119099D02*
X0050804Y0119099D01*
X0050804Y0119318D02*
X0051684Y0119318D01*
X0051684Y0119537D02*
X0050804Y0119537D01*
X0050804Y0119756D02*
X0051684Y0119756D01*
X0051684Y0119975D02*
X0050804Y0119975D01*
X0050804Y0120194D02*
X0051684Y0120194D01*
X0051684Y0120413D02*
X0050804Y0120413D01*
X0050804Y0120632D02*
X0051684Y0120632D01*
X0051684Y0120851D02*
X0050804Y0120851D01*
X0050804Y0121070D02*
X0051684Y0121070D01*
X0051684Y0121289D02*
X0050804Y0121289D01*
X0049716Y0121422D02*
X0049716Y0118442D01*
X0048836Y0118442D01*
X0048836Y0121422D01*
X0049716Y0121422D01*
X0049716Y0118661D02*
X0048836Y0118661D01*
X0048836Y0118880D02*
X0049716Y0118880D01*
X0049716Y0119099D02*
X0048836Y0119099D01*
X0048836Y0119318D02*
X0049716Y0119318D01*
X0049716Y0119537D02*
X0048836Y0119537D01*
X0048836Y0119756D02*
X0049716Y0119756D01*
X0049716Y0119975D02*
X0048836Y0119975D01*
X0048836Y0120194D02*
X0049716Y0120194D01*
X0049716Y0120413D02*
X0048836Y0120413D01*
X0048836Y0120632D02*
X0049716Y0120632D01*
X0049716Y0120851D02*
X0048836Y0120851D01*
X0048836Y0121070D02*
X0049716Y0121070D01*
X0049716Y0121289D02*
X0048836Y0121289D01*
X0047747Y0121422D02*
X0047747Y0118442D01*
X0046867Y0118442D01*
X0046867Y0121422D01*
X0047747Y0121422D01*
X0047747Y0118661D02*
X0046867Y0118661D01*
X0046867Y0118880D02*
X0047747Y0118880D01*
X0047747Y0119099D02*
X0046867Y0119099D01*
X0046867Y0119318D02*
X0047747Y0119318D01*
X0047747Y0119537D02*
X0046867Y0119537D01*
X0046867Y0119756D02*
X0047747Y0119756D01*
X0047747Y0119975D02*
X0046867Y0119975D01*
X0046867Y0120194D02*
X0047747Y0120194D01*
X0047747Y0120413D02*
X0046867Y0120413D01*
X0046867Y0120632D02*
X0047747Y0120632D01*
X0047747Y0120851D02*
X0046867Y0120851D01*
X0046867Y0121070D02*
X0047747Y0121070D01*
X0047747Y0121289D02*
X0046867Y0121289D01*
X0045779Y0121422D02*
X0045779Y0118442D01*
X0044899Y0118442D01*
X0044899Y0121422D01*
X0045779Y0121422D01*
X0045779Y0118661D02*
X0044899Y0118661D01*
X0044899Y0118880D02*
X0045779Y0118880D01*
X0045779Y0119099D02*
X0044899Y0119099D01*
X0044899Y0119318D02*
X0045779Y0119318D01*
X0045779Y0119537D02*
X0044899Y0119537D01*
X0044899Y0119756D02*
X0045779Y0119756D01*
X0045779Y0119975D02*
X0044899Y0119975D01*
X0044899Y0120194D02*
X0045779Y0120194D01*
X0045779Y0120413D02*
X0044899Y0120413D01*
X0044899Y0120632D02*
X0045779Y0120632D01*
X0045779Y0120851D02*
X0044899Y0120851D01*
X0044899Y0121070D02*
X0045779Y0121070D01*
X0045779Y0121289D02*
X0044899Y0121289D01*
X0043810Y0121422D02*
X0043810Y0118442D01*
X0042930Y0118442D01*
X0042930Y0121422D01*
X0043810Y0121422D01*
X0043810Y0118661D02*
X0042930Y0118661D01*
X0042930Y0118880D02*
X0043810Y0118880D01*
X0043810Y0119099D02*
X0042930Y0119099D01*
X0042930Y0119318D02*
X0043810Y0119318D01*
X0043810Y0119537D02*
X0042930Y0119537D01*
X0042930Y0119756D02*
X0043810Y0119756D01*
X0043810Y0119975D02*
X0042930Y0119975D01*
X0042930Y0120194D02*
X0043810Y0120194D01*
X0043810Y0120413D02*
X0042930Y0120413D01*
X0042930Y0120632D02*
X0043810Y0120632D01*
X0043810Y0120851D02*
X0042930Y0120851D01*
X0042930Y0121070D02*
X0043810Y0121070D01*
X0043810Y0121289D02*
X0042930Y0121289D01*
X0041842Y0121422D02*
X0041842Y0118442D01*
X0040962Y0118442D01*
X0040962Y0121422D01*
X0041842Y0121422D01*
X0041842Y0118661D02*
X0040962Y0118661D01*
X0040962Y0118880D02*
X0041842Y0118880D01*
X0041842Y0119099D02*
X0040962Y0119099D01*
X0040962Y0119318D02*
X0041842Y0119318D01*
X0041842Y0119537D02*
X0040962Y0119537D01*
X0040962Y0119756D02*
X0041842Y0119756D01*
X0041842Y0119975D02*
X0040962Y0119975D01*
X0040962Y0120194D02*
X0041842Y0120194D01*
X0041842Y0120413D02*
X0040962Y0120413D01*
X0040962Y0120632D02*
X0041842Y0120632D01*
X0041842Y0120851D02*
X0040962Y0120851D01*
X0040962Y0121070D02*
X0041842Y0121070D01*
X0041842Y0121289D02*
X0040962Y0121289D01*
X0039873Y0121422D02*
X0039873Y0118442D01*
X0038993Y0118442D01*
X0038993Y0121422D01*
X0039873Y0121422D01*
X0039873Y0118661D02*
X0038993Y0118661D01*
X0038993Y0118880D02*
X0039873Y0118880D01*
X0039873Y0119099D02*
X0038993Y0119099D01*
X0038993Y0119318D02*
X0039873Y0119318D01*
X0039873Y0119537D02*
X0038993Y0119537D01*
X0038993Y0119756D02*
X0039873Y0119756D01*
X0039873Y0119975D02*
X0038993Y0119975D01*
X0038993Y0120194D02*
X0039873Y0120194D01*
X0039873Y0120413D02*
X0038993Y0120413D01*
X0038993Y0120632D02*
X0039873Y0120632D01*
X0039873Y0120851D02*
X0038993Y0120851D01*
X0038993Y0121070D02*
X0039873Y0121070D01*
X0039873Y0121289D02*
X0038993Y0121289D01*
X0037905Y0121422D02*
X0037905Y0118442D01*
X0037025Y0118442D01*
X0037025Y0121422D01*
X0037905Y0121422D01*
X0037905Y0118661D02*
X0037025Y0118661D01*
X0037025Y0118880D02*
X0037905Y0118880D01*
X0037905Y0119099D02*
X0037025Y0119099D01*
X0037025Y0119318D02*
X0037905Y0119318D01*
X0037905Y0119537D02*
X0037025Y0119537D01*
X0037025Y0119756D02*
X0037905Y0119756D01*
X0037905Y0119975D02*
X0037025Y0119975D01*
X0037025Y0120194D02*
X0037905Y0120194D01*
X0037905Y0120413D02*
X0037025Y0120413D01*
X0037025Y0120632D02*
X0037905Y0120632D01*
X0037905Y0120851D02*
X0037025Y0120851D01*
X0037025Y0121070D02*
X0037905Y0121070D01*
X0037905Y0121289D02*
X0037025Y0121289D01*
X0036002Y0122445D02*
X0033022Y0122445D01*
X0033022Y0123325D01*
X0036002Y0123325D01*
X0036002Y0122445D01*
X0036002Y0122664D02*
X0033022Y0122664D01*
X0033022Y0122883D02*
X0036002Y0122883D01*
X0036002Y0123102D02*
X0033022Y0123102D01*
X0033022Y0123321D02*
X0036002Y0123321D01*
X0036002Y0124413D02*
X0033022Y0124413D01*
X0033022Y0125293D01*
X0036002Y0125293D01*
X0036002Y0124413D01*
X0036002Y0124632D02*
X0033022Y0124632D01*
X0033022Y0124851D02*
X0036002Y0124851D01*
X0036002Y0125070D02*
X0033022Y0125070D01*
X0033022Y0125289D02*
X0036002Y0125289D01*
X0036002Y0126382D02*
X0033022Y0126382D01*
X0033022Y0127262D01*
X0036002Y0127262D01*
X0036002Y0126382D01*
X0036002Y0126601D02*
X0033022Y0126601D01*
X0033022Y0126820D02*
X0036002Y0126820D01*
X0036002Y0127039D02*
X0033022Y0127039D01*
X0033022Y0127258D02*
X0036002Y0127258D01*
X0036002Y0128350D02*
X0033022Y0128350D01*
X0033022Y0129230D01*
X0036002Y0129230D01*
X0036002Y0128350D01*
X0036002Y0128569D02*
X0033022Y0128569D01*
X0033022Y0128788D02*
X0036002Y0128788D01*
X0036002Y0129007D02*
X0033022Y0129007D01*
X0033022Y0129226D02*
X0036002Y0129226D01*
X0036002Y0130319D02*
X0033022Y0130319D01*
X0033022Y0131199D01*
X0036002Y0131199D01*
X0036002Y0130319D01*
X0036002Y0130538D02*
X0033022Y0130538D01*
X0033022Y0130757D02*
X0036002Y0130757D01*
X0036002Y0130976D02*
X0033022Y0130976D01*
X0033022Y0131195D02*
X0036002Y0131195D01*
X0036002Y0132287D02*
X0033022Y0132287D01*
X0033022Y0133167D01*
X0036002Y0133167D01*
X0036002Y0132287D01*
X0036002Y0132506D02*
X0033022Y0132506D01*
X0033022Y0132725D02*
X0036002Y0132725D01*
X0036002Y0132944D02*
X0033022Y0132944D01*
X0033022Y0133163D02*
X0036002Y0133163D01*
X0036002Y0134256D02*
X0033022Y0134256D01*
X0033022Y0135136D01*
X0036002Y0135136D01*
X0036002Y0134256D01*
X0036002Y0134475D02*
X0033022Y0134475D01*
X0033022Y0134694D02*
X0036002Y0134694D01*
X0036002Y0134913D02*
X0033022Y0134913D01*
X0033022Y0135132D02*
X0036002Y0135132D01*
X0036002Y0136224D02*
X0033022Y0136224D01*
X0033022Y0137104D01*
X0036002Y0137104D01*
X0036002Y0136224D01*
X0036002Y0136443D02*
X0033022Y0136443D01*
X0033022Y0136662D02*
X0036002Y0136662D01*
X0036002Y0136881D02*
X0033022Y0136881D01*
X0033022Y0137100D02*
X0036002Y0137100D01*
X0037025Y0138127D02*
X0037025Y0141107D01*
X0037905Y0141107D01*
X0037905Y0138127D01*
X0037025Y0138127D01*
X0037025Y0138346D02*
X0037905Y0138346D01*
X0037905Y0138565D02*
X0037025Y0138565D01*
X0037025Y0138784D02*
X0037905Y0138784D01*
X0037905Y0139003D02*
X0037025Y0139003D01*
X0037025Y0139222D02*
X0037905Y0139222D01*
X0037905Y0139441D02*
X0037025Y0139441D01*
X0037025Y0139660D02*
X0037905Y0139660D01*
X0037905Y0139879D02*
X0037025Y0139879D01*
X0037025Y0140098D02*
X0037905Y0140098D01*
X0037905Y0140317D02*
X0037025Y0140317D01*
X0037025Y0140536D02*
X0037905Y0140536D01*
X0037905Y0140755D02*
X0037025Y0140755D01*
X0037025Y0140974D02*
X0037905Y0140974D01*
X0038993Y0141107D02*
X0038993Y0138127D01*
X0038993Y0141107D02*
X0039873Y0141107D01*
X0039873Y0138127D01*
X0038993Y0138127D01*
X0038993Y0138346D02*
X0039873Y0138346D01*
X0039873Y0138565D02*
X0038993Y0138565D01*
X0038993Y0138784D02*
X0039873Y0138784D01*
X0039873Y0139003D02*
X0038993Y0139003D01*
X0038993Y0139222D02*
X0039873Y0139222D01*
X0039873Y0139441D02*
X0038993Y0139441D01*
X0038993Y0139660D02*
X0039873Y0139660D01*
X0039873Y0139879D02*
X0038993Y0139879D01*
X0038993Y0140098D02*
X0039873Y0140098D01*
X0039873Y0140317D02*
X0038993Y0140317D01*
X0038993Y0140536D02*
X0039873Y0140536D01*
X0039873Y0140755D02*
X0038993Y0140755D01*
X0038993Y0140974D02*
X0039873Y0140974D01*
X0040962Y0141107D02*
X0040962Y0138127D01*
X0040962Y0141107D02*
X0041842Y0141107D01*
X0041842Y0138127D01*
X0040962Y0138127D01*
X0040962Y0138346D02*
X0041842Y0138346D01*
X0041842Y0138565D02*
X0040962Y0138565D01*
X0040962Y0138784D02*
X0041842Y0138784D01*
X0041842Y0139003D02*
X0040962Y0139003D01*
X0040962Y0139222D02*
X0041842Y0139222D01*
X0041842Y0139441D02*
X0040962Y0139441D01*
X0040962Y0139660D02*
X0041842Y0139660D01*
X0041842Y0139879D02*
X0040962Y0139879D01*
X0040962Y0140098D02*
X0041842Y0140098D01*
X0041842Y0140317D02*
X0040962Y0140317D01*
X0040962Y0140536D02*
X0041842Y0140536D01*
X0041842Y0140755D02*
X0040962Y0140755D01*
X0040962Y0140974D02*
X0041842Y0140974D01*
X0042930Y0141107D02*
X0042930Y0138127D01*
X0042930Y0141107D02*
X0043810Y0141107D01*
X0043810Y0138127D01*
X0042930Y0138127D01*
X0042930Y0138346D02*
X0043810Y0138346D01*
X0043810Y0138565D02*
X0042930Y0138565D01*
X0042930Y0138784D02*
X0043810Y0138784D01*
X0043810Y0139003D02*
X0042930Y0139003D01*
X0042930Y0139222D02*
X0043810Y0139222D01*
X0043810Y0139441D02*
X0042930Y0139441D01*
X0042930Y0139660D02*
X0043810Y0139660D01*
X0043810Y0139879D02*
X0042930Y0139879D01*
X0042930Y0140098D02*
X0043810Y0140098D01*
X0043810Y0140317D02*
X0042930Y0140317D01*
X0042930Y0140536D02*
X0043810Y0140536D01*
X0043810Y0140755D02*
X0042930Y0140755D01*
X0042930Y0140974D02*
X0043810Y0140974D01*
X0044899Y0141107D02*
X0044899Y0138127D01*
X0044899Y0141107D02*
X0045779Y0141107D01*
X0045779Y0138127D01*
X0044899Y0138127D01*
X0044899Y0138346D02*
X0045779Y0138346D01*
X0045779Y0138565D02*
X0044899Y0138565D01*
X0044899Y0138784D02*
X0045779Y0138784D01*
X0045779Y0139003D02*
X0044899Y0139003D01*
X0044899Y0139222D02*
X0045779Y0139222D01*
X0045779Y0139441D02*
X0044899Y0139441D01*
X0044899Y0139660D02*
X0045779Y0139660D01*
X0045779Y0139879D02*
X0044899Y0139879D01*
X0044899Y0140098D02*
X0045779Y0140098D01*
X0045779Y0140317D02*
X0044899Y0140317D01*
X0044899Y0140536D02*
X0045779Y0140536D01*
X0045779Y0140755D02*
X0044899Y0140755D01*
X0044899Y0140974D02*
X0045779Y0140974D01*
X0046867Y0141107D02*
X0046867Y0138127D01*
X0046867Y0141107D02*
X0047747Y0141107D01*
X0047747Y0138127D01*
X0046867Y0138127D01*
X0046867Y0138346D02*
X0047747Y0138346D01*
X0047747Y0138565D02*
X0046867Y0138565D01*
X0046867Y0138784D02*
X0047747Y0138784D01*
X0047747Y0139003D02*
X0046867Y0139003D01*
X0046867Y0139222D02*
X0047747Y0139222D01*
X0047747Y0139441D02*
X0046867Y0139441D01*
X0046867Y0139660D02*
X0047747Y0139660D01*
X0047747Y0139879D02*
X0046867Y0139879D01*
X0046867Y0140098D02*
X0047747Y0140098D01*
X0047747Y0140317D02*
X0046867Y0140317D01*
X0046867Y0140536D02*
X0047747Y0140536D01*
X0047747Y0140755D02*
X0046867Y0140755D01*
X0046867Y0140974D02*
X0047747Y0140974D01*
X0048836Y0141107D02*
X0048836Y0138127D01*
X0048836Y0141107D02*
X0049716Y0141107D01*
X0049716Y0138127D01*
X0048836Y0138127D01*
X0048836Y0138346D02*
X0049716Y0138346D01*
X0049716Y0138565D02*
X0048836Y0138565D01*
X0048836Y0138784D02*
X0049716Y0138784D01*
X0049716Y0139003D02*
X0048836Y0139003D01*
X0048836Y0139222D02*
X0049716Y0139222D01*
X0049716Y0139441D02*
X0048836Y0139441D01*
X0048836Y0139660D02*
X0049716Y0139660D01*
X0049716Y0139879D02*
X0048836Y0139879D01*
X0048836Y0140098D02*
X0049716Y0140098D01*
X0049716Y0140317D02*
X0048836Y0140317D01*
X0048836Y0140536D02*
X0049716Y0140536D01*
X0049716Y0140755D02*
X0048836Y0140755D01*
X0048836Y0140974D02*
X0049716Y0140974D01*
X0050804Y0141107D02*
X0050804Y0138127D01*
X0050804Y0141107D02*
X0051684Y0141107D01*
X0051684Y0138127D01*
X0050804Y0138127D01*
X0050804Y0138346D02*
X0051684Y0138346D01*
X0051684Y0138565D02*
X0050804Y0138565D01*
X0050804Y0138784D02*
X0051684Y0138784D01*
X0051684Y0139003D02*
X0050804Y0139003D01*
X0050804Y0139222D02*
X0051684Y0139222D01*
X0051684Y0139441D02*
X0050804Y0139441D01*
X0050804Y0139660D02*
X0051684Y0139660D01*
X0051684Y0139879D02*
X0050804Y0139879D01*
X0050804Y0140098D02*
X0051684Y0140098D01*
X0051684Y0140317D02*
X0050804Y0140317D01*
X0050804Y0140536D02*
X0051684Y0140536D01*
X0051684Y0140755D02*
X0050804Y0140755D01*
X0050804Y0140974D02*
X0051684Y0140974D01*
D18*
X0093843Y0114617D03*
X0093843Y0105562D03*
X0108410Y0105562D03*
X0108410Y0114617D03*
X0035181Y0069066D03*
X0035181Y0060011D03*
X0020614Y0060011D03*
X0020614Y0069066D03*
D19*
X0016953Y0088318D03*
X0016953Y0092058D03*
X0016953Y0095798D03*
X0027190Y0095798D03*
X0027190Y0088318D03*
X0027189Y0026507D03*
X0027189Y0022767D03*
X0027189Y0019026D03*
X0037426Y0019026D03*
X0037426Y0026507D03*
D20*
X0009211Y0086957D02*
X0009211Y0089583D01*
X0009211Y0086957D02*
X0006585Y0086957D01*
X0006585Y0089583D01*
X0009211Y0089583D01*
X0009211Y0087831D02*
X0006585Y0087831D01*
X0006585Y0088705D02*
X0009211Y0088705D01*
X0009211Y0089579D02*
X0006585Y0089579D01*
X0009211Y0092957D02*
X0009211Y0095583D01*
X0009211Y0092957D02*
X0006585Y0092957D01*
X0006585Y0095583D01*
X0009211Y0095583D01*
X0009211Y0093831D02*
X0006585Y0093831D01*
X0006585Y0094705D02*
X0009211Y0094705D01*
X0009211Y0095579D02*
X0006585Y0095579D01*
X0019727Y0104001D02*
X0022353Y0104001D01*
X0022353Y0101375D01*
X0019727Y0101375D01*
X0019727Y0104001D01*
X0019727Y0102249D02*
X0022353Y0102249D01*
X0022353Y0103123D02*
X0019727Y0103123D01*
X0019727Y0103997D02*
X0022353Y0103997D01*
X0025727Y0104001D02*
X0028353Y0104001D01*
X0028353Y0101375D01*
X0025727Y0101375D01*
X0025727Y0104001D01*
X0025727Y0102249D02*
X0028353Y0102249D01*
X0028353Y0103123D02*
X0025727Y0103123D01*
X0025727Y0103997D02*
X0028353Y0103997D01*
M02*
