G75*
%MOIN*%
%OFA0B0*%
%FSLAX25Y25*%
%IPPOS*%
%LPD*%
%AMOC8*
5,1,8,0,0,1.08239X$1,22.5*
%
%ADD10C,0.00000*%
%ADD11C,0.01450*%
%ADD12C,0.01100*%
%ADD13R,0.06400X0.16400*%
%ADD14R,0.07800X0.07800*%
%ADD15C,0.07800*%
%ADD16R,0.01384X0.04337*%
%ADD17R,0.04337X0.01384*%
%ADD18R,0.28943X0.28943*%
%ADD19C,0.00300*%
%ADD20C,0.01390*%
%ADD21R,0.07880X0.04731*%
%ADD22R,0.05124X0.03117*%
%ADD23C,0.00975*%
D10*
X0002386Y0002294D02*
X0002386Y0199144D01*
X0199236Y0199144D01*
X0199236Y0002294D01*
X0002386Y0002294D01*
D11*
X0019378Y0022260D02*
X0019378Y0023710D01*
X0020828Y0023710D01*
X0020828Y0022260D01*
X0019378Y0022260D01*
X0019378Y0023709D02*
X0020828Y0023709D01*
X0019378Y0025760D02*
X0019378Y0027210D01*
X0020828Y0027210D01*
X0020828Y0025760D01*
X0019378Y0025760D01*
X0019378Y0027209D02*
X0020828Y0027209D01*
X0024596Y0033892D02*
X0024596Y0035342D01*
X0026046Y0035342D01*
X0026046Y0033892D01*
X0024596Y0033892D01*
X0024596Y0035341D02*
X0026046Y0035341D01*
X0028096Y0035342D02*
X0028096Y0033892D01*
X0028096Y0035342D02*
X0029546Y0035342D01*
X0029546Y0033892D01*
X0028096Y0033892D01*
X0028096Y0035341D02*
X0029546Y0035341D01*
X0028057Y0038223D02*
X0028057Y0039673D01*
X0029507Y0039673D01*
X0029507Y0038223D01*
X0028057Y0038223D01*
X0028057Y0039672D02*
X0029507Y0039672D01*
X0028017Y0042947D02*
X0028017Y0044397D01*
X0029467Y0044397D01*
X0029467Y0042947D01*
X0028017Y0042947D01*
X0028017Y0044396D02*
X0029467Y0044396D01*
X0027978Y0047671D02*
X0027978Y0049121D01*
X0029428Y0049121D01*
X0029428Y0047671D01*
X0027978Y0047671D01*
X0027978Y0049120D02*
X0029428Y0049120D01*
X0027939Y0052396D02*
X0027939Y0053846D01*
X0029389Y0053846D01*
X0029389Y0052396D01*
X0027939Y0052396D01*
X0027939Y0053845D02*
X0029389Y0053845D01*
X0024439Y0053846D02*
X0024439Y0052396D01*
X0024439Y0053846D02*
X0025889Y0053846D01*
X0025889Y0052396D01*
X0024439Y0052396D01*
X0024439Y0053845D02*
X0025889Y0053845D01*
X0024478Y0049121D02*
X0024478Y0047671D01*
X0024478Y0049121D02*
X0025928Y0049121D01*
X0025928Y0047671D01*
X0024478Y0047671D01*
X0024478Y0049120D02*
X0025928Y0049120D01*
X0024517Y0044397D02*
X0024517Y0042947D01*
X0024517Y0044397D02*
X0025967Y0044397D01*
X0025967Y0042947D01*
X0024517Y0042947D01*
X0024517Y0044396D02*
X0025967Y0044396D01*
X0024557Y0039673D02*
X0024557Y0038223D01*
X0024557Y0039673D02*
X0026007Y0039673D01*
X0026007Y0038223D01*
X0024557Y0038223D01*
X0024557Y0039672D02*
X0026007Y0039672D01*
X0033218Y0039555D02*
X0034668Y0039555D01*
X0034668Y0038105D01*
X0033218Y0038105D01*
X0033218Y0039555D01*
X0033218Y0039554D02*
X0034668Y0039554D01*
X0036718Y0039555D02*
X0038168Y0039555D01*
X0038168Y0038105D01*
X0036718Y0038105D01*
X0036718Y0039555D01*
X0036718Y0039554D02*
X0038168Y0039554D01*
X0038129Y0044279D02*
X0036679Y0044279D01*
X0038129Y0044279D02*
X0038129Y0042829D01*
X0036679Y0042829D01*
X0036679Y0044279D01*
X0036679Y0044278D02*
X0038129Y0044278D01*
X0038089Y0049003D02*
X0036639Y0049003D01*
X0038089Y0049003D02*
X0038089Y0047553D01*
X0036639Y0047553D01*
X0036639Y0049003D01*
X0036639Y0049002D02*
X0038089Y0049002D01*
X0038444Y0053728D02*
X0036994Y0053728D01*
X0038444Y0053728D02*
X0038444Y0052278D01*
X0036994Y0052278D01*
X0036994Y0053728D01*
X0036994Y0053727D02*
X0038444Y0053727D01*
X0034944Y0053728D02*
X0033494Y0053728D01*
X0034944Y0053728D02*
X0034944Y0052278D01*
X0033494Y0052278D01*
X0033494Y0053728D01*
X0033494Y0053727D02*
X0034944Y0053727D01*
X0034589Y0049003D02*
X0033139Y0049003D01*
X0034589Y0049003D02*
X0034589Y0047553D01*
X0033139Y0047553D01*
X0033139Y0049003D01*
X0033139Y0049002D02*
X0034589Y0049002D01*
X0034629Y0044279D02*
X0033179Y0044279D01*
X0034629Y0044279D02*
X0034629Y0042829D01*
X0033179Y0042829D01*
X0033179Y0044279D01*
X0033179Y0044278D02*
X0034629Y0044278D01*
X0034708Y0035224D02*
X0033258Y0035224D01*
X0034708Y0035224D02*
X0034708Y0033774D01*
X0033258Y0033774D01*
X0033258Y0035224D01*
X0033258Y0035223D02*
X0034708Y0035223D01*
X0036758Y0035224D02*
X0038208Y0035224D01*
X0038208Y0033774D01*
X0036758Y0033774D01*
X0036758Y0035224D01*
X0036758Y0035223D02*
X0038208Y0035223D01*
X0043393Y0023667D02*
X0043393Y0022217D01*
X0043393Y0023667D02*
X0044843Y0023667D01*
X0044843Y0022217D01*
X0043393Y0022217D01*
X0043393Y0023666D02*
X0044843Y0023666D01*
X0043393Y0020167D02*
X0043393Y0018717D01*
X0043393Y0020167D02*
X0044843Y0020167D01*
X0044843Y0018717D01*
X0043393Y0018717D01*
X0043393Y0020166D02*
X0044843Y0020166D01*
X0069647Y0044701D02*
X0069647Y0046151D01*
X0069647Y0044701D02*
X0068197Y0044701D01*
X0068197Y0046151D01*
X0069647Y0046151D01*
X0069647Y0046150D02*
X0068197Y0046150D01*
X0069647Y0048201D02*
X0069647Y0049651D01*
X0069647Y0048201D02*
X0068197Y0048201D01*
X0068197Y0049651D01*
X0069647Y0049651D01*
X0069647Y0049650D02*
X0068197Y0049650D01*
X0075119Y0063284D02*
X0075119Y0064734D01*
X0075119Y0063284D02*
X0073669Y0063284D01*
X0073669Y0064734D01*
X0075119Y0064734D01*
X0075119Y0064733D02*
X0073669Y0064733D01*
X0075119Y0066784D02*
X0075119Y0068234D01*
X0075119Y0066784D02*
X0073669Y0066784D01*
X0073669Y0068234D01*
X0075119Y0068234D01*
X0075119Y0068233D02*
X0073669Y0068233D01*
X0076683Y0077632D02*
X0078133Y0077632D01*
X0076683Y0077632D02*
X0076683Y0079082D01*
X0078133Y0079082D01*
X0078133Y0077632D01*
X0078133Y0079081D02*
X0076683Y0079081D01*
X0076722Y0081963D02*
X0078172Y0081963D01*
X0076722Y0081963D02*
X0076722Y0083413D01*
X0078172Y0083413D01*
X0078172Y0081963D01*
X0078172Y0083412D02*
X0076722Y0083412D01*
X0080222Y0081963D02*
X0081672Y0081963D01*
X0080222Y0081963D02*
X0080222Y0083413D01*
X0081672Y0083413D01*
X0081672Y0081963D01*
X0081672Y0083412D02*
X0080222Y0083412D01*
X0080183Y0077632D02*
X0081633Y0077632D01*
X0080183Y0077632D02*
X0080183Y0079082D01*
X0081633Y0079082D01*
X0081633Y0077632D01*
X0081633Y0079081D02*
X0080183Y0079081D01*
X0094006Y0084640D02*
X0095456Y0084640D01*
X0094006Y0084640D02*
X0094006Y0086090D01*
X0095456Y0086090D01*
X0095456Y0084640D01*
X0095456Y0086089D02*
X0094006Y0086089D01*
X0097506Y0084640D02*
X0098956Y0084640D01*
X0097506Y0084640D02*
X0097506Y0086090D01*
X0098956Y0086090D01*
X0098956Y0084640D01*
X0098956Y0086089D02*
X0097506Y0086089D01*
X0102875Y0087099D02*
X0102875Y0088549D01*
X0102875Y0087099D02*
X0101425Y0087099D01*
X0101425Y0088549D01*
X0102875Y0088549D01*
X0102875Y0088548D02*
X0101425Y0088548D01*
X0102875Y0085049D02*
X0102875Y0083599D01*
X0101425Y0083599D01*
X0101425Y0085049D01*
X0102875Y0085049D01*
X0102875Y0085048D02*
X0101425Y0085048D01*
X0105283Y0085049D02*
X0105283Y0083599D01*
X0105283Y0085049D02*
X0106733Y0085049D01*
X0106733Y0083599D01*
X0105283Y0083599D01*
X0105283Y0085048D02*
X0106733Y0085048D01*
X0105283Y0087099D02*
X0105283Y0088549D01*
X0106733Y0088549D01*
X0106733Y0087099D01*
X0105283Y0087099D01*
X0105283Y0088548D02*
X0106733Y0088548D01*
X0109220Y0088509D02*
X0109220Y0087059D01*
X0109220Y0088509D02*
X0110670Y0088509D01*
X0110670Y0087059D01*
X0109220Y0087059D01*
X0109220Y0088508D02*
X0110670Y0088508D01*
X0109220Y0085009D02*
X0109220Y0083559D01*
X0109220Y0085009D02*
X0110670Y0085009D01*
X0110670Y0083559D01*
X0109220Y0083559D01*
X0109220Y0085008D02*
X0110670Y0085008D01*
X0116092Y0077350D02*
X0117542Y0077350D01*
X0117542Y0075900D01*
X0116092Y0075900D01*
X0116092Y0077350D01*
X0116092Y0077349D02*
X0117542Y0077349D01*
X0119592Y0077350D02*
X0121042Y0077350D01*
X0121042Y0075900D01*
X0119592Y0075900D01*
X0119592Y0077350D01*
X0119592Y0077349D02*
X0121042Y0077349D01*
X0125158Y0068785D02*
X0125158Y0067335D01*
X0123708Y0067335D01*
X0123708Y0068785D01*
X0125158Y0068785D01*
X0125158Y0068784D02*
X0123708Y0068784D01*
X0125158Y0065285D02*
X0125158Y0063835D01*
X0123708Y0063835D01*
X0123708Y0065285D01*
X0125158Y0065285D01*
X0125158Y0065284D02*
X0123708Y0065284D01*
X0138494Y0064168D02*
X0139944Y0064168D01*
X0138494Y0064168D02*
X0138494Y0065618D01*
X0139944Y0065618D01*
X0139944Y0064168D01*
X0139944Y0065617D02*
X0138494Y0065617D01*
X0138573Y0068341D02*
X0140023Y0068341D01*
X0138573Y0068341D02*
X0138573Y0069791D01*
X0140023Y0069791D01*
X0140023Y0068341D01*
X0140023Y0069790D02*
X0138573Y0069790D01*
X0142073Y0068341D02*
X0143523Y0068341D01*
X0142073Y0068341D02*
X0142073Y0069791D01*
X0143523Y0069791D01*
X0143523Y0068341D01*
X0143523Y0069790D02*
X0142073Y0069790D01*
X0141994Y0064168D02*
X0143444Y0064168D01*
X0141994Y0064168D02*
X0141994Y0065618D01*
X0143444Y0065618D01*
X0143444Y0064168D01*
X0143444Y0065617D02*
X0141994Y0065617D01*
X0141994Y0059837D02*
X0143444Y0059837D01*
X0141994Y0059837D02*
X0141994Y0061287D01*
X0143444Y0061287D01*
X0143444Y0059837D01*
X0143444Y0061286D02*
X0141994Y0061286D01*
X0139944Y0059837D02*
X0138494Y0059837D01*
X0138494Y0061287D01*
X0139944Y0061287D01*
X0139944Y0059837D01*
X0139944Y0061286D02*
X0138494Y0061286D01*
X0138723Y0051608D02*
X0137273Y0051608D01*
X0137273Y0053058D01*
X0138723Y0053058D01*
X0138723Y0051608D01*
X0138723Y0053057D02*
X0137273Y0053057D01*
X0140773Y0051608D02*
X0142223Y0051608D01*
X0140773Y0051608D02*
X0140773Y0053058D01*
X0142223Y0053058D01*
X0142223Y0051608D01*
X0142223Y0053057D02*
X0140773Y0053057D01*
X0118197Y0027604D02*
X0118197Y0026154D01*
X0118197Y0027604D02*
X0119647Y0027604D01*
X0119647Y0026154D01*
X0118197Y0026154D01*
X0118197Y0027603D02*
X0119647Y0027603D01*
X0118197Y0024104D02*
X0118197Y0022654D01*
X0118197Y0024104D02*
X0119647Y0024104D01*
X0119647Y0022654D01*
X0118197Y0022654D01*
X0118197Y0024103D02*
X0119647Y0024103D01*
X0114102Y0024104D02*
X0114102Y0022654D01*
X0114102Y0024104D02*
X0115552Y0024104D01*
X0115552Y0022654D01*
X0114102Y0022654D01*
X0114102Y0024103D02*
X0115552Y0024103D01*
X0114102Y0026154D02*
X0114102Y0027604D01*
X0115552Y0027604D01*
X0115552Y0026154D01*
X0114102Y0026154D01*
X0114102Y0027603D02*
X0115552Y0027603D01*
X0110165Y0027564D02*
X0110165Y0026114D01*
X0110165Y0027564D02*
X0111615Y0027564D01*
X0111615Y0026114D01*
X0110165Y0026114D01*
X0110165Y0027563D02*
X0111615Y0027563D01*
X0110165Y0024064D02*
X0110165Y0022614D01*
X0110165Y0024064D02*
X0111615Y0024064D01*
X0111615Y0022614D01*
X0110165Y0022614D01*
X0110165Y0024063D02*
X0111615Y0024063D01*
X0107223Y0028177D02*
X0105773Y0028177D01*
X0107223Y0028177D02*
X0107223Y0026727D01*
X0105773Y0026727D01*
X0105773Y0028177D01*
X0105773Y0028176D02*
X0107223Y0028176D01*
X0103723Y0028177D02*
X0102273Y0028177D01*
X0103723Y0028177D02*
X0103723Y0026727D01*
X0102273Y0026727D01*
X0102273Y0028177D01*
X0102273Y0028176D02*
X0103723Y0028176D01*
X0098129Y0028177D02*
X0096679Y0028177D01*
X0098129Y0028177D02*
X0098129Y0026727D01*
X0096679Y0026727D01*
X0096679Y0028177D01*
X0096679Y0028176D02*
X0098129Y0028176D01*
X0094629Y0028177D02*
X0093179Y0028177D01*
X0094629Y0028177D02*
X0094629Y0026727D01*
X0093179Y0026727D01*
X0093179Y0028177D01*
X0093179Y0028176D02*
X0094629Y0028176D01*
X0090828Y0026344D02*
X0090828Y0024894D01*
X0089378Y0024894D01*
X0089378Y0026344D01*
X0090828Y0026344D01*
X0090828Y0026343D02*
X0089378Y0026343D01*
X0090828Y0022844D02*
X0090828Y0021394D01*
X0089378Y0021394D01*
X0089378Y0022844D01*
X0090828Y0022844D01*
X0090828Y0022843D02*
X0089378Y0022843D01*
X0092391Y0014404D02*
X0093841Y0014404D01*
X0092391Y0014404D02*
X0092391Y0015854D01*
X0093841Y0015854D01*
X0093841Y0014404D01*
X0093841Y0015853D02*
X0092391Y0015853D01*
X0095891Y0014404D02*
X0097341Y0014404D01*
X0095891Y0014404D02*
X0095891Y0015854D01*
X0097341Y0015854D01*
X0097341Y0014404D01*
X0097341Y0015853D02*
X0095891Y0015853D01*
X0046121Y0068341D02*
X0044671Y0068341D01*
X0044671Y0069791D01*
X0046121Y0069791D01*
X0046121Y0068341D01*
X0046121Y0069790D02*
X0044671Y0069790D01*
X0042621Y0068341D02*
X0041171Y0068341D01*
X0041171Y0069791D01*
X0042621Y0069791D01*
X0042621Y0068341D01*
X0042621Y0069790D02*
X0041171Y0069790D01*
X0014979Y0054561D02*
X0013529Y0054561D01*
X0013529Y0056011D01*
X0014979Y0056011D01*
X0014979Y0054561D01*
X0014979Y0056010D02*
X0013529Y0056010D01*
X0011479Y0054561D02*
X0010029Y0054561D01*
X0010029Y0056011D01*
X0011479Y0056011D01*
X0011479Y0054561D01*
X0011479Y0056010D02*
X0010029Y0056010D01*
X0011779Y0064583D02*
X0011779Y0066033D01*
X0013229Y0066033D01*
X0013229Y0064583D01*
X0011779Y0064583D01*
X0011779Y0066032D02*
X0013229Y0066032D01*
X0011779Y0068083D02*
X0011779Y0069533D01*
X0013229Y0069533D01*
X0013229Y0068083D01*
X0011779Y0068083D01*
X0011779Y0069532D02*
X0013229Y0069532D01*
X0011740Y0072811D02*
X0011740Y0074261D01*
X0013190Y0074261D01*
X0013190Y0072811D01*
X0011740Y0072811D01*
X0011740Y0074260D02*
X0013190Y0074260D01*
X0011740Y0076311D02*
X0011740Y0077761D01*
X0013190Y0077761D01*
X0013190Y0076311D01*
X0011740Y0076311D01*
X0011740Y0077760D02*
X0013190Y0077760D01*
X0046937Y0108677D02*
X0046937Y0110127D01*
X0048387Y0110127D01*
X0048387Y0108677D01*
X0046937Y0108677D01*
X0046937Y0110126D02*
X0048387Y0110126D01*
X0046937Y0112177D02*
X0046937Y0113627D01*
X0048387Y0113627D01*
X0048387Y0112177D01*
X0046937Y0112177D01*
X0046937Y0113626D02*
X0048387Y0113626D01*
X0050480Y0113588D02*
X0050480Y0112138D01*
X0050480Y0113588D02*
X0051930Y0113588D01*
X0051930Y0112138D01*
X0050480Y0112138D01*
X0050480Y0113587D02*
X0051930Y0113587D01*
X0056773Y0113588D02*
X0056773Y0112138D01*
X0055323Y0112138D01*
X0055323Y0113588D01*
X0056773Y0113588D01*
X0056773Y0113587D02*
X0055323Y0113587D01*
X0056773Y0110088D02*
X0056773Y0108638D01*
X0055323Y0108638D01*
X0055323Y0110088D01*
X0056773Y0110088D01*
X0056773Y0110087D02*
X0055323Y0110087D01*
X0050480Y0110088D02*
X0050480Y0108638D01*
X0050480Y0110088D02*
X0051930Y0110088D01*
X0051930Y0108638D01*
X0050480Y0108638D01*
X0050480Y0110087D02*
X0051930Y0110087D01*
X0062391Y0116530D02*
X0063841Y0116530D01*
X0062391Y0116530D02*
X0062391Y0117980D01*
X0063841Y0117980D01*
X0063841Y0116530D01*
X0063841Y0117979D02*
X0062391Y0117979D01*
X0062431Y0120073D02*
X0063881Y0120073D01*
X0062431Y0120073D02*
X0062431Y0121523D01*
X0063881Y0121523D01*
X0063881Y0120073D01*
X0063881Y0121522D02*
X0062431Y0121522D01*
X0062470Y0123616D02*
X0063920Y0123616D01*
X0062470Y0123616D02*
X0062470Y0125066D01*
X0063920Y0125066D01*
X0063920Y0123616D01*
X0063920Y0125065D02*
X0062470Y0125065D01*
X0062510Y0127160D02*
X0063960Y0127160D01*
X0062510Y0127160D02*
X0062510Y0128610D01*
X0063960Y0128610D01*
X0063960Y0127160D01*
X0063960Y0128609D02*
X0062510Y0128609D01*
X0062155Y0131490D02*
X0063605Y0131490D01*
X0062155Y0131490D02*
X0062155Y0132940D01*
X0063605Y0132940D01*
X0063605Y0131490D01*
X0063605Y0132939D02*
X0062155Y0132939D01*
X0062195Y0135821D02*
X0063645Y0135821D01*
X0062195Y0135821D02*
X0062195Y0137271D01*
X0063645Y0137271D01*
X0063645Y0135821D01*
X0063645Y0137270D02*
X0062195Y0137270D01*
X0062234Y0140152D02*
X0063684Y0140152D01*
X0062234Y0140152D02*
X0062234Y0141602D01*
X0063684Y0141602D01*
X0063684Y0140152D01*
X0063684Y0141601D02*
X0062234Y0141601D01*
X0062234Y0144719D02*
X0063684Y0144719D01*
X0062234Y0144719D02*
X0062234Y0146169D01*
X0063684Y0146169D01*
X0063684Y0144719D01*
X0063684Y0146168D02*
X0062234Y0146168D01*
X0065734Y0144719D02*
X0067184Y0144719D01*
X0065734Y0144719D02*
X0065734Y0146169D01*
X0067184Y0146169D01*
X0067184Y0144719D01*
X0067184Y0146168D02*
X0065734Y0146168D01*
X0065734Y0140152D02*
X0067184Y0140152D01*
X0065734Y0140152D02*
X0065734Y0141602D01*
X0067184Y0141602D01*
X0067184Y0140152D01*
X0067184Y0141601D02*
X0065734Y0141601D01*
X0065695Y0135821D02*
X0067145Y0135821D01*
X0065695Y0135821D02*
X0065695Y0137271D01*
X0067145Y0137271D01*
X0067145Y0135821D01*
X0067145Y0137270D02*
X0065695Y0137270D01*
X0065655Y0131490D02*
X0067105Y0131490D01*
X0065655Y0131490D02*
X0065655Y0132940D01*
X0067105Y0132940D01*
X0067105Y0131490D01*
X0067105Y0132939D02*
X0065655Y0132939D01*
X0071440Y0132822D02*
X0071440Y0131372D01*
X0069990Y0131372D01*
X0069990Y0132822D01*
X0071440Y0132822D01*
X0071440Y0132821D02*
X0069990Y0132821D01*
X0071479Y0135703D02*
X0071479Y0137153D01*
X0071479Y0135703D02*
X0070029Y0135703D01*
X0070029Y0137153D01*
X0071479Y0137153D01*
X0071479Y0137152D02*
X0070029Y0137152D01*
X0071519Y0140034D02*
X0071519Y0141484D01*
X0071519Y0140034D02*
X0070069Y0140034D01*
X0070069Y0141484D01*
X0071519Y0141484D01*
X0071519Y0141483D02*
X0070069Y0141483D01*
X0071558Y0144758D02*
X0071558Y0146208D01*
X0071558Y0144758D02*
X0070108Y0144758D01*
X0070108Y0146208D01*
X0071558Y0146208D01*
X0071558Y0146207D02*
X0070108Y0146207D01*
X0075058Y0146208D02*
X0075058Y0144758D01*
X0073608Y0144758D01*
X0073608Y0146208D01*
X0075058Y0146208D01*
X0075058Y0146207D02*
X0073608Y0146207D01*
X0075019Y0141484D02*
X0075019Y0140034D01*
X0073569Y0140034D01*
X0073569Y0141484D01*
X0075019Y0141484D01*
X0075019Y0141483D02*
X0073569Y0141483D01*
X0074979Y0137153D02*
X0074979Y0135703D01*
X0073529Y0135703D01*
X0073529Y0137153D01*
X0074979Y0137153D01*
X0074979Y0137152D02*
X0073529Y0137152D01*
X0074940Y0132822D02*
X0074940Y0131372D01*
X0073490Y0131372D01*
X0073490Y0132822D01*
X0074940Y0132822D01*
X0074940Y0132821D02*
X0073490Y0132821D01*
X0067460Y0127160D02*
X0066010Y0127160D01*
X0066010Y0128610D01*
X0067460Y0128610D01*
X0067460Y0127160D01*
X0067460Y0128609D02*
X0066010Y0128609D01*
X0065970Y0123616D02*
X0067420Y0123616D01*
X0065970Y0123616D02*
X0065970Y0125066D01*
X0067420Y0125066D01*
X0067420Y0123616D01*
X0067420Y0125065D02*
X0065970Y0125065D01*
X0065931Y0120073D02*
X0067381Y0120073D01*
X0065931Y0120073D02*
X0065931Y0121523D01*
X0067381Y0121523D01*
X0067381Y0120073D01*
X0067381Y0121522D02*
X0065931Y0121522D01*
X0065891Y0116530D02*
X0067341Y0116530D01*
X0065891Y0116530D02*
X0065891Y0117980D01*
X0067341Y0117980D01*
X0067341Y0116530D01*
X0067341Y0117979D02*
X0065891Y0117979D01*
X0086149Y0117604D02*
X0086149Y0116154D01*
X0086149Y0117604D02*
X0087599Y0117604D01*
X0087599Y0116154D01*
X0086149Y0116154D01*
X0086149Y0117603D02*
X0087599Y0117603D01*
X0086149Y0114104D02*
X0086149Y0112654D01*
X0086149Y0114104D02*
X0087599Y0114104D01*
X0087599Y0112654D01*
X0086149Y0112654D01*
X0086149Y0114103D02*
X0087599Y0114103D01*
X0086149Y0108509D02*
X0086149Y0107059D01*
X0086149Y0108509D02*
X0087599Y0108509D01*
X0087599Y0107059D01*
X0086149Y0107059D01*
X0086149Y0108508D02*
X0087599Y0108508D01*
X0086149Y0105009D02*
X0086149Y0103559D01*
X0086149Y0105009D02*
X0087599Y0105009D01*
X0087599Y0103559D01*
X0086149Y0103559D01*
X0086149Y0105008D02*
X0087599Y0105008D01*
X0092903Y0118813D02*
X0094353Y0118813D01*
X0092903Y0118813D02*
X0092903Y0120263D01*
X0094353Y0120263D01*
X0094353Y0118813D01*
X0094353Y0120262D02*
X0092903Y0120262D01*
X0096403Y0118813D02*
X0097853Y0118813D01*
X0096403Y0118813D02*
X0096403Y0120263D01*
X0097853Y0120263D01*
X0097853Y0118813D01*
X0097853Y0120262D02*
X0096403Y0120262D01*
X0125895Y0122350D02*
X0127345Y0122350D01*
X0127345Y0120900D01*
X0125895Y0120900D01*
X0125895Y0122350D01*
X0125895Y0122349D02*
X0127345Y0122349D01*
X0129395Y0122350D02*
X0130845Y0122350D01*
X0130845Y0120900D01*
X0129395Y0120900D01*
X0129395Y0122350D01*
X0129395Y0122349D02*
X0130845Y0122349D01*
X0130845Y0126681D02*
X0129395Y0126681D01*
X0130845Y0126681D02*
X0130845Y0125231D01*
X0129395Y0125231D01*
X0129395Y0126681D01*
X0129395Y0126680D02*
X0130845Y0126680D01*
X0130845Y0131011D02*
X0129395Y0131011D01*
X0130845Y0131011D02*
X0130845Y0129561D01*
X0129395Y0129561D01*
X0129395Y0131011D01*
X0129395Y0131010D02*
X0130845Y0131010D01*
X0130845Y0133813D02*
X0129395Y0133813D01*
X0129395Y0135263D01*
X0130845Y0135263D01*
X0130845Y0133813D01*
X0130845Y0135262D02*
X0129395Y0135262D01*
X0127345Y0133813D02*
X0125895Y0133813D01*
X0125895Y0135263D01*
X0127345Y0135263D01*
X0127345Y0133813D01*
X0127345Y0135262D02*
X0125895Y0135262D01*
X0125895Y0139279D02*
X0127345Y0139279D01*
X0127345Y0137829D01*
X0125895Y0137829D01*
X0125895Y0139279D01*
X0125895Y0139278D02*
X0127345Y0139278D01*
X0129395Y0139279D02*
X0130845Y0139279D01*
X0130845Y0137829D01*
X0129395Y0137829D01*
X0129395Y0139279D01*
X0129395Y0139278D02*
X0130845Y0139278D01*
X0127345Y0131011D02*
X0125895Y0131011D01*
X0127345Y0131011D02*
X0127345Y0129561D01*
X0125895Y0129561D01*
X0125895Y0131011D01*
X0125895Y0131010D02*
X0127345Y0131010D01*
X0127345Y0126681D02*
X0125895Y0126681D01*
X0127345Y0126681D02*
X0127345Y0125231D01*
X0125895Y0125231D01*
X0125895Y0126681D01*
X0125895Y0126680D02*
X0127345Y0126680D01*
X0143179Y0147153D02*
X0144629Y0147153D01*
X0144629Y0145703D01*
X0143179Y0145703D01*
X0143179Y0147153D01*
X0143179Y0147152D02*
X0144629Y0147152D01*
X0146679Y0147153D02*
X0148129Y0147153D01*
X0148129Y0145703D01*
X0146679Y0145703D01*
X0146679Y0147153D01*
X0146679Y0147152D02*
X0148129Y0147152D01*
X0148809Y0152750D02*
X0150259Y0152750D01*
X0148809Y0152750D02*
X0148809Y0154200D01*
X0150259Y0154200D01*
X0150259Y0152750D01*
X0150259Y0154199D02*
X0148809Y0154199D01*
X0152309Y0152750D02*
X0153759Y0152750D01*
X0152309Y0152750D02*
X0152309Y0154200D01*
X0153759Y0154200D01*
X0153759Y0152750D01*
X0153759Y0154199D02*
X0152309Y0154199D01*
X0153898Y0156551D02*
X0153898Y0158001D01*
X0153898Y0156551D02*
X0152448Y0156551D01*
X0152448Y0158001D01*
X0153898Y0158001D01*
X0153898Y0158000D02*
X0152448Y0158000D01*
X0153898Y0160051D02*
X0153898Y0161501D01*
X0153898Y0160051D02*
X0152448Y0160051D01*
X0152448Y0161501D01*
X0153898Y0161501D01*
X0153898Y0161500D02*
X0152448Y0161500D01*
X0164174Y0146895D02*
X0164174Y0145445D01*
X0162724Y0145445D01*
X0162724Y0146895D01*
X0164174Y0146895D01*
X0164174Y0146894D02*
X0162724Y0146894D01*
X0164174Y0143395D02*
X0164174Y0141945D01*
X0162724Y0141945D01*
X0162724Y0143395D01*
X0164174Y0143395D01*
X0164174Y0143394D02*
X0162724Y0143394D01*
X0171722Y0142908D02*
X0173172Y0142908D01*
X0171722Y0142908D02*
X0171722Y0144358D01*
X0173172Y0144358D01*
X0173172Y0142908D01*
X0173172Y0144357D02*
X0171722Y0144357D01*
X0175222Y0142908D02*
X0176672Y0142908D01*
X0175222Y0142908D02*
X0175222Y0144358D01*
X0176672Y0144358D01*
X0176672Y0142908D01*
X0176672Y0144357D02*
X0175222Y0144357D01*
X0180456Y0144240D02*
X0180456Y0142790D01*
X0179006Y0142790D01*
X0179006Y0144240D01*
X0180456Y0144240D01*
X0180456Y0144239D02*
X0179006Y0144239D01*
X0183956Y0144240D02*
X0183956Y0142790D01*
X0182506Y0142790D01*
X0182506Y0144240D01*
X0183956Y0144240D01*
X0183956Y0144239D02*
X0182506Y0144239D01*
X0183916Y0139909D02*
X0183916Y0138459D01*
X0182466Y0138459D01*
X0182466Y0139909D01*
X0183916Y0139909D01*
X0183916Y0139908D02*
X0182466Y0139908D01*
X0180416Y0139909D02*
X0180416Y0138459D01*
X0178966Y0138459D01*
X0178966Y0139909D01*
X0180416Y0139909D01*
X0180416Y0139908D02*
X0178966Y0139908D01*
X0176633Y0138577D02*
X0175183Y0138577D01*
X0175183Y0140027D01*
X0176633Y0140027D01*
X0176633Y0138577D01*
X0176633Y0140026D02*
X0175183Y0140026D01*
X0173133Y0138577D02*
X0171683Y0138577D01*
X0171683Y0140027D01*
X0173133Y0140027D01*
X0173133Y0138577D01*
X0173133Y0140026D02*
X0171683Y0140026D01*
X0171683Y0134404D02*
X0173133Y0134404D01*
X0171683Y0134404D02*
X0171683Y0135854D01*
X0173133Y0135854D01*
X0173133Y0134404D01*
X0173133Y0135853D02*
X0171683Y0135853D01*
X0175183Y0134404D02*
X0176633Y0134404D01*
X0175183Y0134404D02*
X0175183Y0135854D01*
X0176633Y0135854D01*
X0176633Y0134404D01*
X0176633Y0135853D02*
X0175183Y0135853D01*
X0180377Y0135972D02*
X0180377Y0134522D01*
X0178927Y0134522D01*
X0178927Y0135972D01*
X0180377Y0135972D01*
X0180377Y0135971D02*
X0178927Y0135971D01*
X0183877Y0135972D02*
X0183877Y0134522D01*
X0182427Y0134522D01*
X0182427Y0135972D01*
X0183877Y0135972D01*
X0183877Y0135971D02*
X0182427Y0135971D01*
X0183837Y0132035D02*
X0183837Y0130585D01*
X0182387Y0130585D01*
X0182387Y0132035D01*
X0183837Y0132035D01*
X0183837Y0132034D02*
X0182387Y0132034D01*
X0180337Y0132035D02*
X0180337Y0130585D01*
X0178887Y0130585D01*
X0178887Y0132035D01*
X0180337Y0132035D01*
X0180337Y0132034D02*
X0178887Y0132034D01*
X0176593Y0130467D02*
X0175143Y0130467D01*
X0175143Y0131917D01*
X0176593Y0131917D01*
X0176593Y0130467D01*
X0176593Y0131916D02*
X0175143Y0131916D01*
X0173093Y0130467D02*
X0171643Y0130467D01*
X0171643Y0131917D01*
X0173093Y0131917D01*
X0173093Y0130467D01*
X0173093Y0131916D02*
X0171643Y0131916D01*
X0171604Y0126923D02*
X0173054Y0126923D01*
X0171604Y0126923D02*
X0171604Y0128373D01*
X0173054Y0128373D01*
X0173054Y0126923D01*
X0173054Y0128372D02*
X0171604Y0128372D01*
X0171565Y0122986D02*
X0173015Y0122986D01*
X0171565Y0122986D02*
X0171565Y0124436D01*
X0173015Y0124436D01*
X0173015Y0122986D01*
X0173015Y0124435D02*
X0171565Y0124435D01*
X0175065Y0122986D02*
X0176515Y0122986D01*
X0175065Y0122986D02*
X0175065Y0124436D01*
X0176515Y0124436D01*
X0176515Y0122986D01*
X0176515Y0124435D02*
X0175065Y0124435D01*
X0175104Y0126923D02*
X0176554Y0126923D01*
X0175104Y0126923D02*
X0175104Y0128373D01*
X0176554Y0128373D01*
X0176554Y0126923D01*
X0176554Y0128372D02*
X0175104Y0128372D01*
X0175025Y0119049D02*
X0176475Y0119049D01*
X0175025Y0119049D02*
X0175025Y0120499D01*
X0176475Y0120499D01*
X0176475Y0119049D01*
X0176475Y0120498D02*
X0175025Y0120498D01*
X0172975Y0119049D02*
X0171525Y0119049D01*
X0171525Y0120499D01*
X0172975Y0120499D01*
X0172975Y0119049D01*
X0172975Y0120498D02*
X0171525Y0120498D01*
X0171486Y0115112D02*
X0172936Y0115112D01*
X0171486Y0115112D02*
X0171486Y0116562D01*
X0172936Y0116562D01*
X0172936Y0115112D01*
X0172936Y0116561D02*
X0171486Y0116561D01*
X0174986Y0115112D02*
X0176436Y0115112D01*
X0174986Y0115112D02*
X0174986Y0116562D01*
X0176436Y0116562D01*
X0176436Y0115112D01*
X0176436Y0116561D02*
X0174986Y0116561D01*
X0166143Y0111541D02*
X0166143Y0110091D01*
X0164693Y0110091D01*
X0164693Y0111541D01*
X0166143Y0111541D01*
X0166143Y0111540D02*
X0164693Y0111540D01*
X0160086Y0110793D02*
X0160086Y0109343D01*
X0160086Y0110793D02*
X0161536Y0110793D01*
X0161536Y0109343D01*
X0160086Y0109343D01*
X0160086Y0110792D02*
X0161536Y0110792D01*
X0160086Y0107293D02*
X0160086Y0105843D01*
X0160086Y0107293D02*
X0161536Y0107293D01*
X0161536Y0105843D01*
X0160086Y0105843D01*
X0160086Y0107292D02*
X0161536Y0107292D01*
X0166143Y0106591D02*
X0166143Y0108041D01*
X0166143Y0106591D02*
X0164693Y0106591D01*
X0164693Y0108041D01*
X0166143Y0108041D01*
X0166143Y0108040D02*
X0164693Y0108040D01*
X0156149Y0107332D02*
X0156149Y0105882D01*
X0156149Y0107332D02*
X0157599Y0107332D01*
X0157599Y0105882D01*
X0156149Y0105882D01*
X0156149Y0107331D02*
X0157599Y0107331D01*
X0156149Y0109382D02*
X0156149Y0110832D01*
X0157599Y0110832D01*
X0157599Y0109382D01*
X0156149Y0109382D01*
X0156149Y0110831D02*
X0157599Y0110831D01*
X0169006Y0156917D02*
X0170456Y0156917D01*
X0170456Y0155467D01*
X0169006Y0155467D01*
X0169006Y0156917D01*
X0169006Y0156916D02*
X0170456Y0156916D01*
X0172506Y0156917D02*
X0173956Y0156917D01*
X0173956Y0155467D01*
X0172506Y0155467D01*
X0172506Y0156917D01*
X0172506Y0156916D02*
X0173956Y0156916D01*
X0170395Y0159425D02*
X0170395Y0160875D01*
X0170395Y0159425D02*
X0168945Y0159425D01*
X0168945Y0160875D01*
X0170395Y0160875D01*
X0170395Y0160874D02*
X0168945Y0160874D01*
X0170395Y0162925D02*
X0170395Y0164375D01*
X0170395Y0162925D02*
X0168945Y0162925D01*
X0168945Y0164375D01*
X0170395Y0164375D01*
X0170395Y0164374D02*
X0168945Y0164374D01*
X0168945Y0166512D02*
X0168945Y0167962D01*
X0170395Y0167962D01*
X0170395Y0166512D01*
X0168945Y0166512D01*
X0168945Y0167961D02*
X0170395Y0167961D01*
X0168945Y0170012D02*
X0168945Y0171462D01*
X0170395Y0171462D01*
X0170395Y0170012D01*
X0168945Y0170012D01*
X0168945Y0171461D02*
X0170395Y0171461D01*
X0170456Y0174404D02*
X0169006Y0174404D01*
X0169006Y0175854D01*
X0170456Y0175854D01*
X0170456Y0174404D01*
X0170456Y0175853D02*
X0169006Y0175853D01*
X0169045Y0179128D02*
X0170495Y0179128D01*
X0169045Y0179128D02*
X0169045Y0180578D01*
X0170495Y0180578D01*
X0170495Y0179128D01*
X0170495Y0180577D02*
X0169045Y0180577D01*
X0172545Y0179128D02*
X0173995Y0179128D01*
X0172545Y0179128D02*
X0172545Y0180578D01*
X0173995Y0180578D01*
X0173995Y0179128D01*
X0173995Y0180577D02*
X0172545Y0180577D01*
X0172506Y0174404D02*
X0173956Y0174404D01*
X0172506Y0174404D02*
X0172506Y0175854D01*
X0173956Y0175854D01*
X0173956Y0174404D01*
X0173956Y0175853D02*
X0172506Y0175853D01*
X0126239Y0166530D02*
X0124789Y0166530D01*
X0124789Y0167980D01*
X0126239Y0167980D01*
X0126239Y0166530D01*
X0126239Y0167979D02*
X0124789Y0167979D01*
X0122739Y0166530D02*
X0121289Y0166530D01*
X0121289Y0167980D01*
X0122739Y0167980D01*
X0122739Y0166530D01*
X0122739Y0167979D02*
X0121289Y0167979D01*
X0121346Y0170528D02*
X0121346Y0171978D01*
X0122796Y0171978D01*
X0122796Y0170528D01*
X0121346Y0170528D01*
X0121346Y0171977D02*
X0122796Y0171977D01*
X0121346Y0174028D02*
X0121346Y0175478D01*
X0122796Y0175478D01*
X0122796Y0174028D01*
X0121346Y0174028D01*
X0121346Y0175477D02*
X0122796Y0175477D01*
X0122757Y0163942D02*
X0122757Y0162492D01*
X0121307Y0162492D01*
X0121307Y0163942D01*
X0122757Y0163942D01*
X0122757Y0163941D02*
X0121307Y0163941D01*
X0122757Y0160442D02*
X0122757Y0158992D01*
X0121307Y0158992D01*
X0121307Y0160442D01*
X0122757Y0160442D01*
X0122757Y0160441D02*
X0121307Y0160441D01*
X0076200Y0158492D02*
X0074750Y0158492D01*
X0076200Y0158492D02*
X0076200Y0157042D01*
X0074750Y0157042D01*
X0074750Y0158492D01*
X0074750Y0158491D02*
X0076200Y0158491D01*
X0072700Y0158492D02*
X0071250Y0158492D01*
X0072700Y0158492D02*
X0072700Y0157042D01*
X0071250Y0157042D01*
X0071250Y0158492D01*
X0071250Y0158491D02*
X0072700Y0158491D01*
X0072757Y0160725D02*
X0072757Y0162175D01*
X0072757Y0160725D02*
X0071307Y0160725D01*
X0071307Y0162175D01*
X0072757Y0162175D01*
X0072757Y0162174D02*
X0071307Y0162174D01*
X0072757Y0164225D02*
X0072757Y0165675D01*
X0072757Y0164225D02*
X0071307Y0164225D01*
X0071307Y0165675D01*
X0072757Y0165675D01*
X0072757Y0165674D02*
X0071307Y0165674D01*
X0071267Y0167929D02*
X0071267Y0169379D01*
X0072717Y0169379D01*
X0072717Y0167929D01*
X0071267Y0167929D01*
X0071267Y0169378D02*
X0072717Y0169378D01*
X0071267Y0171429D02*
X0071267Y0172879D01*
X0072717Y0172879D01*
X0072717Y0171429D01*
X0071267Y0171429D01*
X0071267Y0172878D02*
X0072717Y0172878D01*
X0072936Y0175112D02*
X0071486Y0175112D01*
X0071486Y0176562D01*
X0072936Y0176562D01*
X0072936Y0175112D01*
X0072936Y0176561D02*
X0071486Y0176561D01*
X0071525Y0179443D02*
X0072975Y0179443D01*
X0071525Y0179443D02*
X0071525Y0180893D01*
X0072975Y0180893D01*
X0072975Y0179443D01*
X0072975Y0180892D02*
X0071525Y0180892D01*
X0075025Y0179443D02*
X0076475Y0179443D01*
X0075025Y0179443D02*
X0075025Y0180893D01*
X0076475Y0180893D01*
X0076475Y0179443D01*
X0076475Y0180892D02*
X0075025Y0180892D01*
X0074986Y0175112D02*
X0076436Y0175112D01*
X0074986Y0175112D02*
X0074986Y0176562D01*
X0076436Y0176562D01*
X0076436Y0175112D01*
X0076436Y0176561D02*
X0074986Y0176561D01*
X0055946Y0151029D02*
X0055946Y0149579D01*
X0054496Y0149579D01*
X0054496Y0151029D01*
X0055946Y0151029D01*
X0055946Y0151028D02*
X0054496Y0151028D01*
X0055946Y0147529D02*
X0055946Y0146079D01*
X0054496Y0146079D01*
X0054496Y0147529D01*
X0055946Y0147529D01*
X0055946Y0147528D02*
X0054496Y0147528D01*
X0044861Y0155467D02*
X0043411Y0155467D01*
X0043411Y0156917D01*
X0044861Y0156917D01*
X0044861Y0155467D01*
X0044861Y0156916D02*
X0043411Y0156916D01*
X0041361Y0155467D02*
X0039911Y0155467D01*
X0039911Y0156917D01*
X0041361Y0156917D01*
X0041361Y0155467D01*
X0041361Y0156916D02*
X0039911Y0156916D01*
X0044883Y0159465D02*
X0044883Y0160915D01*
X0044883Y0159465D02*
X0043433Y0159465D01*
X0043433Y0160915D01*
X0044883Y0160915D01*
X0044883Y0160914D02*
X0043433Y0160914D01*
X0044883Y0162965D02*
X0044883Y0164415D01*
X0044883Y0162965D02*
X0043433Y0162965D01*
X0043433Y0164415D01*
X0044883Y0164415D01*
X0044883Y0164414D02*
X0043433Y0164414D01*
X0035806Y0144010D02*
X0034356Y0144010D01*
X0034356Y0145460D01*
X0035806Y0145460D01*
X0035806Y0144010D01*
X0035806Y0145459D02*
X0034356Y0145459D01*
X0032306Y0144010D02*
X0030856Y0144010D01*
X0030856Y0145460D01*
X0032306Y0145460D01*
X0032306Y0144010D01*
X0032306Y0145459D02*
X0030856Y0145459D01*
X0021121Y0142783D02*
X0019671Y0142783D01*
X0021121Y0142783D02*
X0021121Y0141333D01*
X0019671Y0141333D01*
X0019671Y0142783D01*
X0019671Y0142782D02*
X0021121Y0142782D01*
X0017621Y0142783D02*
X0016171Y0142783D01*
X0017621Y0142783D02*
X0017621Y0141333D01*
X0016171Y0141333D01*
X0016171Y0142783D01*
X0016171Y0142782D02*
X0017621Y0142782D01*
X0017621Y0136884D02*
X0016171Y0136884D01*
X0016171Y0138334D01*
X0017621Y0138334D01*
X0017621Y0136884D01*
X0017621Y0138333D02*
X0016171Y0138333D01*
X0019671Y0136884D02*
X0021121Y0136884D01*
X0019671Y0136884D02*
X0019671Y0138334D01*
X0021121Y0138334D01*
X0021121Y0136884D01*
X0021121Y0138333D02*
X0019671Y0138333D01*
X0019671Y0133806D02*
X0021121Y0133806D01*
X0021121Y0132356D01*
X0019671Y0132356D01*
X0019671Y0133806D01*
X0019671Y0133805D02*
X0021121Y0133805D01*
X0017621Y0133806D02*
X0016171Y0133806D01*
X0017621Y0133806D02*
X0017621Y0132356D01*
X0016171Y0132356D01*
X0016171Y0133806D01*
X0016171Y0133805D02*
X0017621Y0133805D01*
X0017621Y0129082D02*
X0016171Y0129082D01*
X0017621Y0129082D02*
X0017621Y0127632D01*
X0016171Y0127632D01*
X0016171Y0129082D01*
X0016171Y0129081D02*
X0017621Y0129081D01*
X0019671Y0129082D02*
X0021121Y0129082D01*
X0021121Y0127632D01*
X0019671Y0127632D01*
X0019671Y0129082D01*
X0019671Y0129081D02*
X0021121Y0129081D01*
X0021121Y0123570D02*
X0019671Y0123570D01*
X0021121Y0123570D02*
X0021121Y0122120D01*
X0019671Y0122120D01*
X0019671Y0123570D01*
X0019671Y0123569D02*
X0021121Y0123569D01*
X0017621Y0123570D02*
X0016171Y0123570D01*
X0017621Y0123570D02*
X0017621Y0122120D01*
X0016171Y0122120D01*
X0016171Y0123570D01*
X0016171Y0123569D02*
X0017621Y0123569D01*
X0018820Y0159504D02*
X0018820Y0160954D01*
X0018820Y0159504D02*
X0017370Y0159504D01*
X0017370Y0160954D01*
X0018820Y0160954D01*
X0018820Y0160953D02*
X0017370Y0160953D01*
X0018820Y0163004D02*
X0018820Y0164454D01*
X0018820Y0163004D02*
X0017370Y0163004D01*
X0017370Y0164454D01*
X0018820Y0164454D01*
X0018820Y0164453D02*
X0017370Y0164453D01*
X0017470Y0166845D02*
X0018920Y0166845D01*
X0017470Y0166845D02*
X0017470Y0168295D01*
X0018920Y0168295D01*
X0018920Y0166845D01*
X0018920Y0168294D02*
X0017470Y0168294D01*
X0017330Y0170803D02*
X0017330Y0172253D01*
X0018780Y0172253D01*
X0018780Y0170803D01*
X0017330Y0170803D01*
X0017330Y0172252D02*
X0018780Y0172252D01*
X0017330Y0174303D02*
X0017330Y0175753D01*
X0018780Y0175753D01*
X0018780Y0174303D01*
X0017330Y0174303D01*
X0017330Y0175752D02*
X0018780Y0175752D01*
X0020970Y0166845D02*
X0022420Y0166845D01*
X0020970Y0166845D02*
X0020970Y0168295D01*
X0022420Y0168295D01*
X0022420Y0166845D01*
X0022420Y0168294D02*
X0020970Y0168294D01*
D12*
X0066164Y0073704D02*
X0066164Y0070404D01*
X0061364Y0070404D01*
X0061364Y0073704D01*
X0066164Y0073704D01*
X0066164Y0071503D02*
X0061364Y0071503D01*
X0061364Y0072602D02*
X0066164Y0072602D01*
X0066164Y0073701D02*
X0061364Y0073701D01*
X0066164Y0066704D02*
X0066164Y0063404D01*
X0061364Y0063404D01*
X0061364Y0066704D01*
X0066164Y0066704D01*
X0066164Y0064503D02*
X0061364Y0064503D01*
X0061364Y0065602D02*
X0066164Y0065602D01*
X0066164Y0066701D02*
X0061364Y0066701D01*
D13*
X0062071Y0191310D03*
X0072071Y0191310D03*
X0082071Y0191310D03*
X0112268Y0191113D03*
X0122268Y0191113D03*
X0132268Y0191113D03*
X0159985Y0191113D03*
X0169985Y0191113D03*
X0179985Y0191113D03*
X0028173Y0191034D03*
X0018173Y0191034D03*
X0008173Y0191034D03*
D14*
X0096284Y0006873D03*
D15*
X0086284Y0007873D03*
X0076284Y0006873D03*
X0066284Y0007873D03*
X0056284Y0006873D03*
X0046284Y0007873D03*
X0036284Y0006873D03*
X0026284Y0007873D03*
D16*
X0083607Y0036546D03*
X0085575Y0036546D03*
X0087544Y0036546D03*
X0089512Y0036546D03*
X0091481Y0036546D03*
X0093449Y0036546D03*
X0095418Y0036546D03*
X0097386Y0036546D03*
X0099355Y0036546D03*
X0101323Y0036546D03*
X0103292Y0036546D03*
X0105260Y0036546D03*
X0107229Y0036546D03*
X0109197Y0036546D03*
X0111166Y0036546D03*
X0113134Y0036546D03*
X0113134Y0072373D03*
X0111166Y0072373D03*
X0109197Y0072373D03*
X0107229Y0072373D03*
X0105260Y0072373D03*
X0103292Y0072373D03*
X0101323Y0072373D03*
X0099355Y0072373D03*
X0097386Y0072373D03*
X0095418Y0072373D03*
X0093449Y0072373D03*
X0091481Y0072373D03*
X0089512Y0072373D03*
X0087544Y0072373D03*
X0085575Y0072373D03*
X0083607Y0072373D03*
D17*
X0080457Y0069223D03*
X0080457Y0067255D03*
X0080457Y0065286D03*
X0080457Y0063318D03*
X0080457Y0061349D03*
X0080457Y0059381D03*
X0080457Y0057412D03*
X0080457Y0055444D03*
X0080457Y0053475D03*
X0080457Y0051507D03*
X0080457Y0049538D03*
X0080457Y0047570D03*
X0080457Y0045601D03*
X0080457Y0043633D03*
X0080457Y0041664D03*
X0080457Y0039696D03*
X0116284Y0039696D03*
X0116284Y0041664D03*
X0116284Y0043633D03*
X0116284Y0045601D03*
X0116284Y0047570D03*
X0116284Y0049538D03*
X0116284Y0051507D03*
X0116284Y0053475D03*
X0116284Y0055444D03*
X0116284Y0057412D03*
X0116284Y0059381D03*
X0116284Y0061349D03*
X0116284Y0063318D03*
X0116284Y0065286D03*
X0116284Y0067255D03*
X0116284Y0069223D03*
D18*
X0098370Y0054459D03*
D19*
X0146923Y0117101D02*
X0146923Y0120401D01*
X0146923Y0117101D02*
X0145723Y0117101D01*
X0145723Y0120401D01*
X0146923Y0120401D01*
X0146923Y0117400D02*
X0145723Y0117400D01*
X0145723Y0117699D02*
X0146923Y0117699D01*
X0146923Y0117998D02*
X0145723Y0117998D01*
X0145723Y0118297D02*
X0146923Y0118297D01*
X0146923Y0118596D02*
X0145723Y0118596D01*
X0145723Y0118895D02*
X0146923Y0118895D01*
X0146923Y0119194D02*
X0145723Y0119194D01*
X0145723Y0119493D02*
X0146923Y0119493D01*
X0146923Y0119792D02*
X0145723Y0119792D01*
X0145723Y0120091D02*
X0146923Y0120091D01*
X0146923Y0120390D02*
X0145723Y0120390D01*
X0148892Y0120401D02*
X0148892Y0117101D01*
X0147692Y0117101D01*
X0147692Y0120401D01*
X0148892Y0120401D01*
X0148892Y0117400D02*
X0147692Y0117400D01*
X0147692Y0117699D02*
X0148892Y0117699D01*
X0148892Y0117998D02*
X0147692Y0117998D01*
X0147692Y0118297D02*
X0148892Y0118297D01*
X0148892Y0118596D02*
X0147692Y0118596D01*
X0147692Y0118895D02*
X0148892Y0118895D01*
X0148892Y0119194D02*
X0147692Y0119194D01*
X0147692Y0119493D02*
X0148892Y0119493D01*
X0148892Y0119792D02*
X0147692Y0119792D01*
X0147692Y0120091D02*
X0148892Y0120091D01*
X0148892Y0120390D02*
X0147692Y0120390D01*
X0150860Y0120401D02*
X0150860Y0117101D01*
X0149660Y0117101D01*
X0149660Y0120401D01*
X0150860Y0120401D01*
X0150860Y0117400D02*
X0149660Y0117400D01*
X0149660Y0117699D02*
X0150860Y0117699D01*
X0150860Y0117998D02*
X0149660Y0117998D01*
X0149660Y0118297D02*
X0150860Y0118297D01*
X0150860Y0118596D02*
X0149660Y0118596D01*
X0149660Y0118895D02*
X0150860Y0118895D01*
X0150860Y0119194D02*
X0149660Y0119194D01*
X0149660Y0119493D02*
X0150860Y0119493D01*
X0150860Y0119792D02*
X0149660Y0119792D01*
X0149660Y0120091D02*
X0150860Y0120091D01*
X0150860Y0120390D02*
X0149660Y0120390D01*
X0152829Y0120401D02*
X0152829Y0117101D01*
X0151629Y0117101D01*
X0151629Y0120401D01*
X0152829Y0120401D01*
X0152829Y0117400D02*
X0151629Y0117400D01*
X0151629Y0117699D02*
X0152829Y0117699D01*
X0152829Y0117998D02*
X0151629Y0117998D01*
X0151629Y0118297D02*
X0152829Y0118297D01*
X0152829Y0118596D02*
X0151629Y0118596D01*
X0151629Y0118895D02*
X0152829Y0118895D01*
X0152829Y0119194D02*
X0151629Y0119194D01*
X0151629Y0119493D02*
X0152829Y0119493D01*
X0152829Y0119792D02*
X0151629Y0119792D01*
X0151629Y0120091D02*
X0152829Y0120091D01*
X0152829Y0120390D02*
X0151629Y0120390D01*
X0154797Y0120401D02*
X0154797Y0117101D01*
X0153597Y0117101D01*
X0153597Y0120401D01*
X0154797Y0120401D01*
X0154797Y0117400D02*
X0153597Y0117400D01*
X0153597Y0117699D02*
X0154797Y0117699D01*
X0154797Y0117998D02*
X0153597Y0117998D01*
X0153597Y0118297D02*
X0154797Y0118297D01*
X0154797Y0118596D02*
X0153597Y0118596D01*
X0153597Y0118895D02*
X0154797Y0118895D01*
X0154797Y0119194D02*
X0153597Y0119194D01*
X0153597Y0119493D02*
X0154797Y0119493D01*
X0154797Y0119792D02*
X0153597Y0119792D01*
X0153597Y0120091D02*
X0154797Y0120091D01*
X0154797Y0120390D02*
X0153597Y0120390D01*
X0156766Y0120401D02*
X0156766Y0117101D01*
X0155566Y0117101D01*
X0155566Y0120401D01*
X0156766Y0120401D01*
X0156766Y0117400D02*
X0155566Y0117400D01*
X0155566Y0117699D02*
X0156766Y0117699D01*
X0156766Y0117998D02*
X0155566Y0117998D01*
X0155566Y0118297D02*
X0156766Y0118297D01*
X0156766Y0118596D02*
X0155566Y0118596D01*
X0155566Y0118895D02*
X0156766Y0118895D01*
X0156766Y0119194D02*
X0155566Y0119194D01*
X0155566Y0119493D02*
X0156766Y0119493D01*
X0156766Y0119792D02*
X0155566Y0119792D01*
X0155566Y0120091D02*
X0156766Y0120091D01*
X0156766Y0120390D02*
X0155566Y0120390D01*
X0158734Y0120401D02*
X0158734Y0117101D01*
X0157534Y0117101D01*
X0157534Y0120401D01*
X0158734Y0120401D01*
X0158734Y0117400D02*
X0157534Y0117400D01*
X0157534Y0117699D02*
X0158734Y0117699D01*
X0158734Y0117998D02*
X0157534Y0117998D01*
X0157534Y0118297D02*
X0158734Y0118297D01*
X0158734Y0118596D02*
X0157534Y0118596D01*
X0157534Y0118895D02*
X0158734Y0118895D01*
X0158734Y0119194D02*
X0157534Y0119194D01*
X0157534Y0119493D02*
X0158734Y0119493D01*
X0158734Y0119792D02*
X0157534Y0119792D01*
X0157534Y0120091D02*
X0158734Y0120091D01*
X0158734Y0120390D02*
X0157534Y0120390D01*
X0160703Y0120401D02*
X0160703Y0117101D01*
X0159503Y0117101D01*
X0159503Y0120401D01*
X0160703Y0120401D01*
X0160703Y0117400D02*
X0159503Y0117400D01*
X0159503Y0117699D02*
X0160703Y0117699D01*
X0160703Y0117998D02*
X0159503Y0117998D01*
X0159503Y0118297D02*
X0160703Y0118297D01*
X0160703Y0118596D02*
X0159503Y0118596D01*
X0159503Y0118895D02*
X0160703Y0118895D01*
X0160703Y0119194D02*
X0159503Y0119194D01*
X0159503Y0119493D02*
X0160703Y0119493D01*
X0160703Y0119792D02*
X0159503Y0119792D01*
X0159503Y0120091D02*
X0160703Y0120091D01*
X0160703Y0120390D02*
X0159503Y0120390D01*
X0161405Y0122304D02*
X0164705Y0122304D01*
X0164705Y0121104D01*
X0161405Y0121104D01*
X0161405Y0122304D01*
X0161405Y0121403D02*
X0164705Y0121403D01*
X0164705Y0121702D02*
X0161405Y0121702D01*
X0161405Y0122001D02*
X0164705Y0122001D01*
X0164705Y0122300D02*
X0161405Y0122300D01*
X0161405Y0124272D02*
X0164705Y0124272D01*
X0164705Y0123072D01*
X0161405Y0123072D01*
X0161405Y0124272D01*
X0161405Y0123371D02*
X0164705Y0123371D01*
X0164705Y0123670D02*
X0161405Y0123670D01*
X0161405Y0123969D02*
X0164705Y0123969D01*
X0164705Y0124268D02*
X0161405Y0124268D01*
X0161405Y0126241D02*
X0164705Y0126241D01*
X0164705Y0125041D01*
X0161405Y0125041D01*
X0161405Y0126241D01*
X0161405Y0125340D02*
X0164705Y0125340D01*
X0164705Y0125639D02*
X0161405Y0125639D01*
X0161405Y0125938D02*
X0164705Y0125938D01*
X0164705Y0126237D02*
X0161405Y0126237D01*
X0161405Y0128209D02*
X0164705Y0128209D01*
X0164705Y0127009D01*
X0161405Y0127009D01*
X0161405Y0128209D01*
X0161405Y0127308D02*
X0164705Y0127308D01*
X0164705Y0127607D02*
X0161405Y0127607D01*
X0161405Y0127906D02*
X0164705Y0127906D01*
X0164705Y0128205D02*
X0161405Y0128205D01*
X0161405Y0130178D02*
X0164705Y0130178D01*
X0164705Y0128978D01*
X0161405Y0128978D01*
X0161405Y0130178D01*
X0161405Y0129277D02*
X0164705Y0129277D01*
X0164705Y0129576D02*
X0161405Y0129576D01*
X0161405Y0129875D02*
X0164705Y0129875D01*
X0164705Y0130174D02*
X0161405Y0130174D01*
X0161405Y0132146D02*
X0164705Y0132146D01*
X0164705Y0130946D01*
X0161405Y0130946D01*
X0161405Y0132146D01*
X0161405Y0131245D02*
X0164705Y0131245D01*
X0164705Y0131544D02*
X0161405Y0131544D01*
X0161405Y0131843D02*
X0164705Y0131843D01*
X0164705Y0132142D02*
X0161405Y0132142D01*
X0161405Y0134115D02*
X0164705Y0134115D01*
X0164705Y0132915D01*
X0161405Y0132915D01*
X0161405Y0134115D01*
X0161405Y0133214D02*
X0164705Y0133214D01*
X0164705Y0133513D02*
X0161405Y0133513D01*
X0161405Y0133812D02*
X0164705Y0133812D01*
X0164705Y0134111D02*
X0161405Y0134111D01*
X0161405Y0136083D02*
X0164705Y0136083D01*
X0164705Y0134883D01*
X0161405Y0134883D01*
X0161405Y0136083D01*
X0161405Y0135182D02*
X0164705Y0135182D01*
X0164705Y0135481D02*
X0161405Y0135481D01*
X0161405Y0135780D02*
X0164705Y0135780D01*
X0164705Y0136079D02*
X0161405Y0136079D01*
X0159503Y0136786D02*
X0159503Y0140086D01*
X0160703Y0140086D01*
X0160703Y0136786D01*
X0159503Y0136786D01*
X0159503Y0137085D02*
X0160703Y0137085D01*
X0160703Y0137384D02*
X0159503Y0137384D01*
X0159503Y0137683D02*
X0160703Y0137683D01*
X0160703Y0137982D02*
X0159503Y0137982D01*
X0159503Y0138281D02*
X0160703Y0138281D01*
X0160703Y0138580D02*
X0159503Y0138580D01*
X0159503Y0138879D02*
X0160703Y0138879D01*
X0160703Y0139178D02*
X0159503Y0139178D01*
X0159503Y0139477D02*
X0160703Y0139477D01*
X0160703Y0139776D02*
X0159503Y0139776D01*
X0159503Y0140075D02*
X0160703Y0140075D01*
X0157534Y0140086D02*
X0157534Y0136786D01*
X0157534Y0140086D02*
X0158734Y0140086D01*
X0158734Y0136786D01*
X0157534Y0136786D01*
X0157534Y0137085D02*
X0158734Y0137085D01*
X0158734Y0137384D02*
X0157534Y0137384D01*
X0157534Y0137683D02*
X0158734Y0137683D01*
X0158734Y0137982D02*
X0157534Y0137982D01*
X0157534Y0138281D02*
X0158734Y0138281D01*
X0158734Y0138580D02*
X0157534Y0138580D01*
X0157534Y0138879D02*
X0158734Y0138879D01*
X0158734Y0139178D02*
X0157534Y0139178D01*
X0157534Y0139477D02*
X0158734Y0139477D01*
X0158734Y0139776D02*
X0157534Y0139776D01*
X0157534Y0140075D02*
X0158734Y0140075D01*
X0155566Y0140086D02*
X0155566Y0136786D01*
X0155566Y0140086D02*
X0156766Y0140086D01*
X0156766Y0136786D01*
X0155566Y0136786D01*
X0155566Y0137085D02*
X0156766Y0137085D01*
X0156766Y0137384D02*
X0155566Y0137384D01*
X0155566Y0137683D02*
X0156766Y0137683D01*
X0156766Y0137982D02*
X0155566Y0137982D01*
X0155566Y0138281D02*
X0156766Y0138281D01*
X0156766Y0138580D02*
X0155566Y0138580D01*
X0155566Y0138879D02*
X0156766Y0138879D01*
X0156766Y0139178D02*
X0155566Y0139178D01*
X0155566Y0139477D02*
X0156766Y0139477D01*
X0156766Y0139776D02*
X0155566Y0139776D01*
X0155566Y0140075D02*
X0156766Y0140075D01*
X0153597Y0140086D02*
X0153597Y0136786D01*
X0153597Y0140086D02*
X0154797Y0140086D01*
X0154797Y0136786D01*
X0153597Y0136786D01*
X0153597Y0137085D02*
X0154797Y0137085D01*
X0154797Y0137384D02*
X0153597Y0137384D01*
X0153597Y0137683D02*
X0154797Y0137683D01*
X0154797Y0137982D02*
X0153597Y0137982D01*
X0153597Y0138281D02*
X0154797Y0138281D01*
X0154797Y0138580D02*
X0153597Y0138580D01*
X0153597Y0138879D02*
X0154797Y0138879D01*
X0154797Y0139178D02*
X0153597Y0139178D01*
X0153597Y0139477D02*
X0154797Y0139477D01*
X0154797Y0139776D02*
X0153597Y0139776D01*
X0153597Y0140075D02*
X0154797Y0140075D01*
X0151629Y0140086D02*
X0151629Y0136786D01*
X0151629Y0140086D02*
X0152829Y0140086D01*
X0152829Y0136786D01*
X0151629Y0136786D01*
X0151629Y0137085D02*
X0152829Y0137085D01*
X0152829Y0137384D02*
X0151629Y0137384D01*
X0151629Y0137683D02*
X0152829Y0137683D01*
X0152829Y0137982D02*
X0151629Y0137982D01*
X0151629Y0138281D02*
X0152829Y0138281D01*
X0152829Y0138580D02*
X0151629Y0138580D01*
X0151629Y0138879D02*
X0152829Y0138879D01*
X0152829Y0139178D02*
X0151629Y0139178D01*
X0151629Y0139477D02*
X0152829Y0139477D01*
X0152829Y0139776D02*
X0151629Y0139776D01*
X0151629Y0140075D02*
X0152829Y0140075D01*
X0149660Y0140086D02*
X0149660Y0136786D01*
X0149660Y0140086D02*
X0150860Y0140086D01*
X0150860Y0136786D01*
X0149660Y0136786D01*
X0149660Y0137085D02*
X0150860Y0137085D01*
X0150860Y0137384D02*
X0149660Y0137384D01*
X0149660Y0137683D02*
X0150860Y0137683D01*
X0150860Y0137982D02*
X0149660Y0137982D01*
X0149660Y0138281D02*
X0150860Y0138281D01*
X0150860Y0138580D02*
X0149660Y0138580D01*
X0149660Y0138879D02*
X0150860Y0138879D01*
X0150860Y0139178D02*
X0149660Y0139178D01*
X0149660Y0139477D02*
X0150860Y0139477D01*
X0150860Y0139776D02*
X0149660Y0139776D01*
X0149660Y0140075D02*
X0150860Y0140075D01*
X0147692Y0140086D02*
X0147692Y0136786D01*
X0147692Y0140086D02*
X0148892Y0140086D01*
X0148892Y0136786D01*
X0147692Y0136786D01*
X0147692Y0137085D02*
X0148892Y0137085D01*
X0148892Y0137384D02*
X0147692Y0137384D01*
X0147692Y0137683D02*
X0148892Y0137683D01*
X0148892Y0137982D02*
X0147692Y0137982D01*
X0147692Y0138281D02*
X0148892Y0138281D01*
X0148892Y0138580D02*
X0147692Y0138580D01*
X0147692Y0138879D02*
X0148892Y0138879D01*
X0148892Y0139178D02*
X0147692Y0139178D01*
X0147692Y0139477D02*
X0148892Y0139477D01*
X0148892Y0139776D02*
X0147692Y0139776D01*
X0147692Y0140075D02*
X0148892Y0140075D01*
X0145723Y0140086D02*
X0145723Y0136786D01*
X0145723Y0140086D02*
X0146923Y0140086D01*
X0146923Y0136786D01*
X0145723Y0136786D01*
X0145723Y0137085D02*
X0146923Y0137085D01*
X0146923Y0137384D02*
X0145723Y0137384D01*
X0145723Y0137683D02*
X0146923Y0137683D01*
X0146923Y0137982D02*
X0145723Y0137982D01*
X0145723Y0138281D02*
X0146923Y0138281D01*
X0146923Y0138580D02*
X0145723Y0138580D01*
X0145723Y0138879D02*
X0146923Y0138879D01*
X0146923Y0139178D02*
X0145723Y0139178D01*
X0145723Y0139477D02*
X0146923Y0139477D01*
X0146923Y0139776D02*
X0145723Y0139776D01*
X0145723Y0140075D02*
X0146923Y0140075D01*
X0145020Y0134883D02*
X0141720Y0134883D01*
X0141720Y0136083D01*
X0145020Y0136083D01*
X0145020Y0134883D01*
X0145020Y0135182D02*
X0141720Y0135182D01*
X0141720Y0135481D02*
X0145020Y0135481D01*
X0145020Y0135780D02*
X0141720Y0135780D01*
X0141720Y0136079D02*
X0145020Y0136079D01*
X0145020Y0132915D02*
X0141720Y0132915D01*
X0141720Y0134115D01*
X0145020Y0134115D01*
X0145020Y0132915D01*
X0145020Y0133214D02*
X0141720Y0133214D01*
X0141720Y0133513D02*
X0145020Y0133513D01*
X0145020Y0133812D02*
X0141720Y0133812D01*
X0141720Y0134111D02*
X0145020Y0134111D01*
X0145020Y0130946D02*
X0141720Y0130946D01*
X0141720Y0132146D01*
X0145020Y0132146D01*
X0145020Y0130946D01*
X0145020Y0131245D02*
X0141720Y0131245D01*
X0141720Y0131544D02*
X0145020Y0131544D01*
X0145020Y0131843D02*
X0141720Y0131843D01*
X0141720Y0132142D02*
X0145020Y0132142D01*
X0145020Y0128978D02*
X0141720Y0128978D01*
X0141720Y0130178D01*
X0145020Y0130178D01*
X0145020Y0128978D01*
X0145020Y0129277D02*
X0141720Y0129277D01*
X0141720Y0129576D02*
X0145020Y0129576D01*
X0145020Y0129875D02*
X0141720Y0129875D01*
X0141720Y0130174D02*
X0145020Y0130174D01*
X0145020Y0127009D02*
X0141720Y0127009D01*
X0141720Y0128209D01*
X0145020Y0128209D01*
X0145020Y0127009D01*
X0145020Y0127308D02*
X0141720Y0127308D01*
X0141720Y0127607D02*
X0145020Y0127607D01*
X0145020Y0127906D02*
X0141720Y0127906D01*
X0141720Y0128205D02*
X0145020Y0128205D01*
X0145020Y0125041D02*
X0141720Y0125041D01*
X0141720Y0126241D01*
X0145020Y0126241D01*
X0145020Y0125041D01*
X0145020Y0125340D02*
X0141720Y0125340D01*
X0141720Y0125639D02*
X0145020Y0125639D01*
X0145020Y0125938D02*
X0141720Y0125938D01*
X0141720Y0126237D02*
X0145020Y0126237D01*
X0145020Y0123072D02*
X0141720Y0123072D01*
X0141720Y0124272D01*
X0145020Y0124272D01*
X0145020Y0123072D01*
X0145020Y0123371D02*
X0141720Y0123371D01*
X0141720Y0123670D02*
X0145020Y0123670D01*
X0145020Y0123969D02*
X0141720Y0123969D01*
X0141720Y0124268D02*
X0145020Y0124268D01*
X0145020Y0121104D02*
X0141720Y0121104D01*
X0141720Y0122304D01*
X0145020Y0122304D01*
X0145020Y0121104D01*
X0145020Y0121403D02*
X0141720Y0121403D01*
X0141720Y0121702D02*
X0145020Y0121702D01*
X0145020Y0122001D02*
X0141720Y0122001D01*
X0141720Y0122300D02*
X0145020Y0122300D01*
X0055847Y0123485D02*
X0052547Y0123485D01*
X0055847Y0123485D02*
X0055847Y0122285D01*
X0052547Y0122285D01*
X0052547Y0123485D01*
X0052547Y0122584D02*
X0055847Y0122584D01*
X0055847Y0122883D02*
X0052547Y0122883D01*
X0052547Y0123182D02*
X0055847Y0123182D01*
X0055847Y0123481D02*
X0052547Y0123481D01*
X0052547Y0125453D02*
X0055847Y0125453D01*
X0055847Y0124253D01*
X0052547Y0124253D01*
X0052547Y0125453D01*
X0052547Y0124552D02*
X0055847Y0124552D01*
X0055847Y0124851D02*
X0052547Y0124851D01*
X0052547Y0125150D02*
X0055847Y0125150D01*
X0055847Y0125449D02*
X0052547Y0125449D01*
X0052547Y0127422D02*
X0055847Y0127422D01*
X0055847Y0126222D01*
X0052547Y0126222D01*
X0052547Y0127422D01*
X0052547Y0126521D02*
X0055847Y0126521D01*
X0055847Y0126820D02*
X0052547Y0126820D01*
X0052547Y0127119D02*
X0055847Y0127119D01*
X0055847Y0127418D02*
X0052547Y0127418D01*
X0052547Y0129390D02*
X0055847Y0129390D01*
X0055847Y0128190D01*
X0052547Y0128190D01*
X0052547Y0129390D01*
X0052547Y0128489D02*
X0055847Y0128489D01*
X0055847Y0128788D02*
X0052547Y0128788D01*
X0052547Y0129087D02*
X0055847Y0129087D01*
X0055847Y0129386D02*
X0052547Y0129386D01*
X0052547Y0131359D02*
X0055847Y0131359D01*
X0055847Y0130159D01*
X0052547Y0130159D01*
X0052547Y0131359D01*
X0052547Y0130458D02*
X0055847Y0130458D01*
X0055847Y0130757D02*
X0052547Y0130757D01*
X0052547Y0131056D02*
X0055847Y0131056D01*
X0055847Y0131355D02*
X0052547Y0131355D01*
X0052547Y0133327D02*
X0055847Y0133327D01*
X0055847Y0132127D01*
X0052547Y0132127D01*
X0052547Y0133327D01*
X0052547Y0132426D02*
X0055847Y0132426D01*
X0055847Y0132725D02*
X0052547Y0132725D01*
X0052547Y0133024D02*
X0055847Y0133024D01*
X0055847Y0133323D02*
X0052547Y0133323D01*
X0052547Y0135296D02*
X0055847Y0135296D01*
X0055847Y0134096D01*
X0052547Y0134096D01*
X0052547Y0135296D01*
X0052547Y0134395D02*
X0055847Y0134395D01*
X0055847Y0134694D02*
X0052547Y0134694D01*
X0052547Y0134993D02*
X0055847Y0134993D01*
X0055847Y0135292D02*
X0052547Y0135292D01*
X0052547Y0137264D02*
X0055847Y0137264D01*
X0055847Y0136064D01*
X0052547Y0136064D01*
X0052547Y0137264D01*
X0052547Y0136363D02*
X0055847Y0136363D01*
X0055847Y0136662D02*
X0052547Y0136662D01*
X0052547Y0136961D02*
X0055847Y0136961D01*
X0055847Y0137260D02*
X0052547Y0137260D01*
X0050644Y0137967D02*
X0050644Y0141267D01*
X0051844Y0141267D01*
X0051844Y0137967D01*
X0050644Y0137967D01*
X0050644Y0138266D02*
X0051844Y0138266D01*
X0051844Y0138565D02*
X0050644Y0138565D01*
X0050644Y0138864D02*
X0051844Y0138864D01*
X0051844Y0139163D02*
X0050644Y0139163D01*
X0050644Y0139462D02*
X0051844Y0139462D01*
X0051844Y0139761D02*
X0050644Y0139761D01*
X0050644Y0140060D02*
X0051844Y0140060D01*
X0051844Y0140359D02*
X0050644Y0140359D01*
X0050644Y0140658D02*
X0051844Y0140658D01*
X0051844Y0140957D02*
X0050644Y0140957D01*
X0050644Y0141256D02*
X0051844Y0141256D01*
X0048676Y0141267D02*
X0048676Y0137967D01*
X0048676Y0141267D02*
X0049876Y0141267D01*
X0049876Y0137967D01*
X0048676Y0137967D01*
X0048676Y0138266D02*
X0049876Y0138266D01*
X0049876Y0138565D02*
X0048676Y0138565D01*
X0048676Y0138864D02*
X0049876Y0138864D01*
X0049876Y0139163D02*
X0048676Y0139163D01*
X0048676Y0139462D02*
X0049876Y0139462D01*
X0049876Y0139761D02*
X0048676Y0139761D01*
X0048676Y0140060D02*
X0049876Y0140060D01*
X0049876Y0140359D02*
X0048676Y0140359D01*
X0048676Y0140658D02*
X0049876Y0140658D01*
X0049876Y0140957D02*
X0048676Y0140957D01*
X0048676Y0141256D02*
X0049876Y0141256D01*
X0046707Y0141267D02*
X0046707Y0137967D01*
X0046707Y0141267D02*
X0047907Y0141267D01*
X0047907Y0137967D01*
X0046707Y0137967D01*
X0046707Y0138266D02*
X0047907Y0138266D01*
X0047907Y0138565D02*
X0046707Y0138565D01*
X0046707Y0138864D02*
X0047907Y0138864D01*
X0047907Y0139163D02*
X0046707Y0139163D01*
X0046707Y0139462D02*
X0047907Y0139462D01*
X0047907Y0139761D02*
X0046707Y0139761D01*
X0046707Y0140060D02*
X0047907Y0140060D01*
X0047907Y0140359D02*
X0046707Y0140359D01*
X0046707Y0140658D02*
X0047907Y0140658D01*
X0047907Y0140957D02*
X0046707Y0140957D01*
X0046707Y0141256D02*
X0047907Y0141256D01*
X0044739Y0141267D02*
X0044739Y0137967D01*
X0044739Y0141267D02*
X0045939Y0141267D01*
X0045939Y0137967D01*
X0044739Y0137967D01*
X0044739Y0138266D02*
X0045939Y0138266D01*
X0045939Y0138565D02*
X0044739Y0138565D01*
X0044739Y0138864D02*
X0045939Y0138864D01*
X0045939Y0139163D02*
X0044739Y0139163D01*
X0044739Y0139462D02*
X0045939Y0139462D01*
X0045939Y0139761D02*
X0044739Y0139761D01*
X0044739Y0140060D02*
X0045939Y0140060D01*
X0045939Y0140359D02*
X0044739Y0140359D01*
X0044739Y0140658D02*
X0045939Y0140658D01*
X0045939Y0140957D02*
X0044739Y0140957D01*
X0044739Y0141256D02*
X0045939Y0141256D01*
X0042770Y0141267D02*
X0042770Y0137967D01*
X0042770Y0141267D02*
X0043970Y0141267D01*
X0043970Y0137967D01*
X0042770Y0137967D01*
X0042770Y0138266D02*
X0043970Y0138266D01*
X0043970Y0138565D02*
X0042770Y0138565D01*
X0042770Y0138864D02*
X0043970Y0138864D01*
X0043970Y0139163D02*
X0042770Y0139163D01*
X0042770Y0139462D02*
X0043970Y0139462D01*
X0043970Y0139761D02*
X0042770Y0139761D01*
X0042770Y0140060D02*
X0043970Y0140060D01*
X0043970Y0140359D02*
X0042770Y0140359D01*
X0042770Y0140658D02*
X0043970Y0140658D01*
X0043970Y0140957D02*
X0042770Y0140957D01*
X0042770Y0141256D02*
X0043970Y0141256D01*
X0040802Y0141267D02*
X0040802Y0137967D01*
X0040802Y0141267D02*
X0042002Y0141267D01*
X0042002Y0137967D01*
X0040802Y0137967D01*
X0040802Y0138266D02*
X0042002Y0138266D01*
X0042002Y0138565D02*
X0040802Y0138565D01*
X0040802Y0138864D02*
X0042002Y0138864D01*
X0042002Y0139163D02*
X0040802Y0139163D01*
X0040802Y0139462D02*
X0042002Y0139462D01*
X0042002Y0139761D02*
X0040802Y0139761D01*
X0040802Y0140060D02*
X0042002Y0140060D01*
X0042002Y0140359D02*
X0040802Y0140359D01*
X0040802Y0140658D02*
X0042002Y0140658D01*
X0042002Y0140957D02*
X0040802Y0140957D01*
X0040802Y0141256D02*
X0042002Y0141256D01*
X0038833Y0141267D02*
X0038833Y0137967D01*
X0038833Y0141267D02*
X0040033Y0141267D01*
X0040033Y0137967D01*
X0038833Y0137967D01*
X0038833Y0138266D02*
X0040033Y0138266D01*
X0040033Y0138565D02*
X0038833Y0138565D01*
X0038833Y0138864D02*
X0040033Y0138864D01*
X0040033Y0139163D02*
X0038833Y0139163D01*
X0038833Y0139462D02*
X0040033Y0139462D01*
X0040033Y0139761D02*
X0038833Y0139761D01*
X0038833Y0140060D02*
X0040033Y0140060D01*
X0040033Y0140359D02*
X0038833Y0140359D01*
X0038833Y0140658D02*
X0040033Y0140658D01*
X0040033Y0140957D02*
X0038833Y0140957D01*
X0038833Y0141256D02*
X0040033Y0141256D01*
X0036865Y0141267D02*
X0036865Y0137967D01*
X0036865Y0141267D02*
X0038065Y0141267D01*
X0038065Y0137967D01*
X0036865Y0137967D01*
X0036865Y0138266D02*
X0038065Y0138266D01*
X0038065Y0138565D02*
X0036865Y0138565D01*
X0036865Y0138864D02*
X0038065Y0138864D01*
X0038065Y0139163D02*
X0036865Y0139163D01*
X0036865Y0139462D02*
X0038065Y0139462D01*
X0038065Y0139761D02*
X0036865Y0139761D01*
X0036865Y0140060D02*
X0038065Y0140060D01*
X0038065Y0140359D02*
X0036865Y0140359D01*
X0036865Y0140658D02*
X0038065Y0140658D01*
X0038065Y0140957D02*
X0036865Y0140957D01*
X0036865Y0141256D02*
X0038065Y0141256D01*
X0036162Y0136064D02*
X0032862Y0136064D01*
X0032862Y0137264D01*
X0036162Y0137264D01*
X0036162Y0136064D01*
X0036162Y0136363D02*
X0032862Y0136363D01*
X0032862Y0136662D02*
X0036162Y0136662D01*
X0036162Y0136961D02*
X0032862Y0136961D01*
X0032862Y0137260D02*
X0036162Y0137260D01*
X0036162Y0134096D02*
X0032862Y0134096D01*
X0032862Y0135296D01*
X0036162Y0135296D01*
X0036162Y0134096D01*
X0036162Y0134395D02*
X0032862Y0134395D01*
X0032862Y0134694D02*
X0036162Y0134694D01*
X0036162Y0134993D02*
X0032862Y0134993D01*
X0032862Y0135292D02*
X0036162Y0135292D01*
X0036162Y0132127D02*
X0032862Y0132127D01*
X0032862Y0133327D01*
X0036162Y0133327D01*
X0036162Y0132127D01*
X0036162Y0132426D02*
X0032862Y0132426D01*
X0032862Y0132725D02*
X0036162Y0132725D01*
X0036162Y0133024D02*
X0032862Y0133024D01*
X0032862Y0133323D02*
X0036162Y0133323D01*
X0036162Y0130159D02*
X0032862Y0130159D01*
X0032862Y0131359D01*
X0036162Y0131359D01*
X0036162Y0130159D01*
X0036162Y0130458D02*
X0032862Y0130458D01*
X0032862Y0130757D02*
X0036162Y0130757D01*
X0036162Y0131056D02*
X0032862Y0131056D01*
X0032862Y0131355D02*
X0036162Y0131355D01*
X0036162Y0128190D02*
X0032862Y0128190D01*
X0032862Y0129390D01*
X0036162Y0129390D01*
X0036162Y0128190D01*
X0036162Y0128489D02*
X0032862Y0128489D01*
X0032862Y0128788D02*
X0036162Y0128788D01*
X0036162Y0129087D02*
X0032862Y0129087D01*
X0032862Y0129386D02*
X0036162Y0129386D01*
X0036162Y0126222D02*
X0032862Y0126222D01*
X0032862Y0127422D01*
X0036162Y0127422D01*
X0036162Y0126222D01*
X0036162Y0126521D02*
X0032862Y0126521D01*
X0032862Y0126820D02*
X0036162Y0126820D01*
X0036162Y0127119D02*
X0032862Y0127119D01*
X0032862Y0127418D02*
X0036162Y0127418D01*
X0036162Y0124253D02*
X0032862Y0124253D01*
X0032862Y0125453D01*
X0036162Y0125453D01*
X0036162Y0124253D01*
X0036162Y0124552D02*
X0032862Y0124552D01*
X0032862Y0124851D02*
X0036162Y0124851D01*
X0036162Y0125150D02*
X0032862Y0125150D01*
X0032862Y0125449D02*
X0036162Y0125449D01*
X0036162Y0122285D02*
X0032862Y0122285D01*
X0032862Y0123485D01*
X0036162Y0123485D01*
X0036162Y0122285D01*
X0036162Y0122584D02*
X0032862Y0122584D01*
X0032862Y0122883D02*
X0036162Y0122883D01*
X0036162Y0123182D02*
X0032862Y0123182D01*
X0032862Y0123481D02*
X0036162Y0123481D01*
X0038065Y0121582D02*
X0038065Y0118282D01*
X0036865Y0118282D01*
X0036865Y0121582D01*
X0038065Y0121582D01*
X0038065Y0118581D02*
X0036865Y0118581D01*
X0036865Y0118880D02*
X0038065Y0118880D01*
X0038065Y0119179D02*
X0036865Y0119179D01*
X0036865Y0119478D02*
X0038065Y0119478D01*
X0038065Y0119777D02*
X0036865Y0119777D01*
X0036865Y0120076D02*
X0038065Y0120076D01*
X0038065Y0120375D02*
X0036865Y0120375D01*
X0036865Y0120674D02*
X0038065Y0120674D01*
X0038065Y0120973D02*
X0036865Y0120973D01*
X0036865Y0121272D02*
X0038065Y0121272D01*
X0038065Y0121571D02*
X0036865Y0121571D01*
X0040033Y0121582D02*
X0040033Y0118282D01*
X0038833Y0118282D01*
X0038833Y0121582D01*
X0040033Y0121582D01*
X0040033Y0118581D02*
X0038833Y0118581D01*
X0038833Y0118880D02*
X0040033Y0118880D01*
X0040033Y0119179D02*
X0038833Y0119179D01*
X0038833Y0119478D02*
X0040033Y0119478D01*
X0040033Y0119777D02*
X0038833Y0119777D01*
X0038833Y0120076D02*
X0040033Y0120076D01*
X0040033Y0120375D02*
X0038833Y0120375D01*
X0038833Y0120674D02*
X0040033Y0120674D01*
X0040033Y0120973D02*
X0038833Y0120973D01*
X0038833Y0121272D02*
X0040033Y0121272D01*
X0040033Y0121571D02*
X0038833Y0121571D01*
X0042002Y0121582D02*
X0042002Y0118282D01*
X0040802Y0118282D01*
X0040802Y0121582D01*
X0042002Y0121582D01*
X0042002Y0118581D02*
X0040802Y0118581D01*
X0040802Y0118880D02*
X0042002Y0118880D01*
X0042002Y0119179D02*
X0040802Y0119179D01*
X0040802Y0119478D02*
X0042002Y0119478D01*
X0042002Y0119777D02*
X0040802Y0119777D01*
X0040802Y0120076D02*
X0042002Y0120076D01*
X0042002Y0120375D02*
X0040802Y0120375D01*
X0040802Y0120674D02*
X0042002Y0120674D01*
X0042002Y0120973D02*
X0040802Y0120973D01*
X0040802Y0121272D02*
X0042002Y0121272D01*
X0042002Y0121571D02*
X0040802Y0121571D01*
X0043970Y0121582D02*
X0043970Y0118282D01*
X0042770Y0118282D01*
X0042770Y0121582D01*
X0043970Y0121582D01*
X0043970Y0118581D02*
X0042770Y0118581D01*
X0042770Y0118880D02*
X0043970Y0118880D01*
X0043970Y0119179D02*
X0042770Y0119179D01*
X0042770Y0119478D02*
X0043970Y0119478D01*
X0043970Y0119777D02*
X0042770Y0119777D01*
X0042770Y0120076D02*
X0043970Y0120076D01*
X0043970Y0120375D02*
X0042770Y0120375D01*
X0042770Y0120674D02*
X0043970Y0120674D01*
X0043970Y0120973D02*
X0042770Y0120973D01*
X0042770Y0121272D02*
X0043970Y0121272D01*
X0043970Y0121571D02*
X0042770Y0121571D01*
X0045939Y0121582D02*
X0045939Y0118282D01*
X0044739Y0118282D01*
X0044739Y0121582D01*
X0045939Y0121582D01*
X0045939Y0118581D02*
X0044739Y0118581D01*
X0044739Y0118880D02*
X0045939Y0118880D01*
X0045939Y0119179D02*
X0044739Y0119179D01*
X0044739Y0119478D02*
X0045939Y0119478D01*
X0045939Y0119777D02*
X0044739Y0119777D01*
X0044739Y0120076D02*
X0045939Y0120076D01*
X0045939Y0120375D02*
X0044739Y0120375D01*
X0044739Y0120674D02*
X0045939Y0120674D01*
X0045939Y0120973D02*
X0044739Y0120973D01*
X0044739Y0121272D02*
X0045939Y0121272D01*
X0045939Y0121571D02*
X0044739Y0121571D01*
X0047907Y0121582D02*
X0047907Y0118282D01*
X0046707Y0118282D01*
X0046707Y0121582D01*
X0047907Y0121582D01*
X0047907Y0118581D02*
X0046707Y0118581D01*
X0046707Y0118880D02*
X0047907Y0118880D01*
X0047907Y0119179D02*
X0046707Y0119179D01*
X0046707Y0119478D02*
X0047907Y0119478D01*
X0047907Y0119777D02*
X0046707Y0119777D01*
X0046707Y0120076D02*
X0047907Y0120076D01*
X0047907Y0120375D02*
X0046707Y0120375D01*
X0046707Y0120674D02*
X0047907Y0120674D01*
X0047907Y0120973D02*
X0046707Y0120973D01*
X0046707Y0121272D02*
X0047907Y0121272D01*
X0047907Y0121571D02*
X0046707Y0121571D01*
X0049876Y0121582D02*
X0049876Y0118282D01*
X0048676Y0118282D01*
X0048676Y0121582D01*
X0049876Y0121582D01*
X0049876Y0118581D02*
X0048676Y0118581D01*
X0048676Y0118880D02*
X0049876Y0118880D01*
X0049876Y0119179D02*
X0048676Y0119179D01*
X0048676Y0119478D02*
X0049876Y0119478D01*
X0049876Y0119777D02*
X0048676Y0119777D01*
X0048676Y0120076D02*
X0049876Y0120076D01*
X0049876Y0120375D02*
X0048676Y0120375D01*
X0048676Y0120674D02*
X0049876Y0120674D01*
X0049876Y0120973D02*
X0048676Y0120973D01*
X0048676Y0121272D02*
X0049876Y0121272D01*
X0049876Y0121571D02*
X0048676Y0121571D01*
X0051844Y0121582D02*
X0051844Y0118282D01*
X0050644Y0118282D01*
X0050644Y0121582D01*
X0051844Y0121582D01*
X0051844Y0118581D02*
X0050644Y0118581D01*
X0050644Y0118880D02*
X0051844Y0118880D01*
X0051844Y0119179D02*
X0050644Y0119179D01*
X0050644Y0119478D02*
X0051844Y0119478D01*
X0051844Y0119777D02*
X0050644Y0119777D01*
X0050644Y0120076D02*
X0051844Y0120076D01*
X0051844Y0120375D02*
X0050644Y0120375D01*
X0050644Y0120674D02*
X0051844Y0120674D01*
X0051844Y0120973D02*
X0050644Y0120973D01*
X0050644Y0121272D02*
X0051844Y0121272D01*
X0051844Y0121571D02*
X0050644Y0121571D01*
D20*
X0050610Y0123519D02*
X0038100Y0123519D01*
X0038100Y0136029D01*
X0050610Y0136029D01*
X0050610Y0123519D01*
X0050610Y0124908D02*
X0038100Y0124908D01*
X0038100Y0126297D02*
X0050610Y0126297D01*
X0050610Y0127686D02*
X0038100Y0127686D01*
X0038100Y0129075D02*
X0050610Y0129075D01*
X0050610Y0130464D02*
X0038100Y0130464D01*
X0038100Y0131853D02*
X0050610Y0131853D01*
X0050610Y0133242D02*
X0038100Y0133242D01*
X0038100Y0134631D02*
X0050610Y0134631D01*
X0050610Y0136020D02*
X0038100Y0136020D01*
X0146958Y0122338D02*
X0159468Y0122338D01*
X0146958Y0122338D02*
X0146958Y0134848D01*
X0159468Y0134848D01*
X0159468Y0122338D01*
X0159468Y0123727D02*
X0146958Y0123727D01*
X0146958Y0125116D02*
X0159468Y0125116D01*
X0159468Y0126505D02*
X0146958Y0126505D01*
X0146958Y0127894D02*
X0159468Y0127894D01*
X0159468Y0129283D02*
X0146958Y0129283D01*
X0146958Y0130672D02*
X0159468Y0130672D01*
X0159468Y0132061D02*
X0146958Y0132061D01*
X0146958Y0133450D02*
X0159468Y0133450D01*
X0159468Y0134839D02*
X0146958Y0134839D01*
D21*
X0108410Y0114617D03*
X0108410Y0105562D03*
X0093843Y0105562D03*
X0093843Y0114617D03*
X0035181Y0069066D03*
X0035181Y0060011D03*
X0020614Y0060011D03*
X0020614Y0069066D03*
D22*
X0016953Y0088318D03*
X0016953Y0092058D03*
X0016953Y0095798D03*
X0027190Y0095798D03*
X0027190Y0088318D03*
X0027189Y0026507D03*
X0027189Y0022767D03*
X0027189Y0019026D03*
X0037426Y0019026D03*
X0037426Y0026507D03*
D23*
X0009361Y0086807D02*
X0009361Y0089733D01*
X0009361Y0086807D02*
X0006435Y0086807D01*
X0006435Y0089733D01*
X0009361Y0089733D01*
X0009361Y0087781D02*
X0006435Y0087781D01*
X0006435Y0088755D02*
X0009361Y0088755D01*
X0009361Y0089729D02*
X0006435Y0089729D01*
X0009361Y0092807D02*
X0009361Y0095733D01*
X0009361Y0092807D02*
X0006435Y0092807D01*
X0006435Y0095733D01*
X0009361Y0095733D01*
X0009361Y0093781D02*
X0006435Y0093781D01*
X0006435Y0094755D02*
X0009361Y0094755D01*
X0009361Y0095729D02*
X0006435Y0095729D01*
X0019577Y0104151D02*
X0022503Y0104151D01*
X0022503Y0101225D01*
X0019577Y0101225D01*
X0019577Y0104151D01*
X0019577Y0102199D02*
X0022503Y0102199D01*
X0022503Y0103173D02*
X0019577Y0103173D01*
X0019577Y0104147D02*
X0022503Y0104147D01*
X0025577Y0104151D02*
X0028503Y0104151D01*
X0028503Y0101225D01*
X0025577Y0101225D01*
X0025577Y0104151D01*
X0025577Y0102199D02*
X0028503Y0102199D01*
X0028503Y0103173D02*
X0025577Y0103173D01*
X0025577Y0104147D02*
X0028503Y0104147D01*
M02*
