G75*
%MOIN*%
%OFA0B0*%
%FSLAX25Y25*%
%IPPOS*%
%LPD*%
%AMOC8*
5,1,8,0,0,1.08239X$1,22.5*
%
%ADD10C,0.00000*%
%ADD11C,0.00400*%
D10*
X0002386Y0002294D02*
X0002386Y0199144D01*
X0199236Y0199144D01*
X0199236Y0002294D01*
X0002386Y0002294D01*
D11*
X0108726Y0065920D02*
X0108726Y0069756D01*
X0111028Y0069756D01*
X0111795Y0068989D01*
X0111795Y0067454D01*
X0111028Y0066687D01*
X0108726Y0066687D01*
X0108726Y0065920D02*
X0109493Y0065152D01*
X0110260Y0065152D01*
X0113330Y0066687D02*
X0113330Y0068989D01*
X0114097Y0069756D01*
X0116399Y0069756D01*
X0116399Y0066687D01*
X0117934Y0066687D02*
X0117934Y0068989D01*
X0118701Y0069756D01*
X0120236Y0069756D01*
X0120236Y0068222D02*
X0117934Y0068222D01*
X0117934Y0066687D02*
X0120236Y0066687D01*
X0121003Y0067454D01*
X0120236Y0068222D01*
X0122537Y0068989D02*
X0122537Y0066687D01*
X0122537Y0068989D02*
X0123305Y0069756D01*
X0124839Y0069756D01*
X0125607Y0068989D01*
X0125607Y0071291D02*
X0125607Y0066687D01*
X0127141Y0066687D02*
X0127141Y0071291D01*
X0128676Y0068222D02*
X0127141Y0066687D01*
X0128676Y0068222D02*
X0130211Y0066687D01*
X0130211Y0071291D01*
X0137117Y0071291D02*
X0137117Y0066687D01*
X0137884Y0066687D02*
X0136349Y0066687D01*
X0139419Y0066687D02*
X0140953Y0066687D01*
X0140186Y0066687D02*
X0140186Y0071291D01*
X0140953Y0071291D01*
X0143255Y0071291D02*
X0143255Y0072058D01*
X0143255Y0069756D02*
X0143255Y0066687D01*
X0144022Y0066687D02*
X0142488Y0066687D01*
X0143255Y0069756D02*
X0144022Y0069756D01*
X0145557Y0071291D02*
X0145557Y0066687D01*
X0147092Y0068222D01*
X0148626Y0066687D01*
X0148626Y0071291D01*
X0149394Y0074187D02*
X0151696Y0074187D01*
X0152463Y0074954D01*
X0152463Y0076489D01*
X0151696Y0077256D01*
X0149394Y0077256D01*
X0149394Y0078791D02*
X0149394Y0074187D01*
X0153998Y0077256D02*
X0154765Y0077256D01*
X0156300Y0075722D01*
X0157834Y0075722D02*
X0160136Y0075722D01*
X0160904Y0074954D01*
X0160136Y0074187D01*
X0157834Y0074187D01*
X0157834Y0076489D01*
X0158602Y0077256D01*
X0160136Y0077256D01*
X0162438Y0076489D02*
X0162438Y0074954D01*
X0163205Y0074187D01*
X0164740Y0074187D01*
X0165507Y0074954D01*
X0165507Y0076489D01*
X0164740Y0077256D01*
X0163205Y0077256D01*
X0162438Y0076489D01*
X0167042Y0077256D02*
X0167809Y0076489D01*
X0170111Y0076489D01*
X0167809Y0076489D02*
X0167042Y0075722D01*
X0167042Y0074954D01*
X0167809Y0074187D01*
X0170111Y0074187D01*
X0170111Y0078791D01*
X0167809Y0078791D01*
X0167042Y0078024D01*
X0167042Y0077256D01*
X0162438Y0071291D02*
X0162438Y0066687D01*
X0160136Y0066687D01*
X0159369Y0067454D01*
X0159369Y0068989D01*
X0160136Y0069756D01*
X0162438Y0069756D01*
X0157834Y0069756D02*
X0157834Y0067454D01*
X0157067Y0066687D01*
X0154765Y0066687D01*
X0154765Y0065920D02*
X0155532Y0065152D01*
X0156300Y0065152D01*
X0155532Y0063791D02*
X0153998Y0063791D01*
X0153230Y0063024D01*
X0153230Y0062256D01*
X0156300Y0059187D01*
X0153230Y0059187D01*
X0151696Y0059954D02*
X0150928Y0059187D01*
X0149394Y0059187D01*
X0148626Y0059954D01*
X0148626Y0063024D01*
X0149394Y0063791D01*
X0150928Y0063791D01*
X0151696Y0063024D01*
X0151696Y0062256D01*
X0150928Y0061489D01*
X0148626Y0061489D01*
X0154765Y0065920D02*
X0154765Y0069756D01*
X0156300Y0074187D02*
X0156300Y0077256D01*
X0168577Y0068989D02*
X0168577Y0066687D01*
X0168577Y0068989D02*
X0169344Y0069756D01*
X0171646Y0069756D01*
X0171646Y0066687D01*
X0173181Y0066687D02*
X0175483Y0066687D01*
X0176250Y0067454D01*
X0176250Y0068989D01*
X0175483Y0069756D01*
X0173181Y0069756D01*
X0173181Y0065920D01*
X0173948Y0065152D01*
X0174715Y0065152D01*
X0176250Y0063791D02*
X0177785Y0063024D01*
X0179319Y0061489D01*
X0177017Y0061489D01*
X0176250Y0060722D01*
X0176250Y0059954D01*
X0177017Y0059187D01*
X0178552Y0059187D01*
X0179319Y0059954D01*
X0179319Y0061489D01*
X0180854Y0059187D02*
X0183923Y0059187D01*
X0182388Y0059187D02*
X0182388Y0063791D01*
X0183923Y0062256D01*
X0185458Y0063024D02*
X0188527Y0059954D01*
X0187760Y0059187D01*
X0186225Y0059187D01*
X0185458Y0059954D01*
X0185458Y0063024D01*
X0186225Y0063791D01*
X0187760Y0063791D01*
X0188527Y0063024D01*
X0188527Y0059954D01*
X0190062Y0059187D02*
X0193131Y0059187D01*
X0190062Y0062256D01*
X0190062Y0063024D01*
X0190829Y0063791D01*
X0192364Y0063791D01*
X0193131Y0063024D01*
X0192364Y0066687D02*
X0190062Y0066687D01*
X0190062Y0071291D01*
X0190062Y0069756D02*
X0192364Y0069756D01*
X0193131Y0068989D01*
X0193131Y0067454D01*
X0192364Y0066687D01*
X0188527Y0067454D02*
X0188527Y0068989D01*
X0187760Y0069756D01*
X0186225Y0069756D01*
X0185458Y0068989D01*
X0185458Y0068222D01*
X0188527Y0068222D01*
X0188527Y0067454D02*
X0187760Y0066687D01*
X0186225Y0066687D01*
X0183923Y0066687D02*
X0181621Y0066687D01*
X0180854Y0067454D01*
X0181621Y0068222D01*
X0183156Y0068222D01*
X0183923Y0068989D01*
X0183156Y0069756D01*
X0180854Y0069756D01*
X0179319Y0069756D02*
X0178552Y0069756D01*
X0178552Y0066687D01*
X0179319Y0066687D02*
X0177785Y0066687D01*
X0178552Y0071291D02*
X0178552Y0072058D01*
X0178552Y0074187D02*
X0176250Y0074187D01*
X0176250Y0076489D01*
X0177017Y0077256D01*
X0178552Y0077256D01*
X0178552Y0075722D02*
X0176250Y0075722D01*
X0178552Y0075722D02*
X0179319Y0074954D01*
X0178552Y0074187D01*
X0180854Y0074187D02*
X0182388Y0075722D01*
X0181621Y0075722D02*
X0180854Y0076489D01*
X0180854Y0078024D01*
X0181621Y0078791D01*
X0183923Y0078791D01*
X0183923Y0074187D01*
X0183923Y0075722D02*
X0181621Y0075722D01*
X0185458Y0076489D02*
X0185458Y0074954D01*
X0186225Y0074187D01*
X0187760Y0074187D01*
X0188527Y0074954D01*
X0188527Y0076489D01*
X0187760Y0077256D01*
X0186225Y0077256D01*
X0185458Y0076489D01*
X0190062Y0074187D02*
X0193131Y0074187D01*
X0193131Y0078791D01*
X0171646Y0063791D02*
X0174715Y0059187D01*
X0170111Y0059954D02*
X0170111Y0063024D01*
X0169344Y0063791D01*
X0167809Y0063791D01*
X0167042Y0063024D01*
X0170111Y0059954D01*
X0169344Y0059187D01*
X0167809Y0059187D01*
X0167042Y0059954D01*
X0167042Y0063024D01*
X0165507Y0063791D02*
X0162438Y0063791D01*
X0162438Y0063024D01*
X0165507Y0059954D01*
X0165507Y0059187D01*
X0160904Y0059187D02*
X0157834Y0063791D01*
X0156300Y0063024D02*
X0155532Y0063791D01*
X0137884Y0071291D02*
X0137117Y0071291D01*
M02*
