%
M48
M72
T01C0.01300
T02C0.04000
%
T01
X5142Y5050
X5142Y15680
X15772Y22767
X21677Y34578
X21677Y38908
X21677Y43633
X21677Y48357
X21677Y53081
X12622Y61743
X41362Y61349
X58685Y71979
X51992Y81822
X66559Y95995
X69709Y95601
X73646Y95995
X77189Y97963
X81126Y94026
X98449Y77097
X98449Y64893
X94512Y64893
X90575Y64893
X86244Y64893
X86244Y60562
X86244Y56625
X86244Y52688
X86244Y48751
X86244Y44420
X90575Y44420
X94512Y44420
X98449Y44420
X102386Y44420
X106323Y44420
X110260Y44420
X110260Y48751
X110260Y52688
X110260Y56625
X110260Y60562
X106323Y60562
X102386Y60562
X98449Y60562
X94512Y60562
X90575Y60562
X90575Y56625
X94512Y56625
X98449Y56625
X102386Y56625
X106323Y56625
X106323Y52688
X102386Y52688
X98449Y52688
X94512Y52688
X90575Y52688
X90575Y48751
X94512Y48751
X98449Y48751
X102386Y48751
X106323Y48751
X116559Y36152
X103173Y23554
X106323Y20011
X96087Y20011
X94118Y23554
X89788Y18436
X89394Y14893
X75614Y23160
X72465Y33790
X69709Y36152
X68134Y39696
X63016Y42845
X61835Y38908
X65378Y49144
X61835Y25916
X47662Y19617
X80339Y72373
X102386Y64893
X106323Y64893
X110260Y64893
X116166Y72373
X124433Y71979
X124040Y76704
X129551Y81822
X133882Y79853
X132701Y93239
X102780Y105444
X100811Y119223
X101205Y122767
X116166Y124341
X122859Y125916
X122859Y130247
X122859Y134184
X123252Y138515
X135063Y146389
X134670Y150719
X138607Y150719
X142937Y150719
X147268Y149932
X145299Y156231
X149236Y157019
X149236Y160956
X153173Y164499
X156717Y160956
X159079Y157019
X156323Y154656
X161048Y151507
X163410Y149144
X159079Y147963
X158685Y143633
X164985Y153475
X168922Y153081
X173252Y153081
X176402Y156231
X173252Y159774
X173252Y163318
X173252Y167255
X173252Y171585
X176796Y175522
X176796Y179853
X180733Y181034
X166559Y181034
X166559Y177885
X166166Y174735
X166166Y171192
X166166Y167255
X166166Y163318
X166166Y159381
X162229Y158593
X140969Y156231
X136638Y156231
X132307Y156231
X127977Y156625
X125614Y159381
X125614Y163318
X128764Y166861
X125614Y170798
X125614Y174341
X125614Y177885
X125614Y181034
X132307Y181428
X118528Y181034
X118528Y177885
X118528Y174341
X118528Y170798
X118528Y167255
X118528Y163318
X118528Y159381
X119709Y155444
X122465Y152294
X126402Y150719
X130733Y150719
X135851Y135365
X136244Y128672
X153173Y128672
X163803Y116467
X165378Y104263
X186638Y131428
X186638Y135365
X186638Y139302
X186638Y143633
X160260Y181428
X112229Y181428
X82307Y181428
X79158Y179853
X79158Y176310
X75614Y172373
X75614Y168830
X75614Y164893
X75614Y160956
X79158Y158200
X75614Y154656
X71677Y154656
X68134Y154656
X64591Y154656
X60654Y154656
X56717Y154656
X53173Y153475
X50811Y150326
X50024Y145995
X46087Y153081
X47662Y156625
X48055Y160168
X51205Y158987
X55536Y160562
X60260Y160562
X64591Y160562
X68528Y160562
X68528Y164893
X68528Y168830
X68528Y172767
X68528Y176704
X68528Y180641
X61835Y181428
X48055Y163711
X43725Y167255
X40181Y163711
X40181Y160168
X36244Y158987
X31914Y158987
X26796Y158987
X22071Y159381
X21677Y163711
X25614Y167255
X21677Y171979
X21677Y176310
X21677Y180247
X14591Y180247
X14591Y176310
X14591Y171979
X14591Y167648
X14591Y163318
X14591Y158200
X17740Y155050
X21677Y153475
X21677Y148357
X27977Y144814
X26796Y153475
X31914Y153475
X36638Y153475
X38213Y149538
X38607Y145207
X24827Y135759
X28370Y129853
X30339Y117255
X36244Y115286
X39000Y107019
X39000Y103081
X40575Y98357
X33095Y101900
X16559Y102688
X9473Y98357
X5929Y98357
X13410Y128278
X13410Y133003
X13410Y137727
X13410Y142058
X44118Y129853
X54355Y118042
X59866Y108987
X53961Y106231
X54355Y103081
X78764Y110956
X78764Y121979
X83882Y122767
X77977Y131822
X77977Y136546
X77977Y140877
X77977Y145601
X58685Y150326
X28370Y181034
X7898Y181034
X132307Y51900
X132307Y40877
X145299Y52294
T02
X26284Y7873
X36284Y6873
X46284Y7873
X56284Y6873
X66284Y7873
X76284Y6873
X86284Y7873
X96284Y6873
M30
